<?xml version="1.0" encoding="UTF-8"?>
<svg width="136px" height="136px" viewBox="0 0 136 136" version="1.1" xmlns="http://www.w3.org/2000/svg" xmlns:xlink="http://www.w3.org/1999/xlink">
    <!-- Generator: Sketch 46.2 (44496) - http://www.bohemiancoding.com/sketch -->
    <title>Bag</title>
    <desc>Created with Sketch.</desc>
    <defs>
        <filter x="-13.6%" y="-6.7%" width="127.1%" height="119.6%" filterUnits="objectBoundingBox" id="filter-1">
            <feOffset dx="0" dy="5" in="SourceAlpha" result="shadowOffsetOuter1"></feOffset>
            <feGaussianBlur stdDeviation="4.5" in="shadowOffsetOuter1" result="shadowBlurOuter1"></feGaussianBlur>
            <feColorMatrix values="0 0 0 0 0   0 0 0 0 0   0 0 0 0 0  0 0 0 0.0842674366 0" type="matrix" in="shadowBlurOuter1" result="shadowMatrixOuter1"></feColorMatrix>
            <feMerge>
                <feMergeNode in="shadowMatrixOuter1"></feMergeNode>
                <feMergeNode in="SourceGraphic"></feMergeNode>
            </feMerge>
        </filter>
    </defs>
    <g id="Welcome" stroke="none" stroke-width="1" fill="none" fill-rule="evenodd">
        <g id="Desktop-HD-Copy-2" transform="translate(-442.000000, -1835.000000)">
            <g id="Bag" filter="url(#filter-1)" transform="translate(451.000000, 1839.000000)">
                <ellipse id="Oval-365" fill="#C4D0EE" cx="58.8264115" cy="59.1272478" rx="58.8264115" ry="59.1272478"></ellipse>
                <g id="shopping-bag" transform="translate(31.000000, 23.818182)" fill="#889CCE">
                    <g id="Group" transform="translate(0.000000, 0.000000)">
                        <g transform="translate(0.830404, 0.228893)" id="Shape">
                            <path d="M55.7362301,22.7706736 L38.8832121,22.7706736 C39.0902744,23.6613506 39.2806481,24.4704388 39.4487703,25.1651792 C40.1330031,25.9612875 40.5533087,26.8018987 40.6917623,27.6666156 C41.0953793,30.1767053 39.0810029,32.4723156 38.9957056,32.5718291 C38.7985328,32.7924895 38.5191532,32.9099279 38.2373013,32.9099279 C38.0636162,32.9099279 37.889313,32.8641887 37.7316984,32.7720924 C37.6198229,32.7090465 34.9885863,31.1619511 34.5843512,28.6487709 C34.4106661,27.5844088 34.6554323,26.400136 35.2926897,25.2090641 L34.8723841,23.4357453 C34.8254088,23.2255926 34.7679258,22.9882435 34.7184781,22.7706736 L22.145778,22.7706736 C22.0963303,22.9845349 22.0413197,23.215703 21.9937263,23.4196748 L21.5697121,25.2109184 C22.2069696,26.400136 22.4523539,27.5837907 22.279905,28.6487709 C21.8744337,31.1619511 19.2444333,32.7096646 19.1313216,32.7720924 C18.9724708,32.8635706 18.7987857,32.9099279 18.6251006,32.9099279 C18.3438667,32.9099279 18.0669595,32.7931076 17.8685505,32.5718291 C17.7813989,32.4729337 15.7688769,30.1785596 16.1706396,27.6666156 C16.3090932,26.803753 16.7281626,25.9649961 17.4136315,25.1670335 L17.9816622,22.7706736 L1.12617175,22.7706736 C0.833194027,22.7706736 0.593990697,23.0098769 0.593990697,23.3047089 C0.593990697,23.3047089 1.87468656,43.6765501 2.83397227,51.6771907 C3.79449416,59.676595 6.05858149,61.8096459 6.35526779,61.8096459 L50.5108427,61.8096459 C50.8044385,61.8096459 53.0703801,59.676595 54.0296658,51.6771907 C54.9901877,43.6771682 56.2702655,23.3047089 56.2702655,23.3047089 C56.2708836,23.010495 56.0329164,22.7706736 55.7362301,22.7706736 L55.7362301,22.7706736 Z"></path>
                            <path d="M39.6910641,27.8273207 C39.5501381,26.9527142 39.0500981,26.2184156 38.5228618,25.6510031 C38.3232167,24.8258443 38.0939029,23.84987 37.8349205,22.7434773 C36.5523703,17.2733237 34.6127836,9.01061018 32.6577445,4.15608059 C31.7114388,1.80113308 30.7972742,-1.59872116e-14 28.4262562,-1.59872116e-14 C26.1819479,-1.59872116e-14 25.0341428,2.09967367 24.2071297,4.15608059 C22.2557992,9.00442922 20.3168306,17.2609617 19.0336624,22.7267887 C18.7728257,23.8393623 18.5428938,24.8208995 18.3407762,25.650385 C17.8141581,26.2184156 17.3134999,26.9520961 17.173192,27.8267026 C16.8406561,29.8905267 18.6263368,31.8956316 18.6263368,31.8956316 C18.6263368,31.8956316 20.9497614,30.552508 21.2816792,28.4880658 C21.4714348,27.2982301 20.9608871,26.1430078 20.4942243,25.3629701 C20.652457,24.702225 20.8187249,23.9895598 21.0090987,23.189743 C22.2755783,17.7851075 24.1910592,9.61758091 26.0873792,4.91139447 C27.1103288,2.36854563 27.8446274,2.02673829 28.4262562,2.02673829 C29.3206417,2.02673829 29.7842141,2.44209911 30.7774951,4.91139447 C32.6750512,9.62376187 34.5930045,17.7974694 35.8613385,23.2064316 C36.0480036,24.0019217 36.2136535,24.7059336 36.3700319,25.3629701 C35.903369,26.1430078 35.3922033,27.2982301 35.5844313,28.4880658 C35.9169672,30.5518899 38.2379194,31.8956316 38.2379194,31.8956316 C38.2379194,31.8956316 40.0236,29.8911448 39.6910641,27.8273207 L39.6910641,27.8273207 Z"></path>
                        </g>
                    </g>
                </g>
            </g>
        </g>
    </g>
</svg>