<?xml version="1.0" encoding="UTF-8"?>
<svg width="118px" height="119px" viewBox="0 0 118 119" version="1.1" xmlns="http://www.w3.org/2000/svg" xmlns:xlink="http://www.w3.org/1999/xlink">
    <!-- Generator: Sketch 46.2 (44496) - http://www.bohemiancoding.com/sketch -->
    <title>star</title>
    <desc>Created with Sketch.</desc>
    <defs></defs>
    <g id="Welcome" stroke="none" stroke-width="1" fill="none" fill-rule="evenodd">
        <g id="Desktop-HD-Copy-2" transform="translate(-461.000000, -3538.000000)">
            <g id="star" transform="translate(461.000000, 3538.000000)">
                <g id="add-products" transform="translate(-0.000000, 0.000000)" fill="#FFEBBA">
                    <ellipse id="Oval-365" cx="58.9917703" cy="59.3101189" rx="58.8264115" ry="59.1272478"></ellipse>
                </g>
                <g transform="translate(28.909091, 30.438699)" id="Group" fill="#FFC842">
                    <g>
                        <path d="M32.8670998,2.8272774 L37.0373339,15.6207076 C37.5321075,17.2463921 39.0164281,18.3066212 40.7127945,18.3066212 L54.1423622,18.3066212 C57.8885047,18.3066212 59.4435073,23.1129927 56.4041841,25.3041327 L45.5191661,33.2911914 C44.1762093,34.2807385 43.6107539,36.0477868 44.1055274,37.6027894 L48.2757616,50.3962196 C49.4066725,54.0009983 45.3778022,56.9696396 42.338479,54.7078177 L31.4534611,46.7914409 C30.1105043,45.8018938 28.272774,45.8018938 26.9298172,46.7914409 L15.9741173,54.7078177 C12.9347941,56.8989576 8.83524187,53.9303164 10.0368348,50.3962196 L14.2070689,37.6027894 C14.7018425,35.9771049 14.136387,34.2807385 12.7934302,33.2911914 L1.90841224,25.3748146 C-1.13091096,23.1836747 0.42409161,18.3773031 4.17023416,18.3773031 L17.5998018,18.3773031 C19.2961682,18.3773031 20.7804889,17.3170741 21.2752624,15.6913896 L25.4454966,2.8272774 C26.6470895,-0.70681935 31.6655069,-0.70681935 32.8670998,2.8272774 L32.8670998,2.8272774 Z" id="Shape"></path>
                    </g>
                </g>
            </g>
        </g>
    </g>
</svg>