<?xml version="1.0" encoding="UTF-8"?>
<svg width="118px" height="119px" viewBox="0 0 118 119" version="1.1" xmlns="http://www.w3.org/2000/svg" xmlns:xlink="http://www.w3.org/1999/xlink">
    <!-- Generator: Sketch 46.2 (44496) - http://www.bohemiancoding.com/sketch -->
    <title>star copy 2</title>
    <desc>Created with Sketch.</desc>
    <defs></defs>
    <g id="Welcome" stroke="none" stroke-width="1" fill="none" fill-rule="evenodd">
        <g id="Desktop-HD-Copy-12" transform="translate(-661.000000, -189.000000)">
            <g id="star-copy-2" transform="translate(661.000000, 189.000000)">
                <g id="add-products-copy-2" fill="#FDEEC7">
                    <ellipse id="Oval-365" cx="58.9917703" cy="59.3101189" rx="58.8264115" ry="59.1272478"></ellipse>
                </g>
                <g id="shop" transform="translate(31.000000, 32.000000)" fill-rule="nonzero" fill="#F8CF63">
                    <g id="Group">
                        <path d="M48.628125,27.2608696 L48.628125,50.2771739 L36.8125,50.2771739 L36.8125,27.201087 C36.396875,27.2608696 35.98125,27.3206522 35.565625,27.3206522 C34.496875,27.3206522 33.546875,27.1413043 32.596875,26.8423913 L32.596875,39.0380435 L8.371875,39.0380435 L8.371875,27.3206522 C8.015625,27.3804348 7.71875,27.3804348 7.3625,27.3804348 C6.234375,27.3804348 5.165625,27.1413043 4.15625,26.7826087 L4.15625,53.4456522 C4.15625,54.1032609 4.690625,54.6413043 5.34375,54.6413043 L51.715625,54.6413043 C52.36875,54.6413043 52.903125,54.1032609 52.903125,53.4456522 L52.903125,26.7826087 C51.89375,27.1413043 50.825,27.3804348 49.696875,27.3804348 C49.28125,27.3206522 48.984375,27.3206522 48.628125,27.2608696 Z" id="Shape"></path>
                        <path d="M55.8125,13.2119565 L51.65625,1.97282609 C51.3,1.01630435 50.409375,0.418478261 49.4,0.418478261 L7.6,0.418478261 C6.590625,0.418478261 5.7,1.01630435 5.34375,1.97282609 L1.1875,13.2119565 C0.59375,14.7663043 0.296875,16.4402174 0.296875,18.1141304 L0.296875,18.1141304 C0.296875,22.0597826 3.44375,25.2282609 7.3625,25.2282609 L7.3625,25.2282609 C11.28125,25.2282609 14.428125,22.0597826 14.428125,18.1141304 C14.428125,22.0597826 17.575,25.2282609 21.49375,25.2282609 C25.4125,25.2282609 28.559375,22.0597826 28.559375,18.1141304 C28.559375,22.0597826 31.70625,25.2282609 35.625,25.2282609 L35.625,25.2282609 C39.54375,25.2282609 42.690625,22.0597826 42.690625,18.1141304 C42.690625,22.0597826 45.8375,25.2282609 49.75625,25.2282609 L49.75625,25.2282609 C53.675,25.2282609 56.821875,22.0597826 56.821875,18.1141304 C56.703125,16.4402174 56.40625,14.7663043 55.8125,13.2119565 Z" id="Shape"></path>
                        <path d="M19.7125,36.1684783 C20.1875,36.6467391 21.01875,36.6467391 21.49375,36.1684783 L27.55,30.0706522 C28.025,29.5923913 28.025,28.7554348 27.55,28.2771739 C27.075,27.798913 26.24375,27.798913 25.76875,28.2771739 L19.7125,34.375 C19.2375,34.8532609 19.2375,35.6304348 19.7125,36.1684783 Z" id="Shape"></path>
                        <path d="M18.109375,28.2771739 L12.053125,34.375 C11.578125,34.8532609 11.578125,35.6902174 12.053125,36.1684783 C12.528125,36.6467391 13.359375,36.6467391 13.834375,36.1684783 L19.890625,30.0706522 C20.365625,29.5923913 20.365625,28.7554348 19.890625,28.2771739 C19.415625,27.798913 18.584375,27.7391304 18.109375,28.2771739 Z" id="Shape"></path>
                    </g>
                </g>
            </g>
        </g>
    </g>
</svg>