<?xml version="1.0" encoding="utf-8"?>
<!-- Generator: Adobe Illustrator 16.0.0, SVG Export Plug-In . SVG Version: 6.00 Build 0)  -->
<!DOCTYPE svg PUBLIC "-//W3C//DTD SVG 1.1//EN" "http://www.w3.org/Graphics/SVG/1.1/DTD/svg11.dtd">
<svg version="1.1" id="Layer_1" xmlns="http://www.w3.org/2000/svg" xmlns:xlink="http://www.w3.org/1999/xlink" x="0px" y="0px"
	 width="500px" height="500px" viewBox="0 0 500 500" enable-background="new 0 0 500 500" xml:space="preserve">
<g>
	<path fill="#EFEFEF" d="M343.316,122c-26.641-22-60.299-33.644-96.898-33.644S176.159,100,149.519,122H343.316z"/>
	<path fill="#EFEFEF" d="M370,149.082v190.26c21-26.354,32.273-59.334,32.273-95.13S391,175.437,370,149.082z"/>
	<path fill="#EFEFEF" d="M122,148.867c-20,26.391-32.438,59.452-32.438,95.345c0,35.894,12.438,68.955,32.438,95.345V148.867z"/>
	<path fill="#EFEFEF" d="M148.992,367c26.724,21,60.583,34.067,97.426,34.067c36.842,0,70.702-13.067,97.425-34.067H148.992z"/>
</g>
<g>
	<path fill="#E2E2E2" d="M401.56,226.813c-3.282-34.394-18.849-66.428-44.728-92.308c-25.88-25.88-57.914-41.447-92.309-44.728
		L401.56,226.813z"/>
	<path fill="#E2E2E2" d="M401.277,264.831L266.743,399.365c33.485-3.786,64.776-19.135,90.088-44.446
		S397.491,298.316,401.277,264.831z"/>
	<path fill="#E2E2E2" d="M226.067,89.316c-32.803,4.519-64.977,19.101-90.357,44.481c-25.38,25.381-39.963,57.554-44.481,90.356
		L226.067,89.316z"/>
	<path fill="#E2E2E2" d="M90.91,262.646c4.047,33.745,18.75,66.928,44.801,92.979c26.051,26.051,59.234,40.754,92.979,44.8
		L90.91,262.646z"/>
</g>
</svg>
