<?xml version="1.0" encoding="utf-8"?>
<!-- Generator: Adobe Illustrator 16.0.0, SVG Export Plug-In . SVG Version: 6.00 Build 0)  -->
<!DOCTYPE svg PUBLIC "-//W3C//DTD SVG 1.1//EN" "http://www.w3.org/Graphics/SVG/1.1/DTD/svg11.dtd">
<svg version="1.1" id="Layer_1" xmlns="http://www.w3.org/2000/svg" xmlns:xlink="http://www.w3.org/1999/xlink" x="0px" y="0px"
	 width="419px" height="100px" viewBox="388.5 118.5 419 100" enable-background="new 388.5 118.5 419 100" xml:space="preserve">
<g>
	<path fill="#FFFFFF" d="M451.473,154.544c-1.617,1.617-3.797,2.547-5.989,2.547c-1.931,0-3.718-0.719-5.031-2.02l-19.86-19.872
		l-1.799,1.798l6.86,6.859l-22.234,22.235c-0.656,0.657-1.182,1.416-1.576,2.252c-0.616,1.302-0.87,2.737-0.749,4.163
		c-5.869-5.93-9.091-13.458-9.082-21.204c0.01-7.405,2.959-14.416,8.306-19.729c5.342-5.313,12.435-8.243,19.971-8.243
		c4.454,0,8.698,1.001,12.619,2.96c1.595,0.788,3.149,1.758,4.616,2.899l0.696,0.545l13.788,13.779
		C454.888,146.413,454.655,151.361,451.473,154.544z"/>
	<path fill="#FFFFFF" d="M435.805,154.009l-22.231,22.235c-1.041,1.029-2.447,1.606-3.931,1.606c-1.586,0-3.101-0.637-4.252-1.788
		c-1.15-1.15-1.785-2.656-1.785-4.252c0-1.495,0.563-2.889,1.604-3.93l22.234-22.234L435.805,154.009z"/>
	<path fill="#FFFFFF" d="M490.507,151.303c0.009,7.799-3.253,15.364-9.192,21.314c-3.535,3.525-7.606,7.597-11.77,11.759
		l-24.021,23.82c-1.041,1.04-2.436,1.606-3.931,1.606c-1.597,0-3.11-0.636-4.253-1.788c-1.121-1.123-1.747-2.596-1.776-4.151
		c-0.031-1.525,0.534-2.96,1.597-4.032l23.354-23.364l-2.18-2.182l-23.354,23.367c-1.041,1.03-2.445,1.604-3.931,1.604
		c-1.585,0-3.101-0.637-4.253-1.785c-1.149-1.152-1.787-2.657-1.787-4.253c0-1.497,0.565-2.892,1.605-3.931l23.354-23.366
		l-2.482-2.484l-23.367,23.354c-1.04,1.041-2.436,1.606-3.928,1.606c-1.598,0-3.112-0.636-4.254-1.785
		c-1.12-1.124-1.748-2.597-1.778-4.152c-0.04-1.525,0.535-2.962,1.597-4.033l22.233-22.232l0.676,0.676
		c1.799,1.789,4.223,2.77,6.82,2.77c2.839,0,5.679-1.204,7.789-3.292c4.163-4.184,4.403-10.739,0.524-14.618L442.971,130.9
		c5.251-4.889,12.061-7.567,19.266-7.567c7.523,0,14.616,2.93,19.971,8.244C487.547,136.887,490.498,143.897,490.507,151.303z"/>
</g>
<text transform="matrix(1 0 0 1 513 161.748)" fill="#FFFFFF" font-family="'Lato-Bold'" font-size="31">Dr. Barmeshwar nath</text>
<text transform="matrix(1 0 0 1 513 198.9482)" fill="#FFFFFF" font-family="'Lato-Bold'" font-size="31">Choubey Foundation</text>
</svg>
