<?xml version="1.0" encoding="utf-8"?>
<!-- Generator: Adobe Illustrator 18.1.1, SVG Export Plug-In . SVG Version: 6.00 Build 0)  -->
<!DOCTYPE svg PUBLIC "-//W3C//DTD SVG 1.1//EN" "http://www.w3.org/Graphics/SVG/1.1/DTD/svg11.dtd">
<svg version="1.1" id="Layer_1" xmlns="http://www.w3.org/2000/svg" xmlns:xlink="http://www.w3.org/1999/xlink" x="0px" y="0px"
	 width="242.8px" height="85.6px" viewBox="0 0 242.8 85.6" enable-background="new 0 0 242.8 85.6" xml:space="preserve">
<path fill="none" d="M24.9,8.7C35.5,8.7,41,15.1,41,26.3v2.2H30.6v-2.9c0-5-2-6.9-5.5-6.9c-3.5,0-5.5,1.9-5.5,6.9
	c0,14.3,21.4,17,21.4,37c0,11.2-5.6,17.5-16.3,17.5S8.4,73.7,8.4,62.5v-4.3h10.4v5c0,5,2.2,6.8,5.7,6.8s5.7-1.8,5.7-6.8
	c0-14.3-21.4-17-21.4-37C8.7,15.1,14.2,8.7,24.9,8.7z"/>
<path fill="none" d="M46.5,26.3c0-11.2,5.9-17.5,16.6-17.5c10.8,0,16.6,6.4,16.6,17.5v36.3c0,11.2-5.9,17.5-16.6,17.5
	c-10.8,0-16.6-6.4-16.6-17.5V26.3z M57.4,63.2c0,5,2.2,6.9,5.7,6.9c3.5,0,5.7-1.9,5.7-6.9V25.6c0-5-2.2-6.9-5.7-6.9
	c-3.5,0-5.7,1.9-5.7,6.9V63.2z"/>
<path fill="none" d="M101.1,51.5l-3.4,6.4v21.4h-11V9.5h11v30.4l14.3-30.4h11l-15.2,31.1l15.2,38.6h-11.3L101.1,51.5z"/>
<path fill="none" d="M163.5,79.3h-11.1l-1.9-12.7h-13.4l-1.9,12.7h-10.1l11.2-69.7h16L163.5,79.3z M138.5,57.1h10.6l-5.3-35.3
	L138.5,57.1z"/>
<path fill="none" d="M183.3,8.7c10.7,0,16.1,6.4,16.1,17.5v2.2h-10.4v-2.9c0-5-2-6.9-5.5-6.9c-3.5,0-5.5,1.9-5.5,6.9
	c0,14.3,21.4,17,21.4,37c0,11.2-5.6,17.5-16.3,17.5c-10.8,0-16.3-6.4-16.3-17.5v-4.3h10.4v5c0,5,2.2,6.8,5.7,6.8
	c3.5,0,5.7-1.8,5.7-6.8c0-14.3-21.4-17-21.4-37C167.2,15.1,172.7,8.7,183.3,8.7z"/>
<path fill="none" d="M216.3,9.5v53.8c0,5,2.2,6.8,5.7,6.8s5.7-1.8,5.7-6.8V9.5H238v53.1c0,11.2-5.6,17.5-16.3,17.5
	c-10.8,0-16.3-6.4-16.3-17.5V9.5H216.3z"/>
</svg>
