<svg 
 xmlns="http://www.w3.org/2000/svg"
 xmlns:xlink="http://www.w3.org/1999/xlink"
 width="25px" height="25px">
<path fill-rule="evenodd"  fill="rgb(255, 83, 60)"
 d="M0.500,24.500 C0.500,24.500 0.500,0.500 0.500,0.500 C0.500,0.500 24.500,0.500 24.500,0.500 C24.500,0.500 24.500,24.500 24.500,24.500 C24.500,24.500 0.500,24.500 0.500,24.500 ZM8.690,8.795 C8.690,8.795 4.785,8.795 4.785,8.795 C4.625,8.795 4.497,8.939 4.497,9.099 C4.497,9.099 4.497,19.696 4.497,19.696 C4.497,19.856 4.625,20.000 4.785,20.000 C4.785,20.000 8.690,20.000 8.690,20.000 C11.780,20.000 14.309,17.487 14.309,14.382 C14.309,11.308 11.780,8.795 8.690,8.795 ZM18.577,14.841 C19.127,14.841 19.784,15.336 19.865,15.382 C19.946,15.445 20.108,15.363 20.171,15.264 C20.171,15.264 20.630,14.571 20.630,14.571 C20.666,14.508 20.684,14.346 20.576,14.283 C20.306,14.085 19.586,13.608 18.650,13.608 C17.263,13.608 16.570,14.508 16.570,15.399 C16.570,16.480 17.542,17.083 18.316,17.389 C18.929,17.632 19.244,17.920 19.244,18.298 C19.244,18.614 18.983,18.838 18.623,18.838 C18.028,18.838 17.380,18.362 17.344,18.343 C17.281,18.298 17.110,18.280 17.038,18.398 C17.038,18.398 16.615,19.145 16.615,19.145 C16.543,19.271 16.570,19.307 16.660,19.397 C16.867,19.604 17.515,20.090 18.686,20.090 C20.009,20.090 20.810,19.154 20.810,18.226 C20.810,17.002 19.694,16.453 18.992,16.174 C18.280,15.886 18.010,15.634 18.010,15.300 C18.010,15.057 18.253,14.841 18.577,14.841 ZM8.530,17.631 C8.530,17.631 6.994,17.631 6.994,17.631 C6.994,17.631 6.994,11.148 6.994,11.148 C6.994,11.148 8.530,11.148 8.530,11.148 C10.339,11.148 11.652,12.573 11.652,14.382 C11.652,16.206 10.339,17.631 8.530,17.631 Z"/>
</svg>