<?xml version="1.0" standalone="no"?>
<!DOCTYPE svg PUBLIC "-//W3C//DTD SVG 1.1//EN" "http://www.w3.org/Graphics/SVG/1.1/DTD/svg11.dtd" >
<svg xmlns="http://www.w3.org/2000/svg">
<metadata></metadata>
<defs>
<font id="egregio_script_demoregular" horiz-adv-x="508" >
<font-face units-per-em="2048" ascent="1638" descent="-410" />
<missing-glyph horiz-adv-x="500" />
<glyph horiz-adv-x="0" />
<glyph unicode="&#xd;" />
<glyph unicode=" " />
<glyph unicode="A" horiz-adv-x="2087" d="M15 448q-16 80 -16 158q0 198 101 383q70 129 228 218q123 69 249 69q92 0 186 -37q113 -45 176 -161q203 92 483 92q92 0 192 -10q246 478 304 552q20 28 52 34q22 4 47 4q61 0 135 -25q11 -5 11 -22q0 -12 -6 -31q-1 -5 -13 -37q-12 -31 -13 -32q-135 -365 -182 -507 q131 -43 142 -49q15 -8 24 -54t-10 -51h-5q-18 0 -62 24q-47 24 -117 45q-78 -226 -127 -464q-40 -193 -40 -307q0 -40 5 -71q13 -86 59 -106q4 -2 8 -1q25 0 70 56q36 46 63 96q43 83 112 238q26 57 45 57h1q13 -2 13 -20q0 -14 -7 -37q-54 -127 -95 -210q-26 -54 -79 -139 q-59 -94 -169 -102q-19 -1 -37 -1q-61 0 -107 13q-56 19 -92 84q-35 63 -35 144v17q14 265 184 813q-2 2 -24 7q-23 5 -24 6q7 11 -155 -275q-147 -258 -196 -336q-147 -232 -254 -323q-156 -133 -373 -138q-19 -1 -38 -1q-238 0 -383 94q-187 122 -231 343zM250 773 q-23 -98 -23 -186q0 -116 39 -218q32 -82 93 -158q89 -110 198 -134q43 -9 88 -9q129 0 277 76q135 69 294 314q82 125 359 632q-119 21 -223 21t-192 -21q-116 -28 -192 -66q36 -97 35 -190q0 -156 -100 -300q-58 -83 -132 -117q-44 -20 -88 -20l-74 14q-60 23 -89 82 q-20 41 -20 88q0 24 5 51q27 137 123 239q82 86 247 179q0 15 -16 36q-31 43 -107 75q-48 21 -102 21q-44 0 -93 -14q-107 -32 -183 -118q-81 -92 -124 -277zM645 664q-4 -20 -3 -40q0 -36 11 -72q20 -46 63 -46q21 0 47 10q66 25 103 76q61 82 76 199q3 28 3 54 q0 88 -39 147q-2 6 -1 6q-218 -109 -260 -334zM1678 1154q8 0 21 -2q7 -2 14 -2q4 0 8 1q50 149 57 182q-12 -25 -100 -179z" />
<glyph unicode="B" horiz-adv-x="2417" d="M2 572q-2 34 -2 66q0 238 117 401q150 210 455 222h20q105 0 192 -47q92 -50 137 -138q183 86 537 106q-1 -2 13 33q91 226 179 439q-184 -67 -289 -136q-131 -87 -222 -233q-7 -10 -16 -29q-10 -19 -14 -26q-15 -23 -26 -7q-46 68 -145 100q-15 4 -28 7q-15 3 -18 4 q-6 1 -4 10q3 9 15 21q57 51 128 94q156 98 320 164q294 118 548 130q33 1 63 1q218 0 324 -75q70 -50 70 -148q0 -53 -21 -120q-38 -121 -141 -189q-83 -55 -237 -74q166 -42 275 -110q150 -93 169 -262q1 -11 1 -23q0 -80 -45 -228q-66 -214 -172 -338q-89 -103 -197 -139 q-94 -31 -264 -31h-40q-191 5 -313 84q-83 54 -137 118q-151 -159 -364 -203q-79 -16 -166 -16h-10h-53q-148 0 -288 67q-129 62 -207 158q-132 163 -144 347zM240 854q-34 -113 -34 -220q0 -157 74 -300q59 -114 156 -190q98 -77 193 -81q13 -1 27 -1q179 0 305 114 q151 171 289 494q57 133 185 454q-285 -11 -483 -106q27 -72 27 -152q0 -46 -9 -95q-25 -131 -91 -212q-39 -48 -91 -74q-36 -18 -68 -18q-30 0 -57 16q-70 41 -70 164v10q3 110 45 188q76 138 228 204q-82 130 -231 130h-15q-132 -6 -229 -84q-103 -84 -151 -241zM657 602 q9 -50 42 -67q14 -8 30 -8q32 0 67 32q67 59 102 174q23 76 23 129q0 75 -24 132q-1 4 -3 3q-79 -40 -141 -102q-98 -99 -98 -246q0 -23 2 -47zM1280 273q80 -118 222 -166q77 -27 149 -26q38 0 74 7q254 54 414 528q35 103 35 185q0 178 -166 254q-115 52 -325 74 q-94 -250 -156 -394q-170 -393 -247 -462zM1708 1199q411 55 411 418q0 84 -175 84q-30 0 -65 -2q-36 -124 -171 -500z" />
<glyph unicode="C" horiz-adv-x="1420" d="M3 1360q21 203 150 307q109 87 240 86q34 0 68 -5q149 -24 252 -136q82 83 195 123q44 16 93 16q60 0 128 -24q83 -29 153 -102q46 -50 65 -115q11 -41 11 -86q0 -82 -36 -179q-77 -208 -197 -305q-141 -107 -291 -163q-130 -48 -271 -57q-17 -87 -17 -164 q0 -121 42 -217q33 -78 127 -148q114 -85 239 -85h11q123 4 243 106q116 99 190 243q6 11 16 29t14 26q28 56 45 56q2 0 4 -1q12 -5 12 -21q0 -17 -13 -47q-40 -90 -94 -173q-107 -167 -241 -243q-143 -81 -289 -81q-102 0 -205 40q-260 101 -322 430q-13 70 -13 155 q0 71 9 151q-126 76 -204 180q-117 158 -117 343q0 30 3 61zM65 1225q19 -115 98 -231q74 -109 171 -154q50 221 138 412q79 169 197 316q-43 63 -125 98q-72 29 -148 29h-19q-117 -5 -188 -73q-132 -124 -132 -305q0 -44 8 -92zM579 783q96 0 194 54q130 101 325 465 q48 92 74 181q16 56 16 93q0 36 -15 54q-17 13 -42 13q-40 0 -100 -35q-30 -18 -116 -110q-67 -73 -94 -127q52 -135 53 -147q1 -3 1 -7q0 -31 -40 -69q-18 -16 -26 -16q-8 2 -10 31q-4 51 -22 126q-150 -289 -198 -506z" />
<glyph unicode="D" horiz-adv-x="2526" d="M5 559q-4 49 -4 92q0 62 9 111q40 215 169 357q141 155 316 174q36 4 70 4q165 0 284 -92q58 -45 91 -112q160 60 338 78q33 3 42 -20q4 -10 8 -48q1 -12 1 -22q0 -30 -11 -30q-4 0 -10 4q-14 10 -92 11h-13q-147 0 -231 -43q22 -75 22 -156v-14q0 -118 -41 -212 q-42 -94 -106 -134q-24 -14 -56 -14q-10 0 -21 1q-45 5 -70 28q-61 57 -61 158q0 19 2 40q11 111 69 194q61 88 168 147q-31 61 -66 85q-69 48 -154 48q-35 0 -72 -8q-73 -16 -176 -108q-69 -61 -120 -172q-57 -123 -70 -263q-2 -19 -1 -38q0 -156 116 -331 q108 -162 248 -198q63 -16 120 -16q119 0 216 70q139 100 268 392q165 373 292 692q57 140 167 427q-183 -67 -288 -136q-130 -86 -222 -232q-6 -10 -16 -29q-9 -19 -13 -25q-15 -24 -26 -7q-46 67 -145 99q-14 5 -27 7q-16 3 -19 4q-6 2 -4 10q3 10 15 21q58 51 128 93 q156 98 319 164q281 113 546 135q31 3 62 2q142 0 267 -57q155 -72 239 -212q83 -137 87 -354v-24q0 -194 -61 -406q-85 -295 -265 -491q-108 -118 -272 -162q-93 -25 -203 -25q-67 0 -140 9q-158 21 -278 111q-60 45 -88 86q-121 -128 -280 -180q-128 -42 -264 -42 q-60 0 -123 8q-145 20 -280 99q-143 85 -220 209q-56 90 -70 243zM702 673v-14q0 -77 53 -101q12 -6 26 -5q21 0 45 13q38 23 58 65q45 91 47 202q0 91 -28 153q-4 0 -9 -3q-84 -42 -127 -102q-58 -83 -65 -208zM1288 276q78 -107 202 -153q81 -30 168 -30q33 0 67 4 q122 16 247 154q107 118 182 282q151 332 178 606q5 56 5 107q0 226 -109 343q-69 73 -211 91q-44 6 -83 6q-23 0 -45 -2q-11 -41 -207 -579q-266 -728 -394 -829z" />
<glyph unicode="E" horiz-adv-x="1959" d="M2 1610q6 20 28 18q15 -2 29 -2q79 0 137 48l30 25q16 15 22 20q21 17 38 14q10 -4 17 -35q11 -176 64 -265q93 -157 265 -189q26 102 72 219q72 179 193 244q78 41 181 41q23 0 46 -2q152 -12 214 -90q35 -43 35 -96q0 -42 -22 -90q-76 -170 -329 -246 q-126 -37 -170 -40q-3 -27 -3 -47q0 -38 10 -52q10 -15 37 -15q17 0 42 6q14 3 28 -9q13 -11 13 -24q3 -121 20 -175q10 -31 -6 -41q-16 -9 -50 2q-50 16 -91 16q-65 0 -109 -39q-56 -49 -84 -161q-15 -61 -15 -124q0 -74 21 -149q53 -195 234 -254q56 -18 134 -18h23 q114 4 207 45q107 47 156 86q67 53 137 164q77 122 115 264q26 96 26 169q0 30 -4 55q-24 141 -132 179q-71 25 -133 25q-145 0 -238 -140q-54 -80 -62 -193q0 -7 -1 -13q0 -40 17 -74q20 -42 54 -46q6 -1 12 -1q57 0 97 71q54 96 54 181q0 17 -4 35q-4 23 -4 25 q-2 22 18 25q11 1 21 1l55 -9q39 -13 39 -35q0 -152 -73 -248q-69 -93 -180 -100q-10 -1 -19 -1q-91 0 -128 62q-31 52 -31 119q0 42 12 90q25 102 80 170q112 140 296 165q33 5 65 4q124 0 232 -67q129 -81 163 -208q15 -53 14 -122q0 -58 -10 -128q-24 -157 -92 -285 q-122 -234 -326 -315q-126 -50 -290 -50h-24q-166 5 -306 56q-240 88 -355 231q-100 123 -100 273q0 42 8 86q57 319 416 370q-99 30 -174 73q-41 22 -41 75v7q0 -1 -6 -1q-16 0 -76 10q-88 16 -137 33q-192 68 -315 215q-71 84 -86 146q-3 12 -3 21q0 8 2 15zM862 1266 q119 50 222 160q65 70 93 154q11 32 11 54q0 41 -38 46q-7 1 -15 1q-68 0 -128 -83q-72 -99 -117 -230q-15 -42 -23 -78l-5 -20v-5t0 1z" />
<glyph unicode="F" horiz-adv-x="1576" d="M2 570q-2 34 -2 66q0 238 116 400q151 210 455 222h20q105 0 191 -47q92 -50 137 -138q183 86 536 106q-1 -2 13 33q90 224 178 438q-183 -67 -288 -136q-131 -86 -222 -231q-6 -11 -16 -30t-14 -25q-14 -24 -25 -7q-46 67 -145 99q-14 5 -28 7q-15 3 -18 4q-6 2 -4 10 q3 10 15 21q57 51 128 94q156 97 319 163q282 113 547 130q76 5 188 5q99 0 227 -4q45 0 54 -21q99 -217 134 -300q4 -11 4 -17q0 -12 -17 -6q-1 0 -23 7q-22 6 -40 12t-25 27q-11 39 -35 69q-36 48 -97 81q-124 70 -348 70q-35 -81 -99 -247q-65 -171 -97 -247 q241 -15 469 -94q11 -19 11 -40q0 -40 -40 -89q2 0 -88 36q-101 42 -183 64q-69 19 -132 33l-64 15q-153 -394 -271 -603q-64 -118 -192 -281q-150 -159 -363 -203q-78 -16 -165 -16h-10h-53q-148 0 -288 67q-129 62 -206 158q-132 162 -144 345zM240 852q-34 -113 -34 -219 q0 -157 74 -300q58 -114 155 -189q98 -77 193 -81q13 -1 27 -1q179 0 304 114q151 170 288 492q57 133 185 453q-284 -11 -482 -105q27 -72 27 -152q0 -46 -9 -95q-25 -130 -91 -211q-39 -48 -90 -74q-36 -18 -68 -18q-30 0 -57 16q-70 40 -70 161v13q2 110 45 187 q76 138 227 204q-82 129 -230 129h-15q-132 -5 -229 -83q-103 -84 -150 -241zM656 601q9 -50 42 -67q14 -8 29 -8q31 0 67 32q67 58 102 173q23 77 23 129q0 75 -24 132q-1 3 -2 3h-1q-78 -40 -140 -102q-99 -98 -98 -243q-1 -24 2 -49z" />
<glyph unicode="G" horiz-adv-x="1615" d="M1 1354q20 201 149 304q108 87 238 87q33 0 68 -6q148 -24 249 -136q83 83 194 123q44 16 93 16q60 0 127 -24q83 -29 151 -102q47 -49 65 -113q11 -41 11 -86q0 -81 -36 -178q-76 -206 -195 -302q-140 -107 -289 -162q-129 -48 -269 -57q-18 -93 -18 -172 q0 -113 37 -198q36 -84 132 -155q112 -84 235 -84h9q64 5 122 42q135 84 187 291q26 100 26 185v6q5 44 5 67q0 37 49 59q136 58 193 58q20 0 30 -7q26 -17 13 -36q-47 -69 -122 -375q-17 -69 -39 -164q61 41 123 127q53 76 94 169q26 61 46 61h1q14 0 14 -18q0 -19 -18 -62 q-36 -88 -73 -145q-81 -120 -207 -214q-60 -222 -124 -379q-167 -405 -320 -523q-141 -109 -308 -109q-78 0 -161 24q-201 57 -212 172q-1 9 -1 19q0 127 164 283q73 68 249 182q59 39 247 144q196 111 231 139l22 66l-6 -6q-93 -113 -243 -148q-58 -13 -105 -13 q-13 0 -26 1v1q-80 4 -163 37q-258 102 -319 427q-13 70 -13 154q0 70 9 150q-126 75 -203 178q-116 156 -116 341q0 30 3 61zM62 1220q19 -114 97 -230q74 -109 171 -153q50 219 137 409q78 168 195 314q-42 62 -124 97q-71 29 -147 29h-19q-116 -5 -187 -73 q-131 -123 -131 -303q0 -43 8 -90zM329 -640v-7q0 -52 43 -78q55 -35 119 -35q51 0 108 22q153 58 247 191q157 222 282 555q-124 -61 -417 -236q-250 -149 -340 -294q-40 -65 -42 -118zM572 781q96 0 193 54q130 99 323 461q48 92 74 180q16 56 16 92t-15 53q-18 13 -42 13 q-40 0 -99 -34q-30 -18 -116 -109q-66 -72 -93 -126q52 -134 53 -146q1 -3 1 -7q0 -31 -40 -69q-18 -16 -26 -15q-7 1 -10 30q-4 51 -22 125q-149 -287 -197 -502z" />
<glyph unicode="H" horiz-adv-x="2336" d="M11 742q31 198 218 376q80 77 265 111q40 7 82 7q45 0 92 -8q76 -14 116 -40q78 -50 137 -124q293 110 544 110v-1q1 0 94 244q22 59 82 204q-73 -62 -169 -62q-34 0 -71 8q-64 14 -168 83q-46 31 -85 31q-22 0 -41 -10q-67 -39 -67 -107q0 -19 5 -40q16 -61 106 -128 q7 -6 -8 -15q-15 -10 -37 -12q-76 -9 -88 -14q-33 -15 -52 -43q-19 -30 -30 -24q-39 22 -61 83q-15 44 -15 88q0 13 1 26q11 95 79 162q45 44 100 66q81 31 178 31q36 0 75 -4q49 -5 153 -52q59 -27 113 -27q20 0 39 4q90 19 163 50q76 31 74 31q15 3 25 3t15 -3 q10 -6 6 -29q-18 -91 -185 -549l272 -35q130 399 195 548q11 26 51 34q22 4 47 4q61 0 133 -25q10 -5 10 -22q0 -12 -5 -30q-4 -14 -13 -36q-12 -28 -13 -32q-134 -358 -180 -499q129 -41 141 -48q14 -8 23 -52q9 -46 -9 -50q-3 -1 -6 -1q-23 0 -76 28q-69 36 -100 40 q-77 -221 -125 -456q-39 -190 -39 -302q0 -39 5 -68q14 -91 58 -105q4 -1 8 -1q26 0 67 51q34 43 63 99q43 81 125 266q19 41 39 39q21 -2 5 -56q-59 -139 -100 -222q-25 -53 -78 -137q-59 -92 -167 -99q-15 -1 -30 -1q-58 0 -112 18q-65 22 -98 107q-23 61 -25 128v9 q0 212 180 789q1 2 2 6l-1 1q-73 19 -153 33q-30 5 -118 10q-4 -12 -6 -16q-168 -451 -317 -714q-90 -157 -221 -248q-120 -84 -270 -111q-47 -9 -136 -10h-11q-151 0 -242 27q-112 24 -173 58q-188 105 -267 338q-29 85 -29 186q0 62 11 131zM253 772q-19 -84 -19 -162 q0 -197 120 -361q94 -130 223 -185q39 -16 93 -16q52 0 117 15q81 17 161 90q138 125 301 505q57 132 183 447q-280 -1 -478 -101q31 -85 31 -177q0 -38 -5 -77q-18 -136 -66 -204q-40 -55 -132 -82q-27 -8 -51 -8q-46 0 -81 28q-37 29 -53 74q-16 43 -16 89q0 95 69 200 q84 115 205 190q-13 27 -41 58q-58 60 -137 77q-20 4 -41 4q-87 0 -183 -76q-153 -120 -200 -328zM658 609q18 -64 54 -76q16 -5 31 -6q54 0 94 68q40 67 54 156q9 57 9 104q0 66 -18 113q0 4 -2 4q-1 0 -4 -1q-97 -53 -142 -109q-83 -104 -83 -198q0 -28 7 -55z" />
<glyph unicode="I" horiz-adv-x="1609" d="M10 761q41 221 214 371q129 112 250 135q63 13 120 13q71 0 132 -20q47 -16 21 -39q-4 -3 -57 10q-30 7 -64 7q-40 0 -87 -10q-110 -26 -177 -91q-117 -114 -146 -279q-13 -77 -14 -150q0 -233 136 -432q87 -129 245 -191q31 -12 74 -12q45 0 102 13q145 33 289 190 q-173 75 -255 222q-75 134 -75 292q0 27 2 54q24 324 309 622q121 127 342 207q164 60 300 71q34 3 63 3q83 0 120 -24q9 -6 9 -15q0 -3 -1 -6q-2 -12 -13 -18q-90 -49 -116 -75q-74 -73 -129 -215q-50 -126 -130 -514q-7 -33 -37 -182q-29 -140 -29 -143q0 -1 -1 -4 q-42 -162 -104 -271q21 -3 40 -3q39 0 72 12q105 38 165 152q11 17 23 44q11 26 16 34q17 29 42 25q6 -1 6 -11q0 -20 -26 -77q-33 -72 -79 -125q-68 -80 -182 -99q-32 -5 -110 -6q-26 -34 -50 -57q-67 -63 -199 -114q-143 -54 -271 -55h-14q-311 0 -500 134 q-141 100 -201 302q-35 114 -35 218q0 55 10 107zM902 542q54 -164 178 -219q34 58 59 132q194 862 235 960q88 231 228 257q-161 -34 -230 -70q-107 -56 -263 -217q-127 -133 -194 -398q-38 -149 -37 -270q-1 -97 24 -175z" />
<glyph unicode="J" horiz-adv-x="1159" d="M-273 -470q4 107 58 208q71 134 220 175q37 10 75 10q71 0 146 -35q38 -17 42 -32q7 -29 -27 -35q5 2 -63 26q-50 18 -97 18q-43 0 -84 -15q-105 -36 -166 -149q-45 -82 -45 -173v-8q2 -104 62 -178q40 -49 119 -56q12 -1 24 -1q60 0 119 25q80 34 187 163 q100 119 152 231q121 257 214 593q-1 -3 -34 10q-41 16 -82 41q-128 76 -191 198q-62 121 -62 268q0 28 2 57q25 339 306 618q121 119 351 210q114 44 291 52q48 2 84 2q76 0 93 -10q9 -5 9 -15q0 -2 -1 -5q-2 -13 -13 -19q-86 -47 -115 -74q-92 -84 -135 -237 q-49 -177 -188 -809q-35 -154 -68 -277q43 1 75 13q105 38 165 151q9 17 21 45q12 24 16 33q17 29 42 25q6 -1 6 -11q0 -20 -26 -76q-33 -73 -78 -125q-66 -79 -181 -98q-24 -4 -53 -4q-46 -172 -98 -332q-92 -284 -241 -517q-148 -231 -428 -245q-16 -1 -31 -1 q-181 0 -286 119q-86 98 -86 231v15zM478 580q58 -178 202 -230q18 65 120 548q81 386 144 538q88 229 227 255q-160 -32 -229 -68q-141 -74 -260 -216q-135 -161 -193 -390q-36 -144 -36 -261q0 -97 25 -176z" />
<glyph unicode="K" horiz-adv-x="2341" d="M5 560q-5 50 -5 94q0 59 9 108q41 214 169 356q141 155 316 174q36 4 70 4q165 0 284 -92q58 -45 91 -112q159 60 337 78q33 3 43 -20q4 -10 7 -47q1 -13 1 -22q0 -30 -11 -30q-4 0 -10 4q-14 9 -91 10h-13q-146 0 -232 -42q22 -76 22 -157v-14q0 -117 -40 -211 q-42 -94 -106 -134q-25 -15 -58 -15q-9 0 -19 1q-45 5 -70 29q-61 56 -61 157q0 19 2 41q11 110 69 194q61 88 168 147q-31 60 -66 84q-70 48 -154 48q-35 0 -72 -8q-73 -16 -176 -108q-72 -64 -124 -171q-61 -126 -66 -263v-18q0 -178 116 -351q107 -162 247 -198 q63 -16 120 -16q119 0 216 70q107 77 217 286q11 21 28 57q9 18 16 33v-1q56 114 75 159q57 133 211 518l90 234q22 59 82 203q-72 -61 -168 -61q-35 0 -72 8q-63 13 -167 82q-46 31 -85 31q-22 0 -41 -10q-66 -39 -66 -106q0 -19 5 -40q15 -61 105 -128q8 -5 -7 -15 q-16 -9 -38 -12q-75 -8 -87 -13q-34 -15 -52 -44q-20 -29 -30 -23q-39 21 -61 82q-15 44 -15 88q0 13 1 26q11 94 79 161q45 45 100 66q82 32 181 32q34 0 71 -4q49 -6 152 -53q58 -26 111 -26q21 0 41 4q90 18 163 49q75 31 74 31q14 3 24 3t15 -3q11 -6 6 -28 q-7 -37 -37 -131l1 1q-4 -12 -68 -198q-58 -168 -72 -206q168 41 267 140q109 108 170 241q16 36 35 89q15 43 21 55q8 14 19 23q24 14 74 14q61 0 161 -21q15 -7 15 -25q0 -15 -10 -38q-15 -33 -64 -105q-145 -211 -330 -329q-88 -55 -180 -74q184 -50 234 -169 q12 -28 12 -73q0 -73 -32 -193q-24 -89 -35 -125q-4 -20 -11 -50q-41 -169 -41 -288q0 -46 6 -84q15 -91 59 -105q4 -1 8 -1q27 0 68 51q33 43 62 99q43 82 123 254q26 57 45 57h1q22 -3 5 -57q-65 -146 -104 -227q-26 -52 -80 -137q-57 -92 -166 -99q-23 -2 -43 -2 q-56 0 -98 14q-48 15 -88 85q-38 68 -38 133v6v37q1 73 15 159q16 106 70 295q39 141 56 195q2 10 3 17v15q0 46 -16 69q-48 67 -205 76h-12q1 1 -3 -9q-169 -456 -319 -719q-65 -113 -141 -182q-111 -106 -252 -152q-128 -42 -264 -42q-60 0 -123 8q-142 19 -275 99 q-138 84 -219 207q-60 92 -75 246zM701 673v-14q0 -77 53 -102q12 -5 25 -5q21 0 46 14q38 23 58 65q45 91 47 201q0 91 -28 154q-4 -1 -9 -3q-84 -43 -127 -103q-58 -83 -65 -207z" />
<glyph unicode="L" horiz-adv-x="2382" d="M13 783q38 201 165 338q139 149 321 170q34 4 67 4q169 0 300 -95q61 -44 98 -124q23 3 50 4q38 0 86 -7q131 -18 248 -133l2 -2q41 141 68 237q-103 6 -210 44q-190 67 -313 213q-70 83 -85 145q-6 21 -1 36q5 20 27 18q15 -2 29 -2q78 0 136 47q13 10 30 26 q16 15 22 19q21 17 38 14q10 -3 17 -35q10 -167 63 -269q86 -166 267 -182q13 43 63 224q33 120 61 176q40 81 87 90q62 12 109 11q63 0 102 -20q24 -13 39 -47q12 -31 12 -64v-9q-6 -99 -73 -206q-68 -109 -182 -196q0 -10 -57 -220q-25 -100 -78 -268q154 -202 156 -204 q150 -199 271 -252q69 -30 144 -30q53 0 108 15q83 23 130 125q18 36 45 98q26 58 27 61q19 40 38 40l6 -1q12 -4 12 -18v-6q-2 -11 -20 -59q-126 -335 -237 -431q-67 -58 -155 -58q-32 0 -68 8q-141 30 -301 246q-98 133 -196 368q-90 -289 -262 -455q-163 -158 -465 -166 h-18q-121 0 -273 49q-260 84 -376 285q-87 150 -87 317q0 64 13 131zM265 831q-28 -100 -28 -194q0 -185 109 -346q108 -160 252 -194q64 -15 115 -15q35 0 64 7q72 18 188 101q151 108 271 399q60 146 90 269q-112 143 -234 155q-41 4 -71 4q-19 0 -33 -2q23 -80 23 -165 v-7q-6 -226 -132 -313q-12 -9 -25 -15q-37 -18 -68 -18q-38 0 -67 27q-45 43 -52 127q-2 18 -2 37q0 46 11 93q25 104 100 186q57 61 123 92q-23 41 -71 77q-75 57 -168 57q-27 0 -56 -5q-83 -13 -173 -94q-124 -109 -166 -263zM728 632q11 -63 44 -75q13 -4 25 -5 q54 0 104 85q39 67 46 170q1 18 1 36q0 85 -28 147q-4 -1 -6 1l-2 2q-80 -51 -113 -92q-43 -55 -68 -158q-7 -31 -8 -62q1 -24 5 -49zM1677 1295q66 38 142 195q33 67 33 111q0 24 -10 42q-9 8 -18 8q-11 0 -21 -12q-31 -37 -63 -137q-9 -30 -24 -86q-15 -53 -39 -121z" />
<glyph unicode="M" horiz-adv-x="2352" d="M5 561q-5 51 -5 95q0 59 9 107q41 216 170 358q141 155 316 174q36 4 71 4q166 0 284 -92q58 -46 91 -112q159 60 338 78q33 3 42 -20q5 -11 8 -48q1 -12 1 -22q0 -30 -11 -30q-4 0 -10 4q-14 10 -91 11h-7q-152 0 -238 -43q21 -75 21 -157v-14q0 -118 -40 -212 q-42 -94 -107 -134q-25 -15 -58 -15q-9 0 -19 1q-44 6 -69 29q-62 58 -62 160q0 18 2 38q12 111 69 195q61 88 169 147q-32 61 -66 85q-71 48 -156 48q-34 0 -71 -8q-73 -16 -176 -108q-73 -65 -125 -172q-61 -126 -65 -264v-20q0 -177 115 -350q108 -162 248 -198 q63 -16 121 -16q120 0 216 70q109 79 217 287q141 270 327 739q16 38 177 467q-73 -62 -169 -62q-34 0 -72 8q-64 14 -167 83q-46 31 -85 31q-22 0 -41 -10q-67 -39 -67 -107q0 -19 5 -40q16 -61 106 -128q7 -5 -8 -15q-15 -9 -37 -12q-76 -8 -88 -14q-34 -15 -52 -43 q-20 -30 -30 -24q-39 22 -61 83q-15 44 -15 88q0 13 1 26q11 95 79 162q45 44 100 66q81 31 178 31q36 0 75 -4q49 -5 153 -52q59 -27 111 -27q21 0 41 4q84 18 127 49q46 32 44 32q24 6 33 -13q7 -13 5 -34q-4 -95 -31 -339q-34 -303 -35 -314q323 517 433 643q24 29 41 41 q23 15 49 17q23 1 190 1h182h2q29 0 31 -27q0 -13 -19 -20q1 1 -40 -13q-163 -57 -277 -301q-68 -144 -116 -298q-109 -346 -157 -546q-40 -168 -40 -290q0 -19 1 -36q1 -21 4 -39q15 -92 59 -106q4 -1 8 -1q27 0 68 52q25 32 63 104q50 97 124 260q19 42 44 38 q13 -9 14 -21q0 -11 -9 -37q-61 -142 -103 -227q-26 -53 -80 -137q-58 -92 -167 -100q-23 -2 -43 -2q-56 0 -99 14q-46 14 -85 81q-41 69 -41 171v18q5 162 83 449q77 283 212 688q-135 -215 -239 -379q-50 -78 -115 -191q-1 -3 -17 -103q-28 -6 -69 -7q3 22 18 137 q16 121 32 258q-137 -420 -284 -707q-67 -132 -183 -237q-112 -106 -253 -153q-128 -42 -265 -42q-61 0 -123 8q-142 19 -275 100q-139 83 -220 207q-60 92 -75 246zM702 674v-13q0 -77 54 -102q12 -6 26 -6q21 0 44 14q38 23 59 65q45 91 47 202q0 91 -28 154q-4 -1 -9 -3 q-85 -43 -127 -103q-59 -83 -66 -208zM2234 1742v2v-2v0v0z" />
<glyph unicode="N" horiz-adv-x="2333" d="M5 561q-5 51 -5 95q0 59 9 107q41 216 170 358q141 155 316 174q36 4 71 4q166 0 284 -92q58 -46 91 -112q159 60 338 78q33 3 42 -20q5 -11 8 -48q1 -12 1 -22q0 -30 -11 -30q-4 0 -10 4q-14 10 -91 11h-7q-152 0 -238 -43q21 -75 21 -157v-14q0 -118 -40 -212 q-42 -94 -107 -134q-25 -15 -58 -15q-9 0 -19 1q-44 6 -69 29q-62 58 -62 160q0 18 2 38q12 111 69 195q61 88 169 147q-32 61 -66 85q-71 48 -156 48q-34 0 -71 -8q-73 -16 -176 -108q-73 -65 -125 -172q-61 -126 -65 -264v-20q0 -177 115 -350q108 -162 248 -198 q63 -16 121 -16q120 0 216 70q48 35 103 106q8 13 79 133q90 153 149 290q58 135 219 536q66 165 107 261q4 11 14 35q28 74 50 132q-73 -62 -169 -62q-34 0 -72 8q-64 14 -167 83q-46 31 -85 31q-22 0 -41 -10q-67 -39 -67 -107q0 -19 5 -40q16 -61 106 -128q7 -5 -8 -15 q-15 -9 -37 -12q-76 -8 -88 -14q-34 -15 -52 -43q-20 -30 -30 -24q-39 22 -61 83q-15 44 -15 88q0 13 1 26q11 95 79 162q45 44 100 66q81 31 178 31q36 0 75 -4q48 -5 153 -53q57 -27 108 -27q22 0 44 5q51 13 116 41q24 11 34 -13q6 -15 11 -68q2 -17 10 -93 q10 -86 19 -179q7 -72 13 -134q16 -155 36 -503q7 23 5 18q120 441 277 766q31 75 96 140q61 60 121 82q57 20 281 26h2q29 0 31 -27q0 -20 -18 -27l-21 -7t-19 -6q-162 -56 -275 -300q-78 -167 -135 -357q-99 -327 -136 -481q-40 -167 -40 -285q0 -46 6 -85q10 -68 38 -93 q8 -6 15 -8q4 -1 8 -1q27 0 68 52q25 32 64 104q49 96 123 261q19 41 44 37q13 -9 14 -21q0 -11 -9 -37q-1 -2 -47 -106q-37 -85 -53 -117q-26 -53 -78 -137q-16 -24 -35 -43q-54 -55 -137 -61q-23 -2 -43 -2q-56 0 -99 14q-46 14 -85 81q-41 70 -41 175v14q3 82 26 207 q-3 35 -15 232q-14 226 -18 287q-7 109 -23 241q-57 -162 -113 -307q-116 -318 -217 -515q-67 -132 -183 -237q-112 -106 -253 -153q-128 -42 -265 -42q-61 0 -123 8q-142 19 -275 100q-139 84 -220 207q-60 92 -75 246zM702 674v-13q0 -77 54 -102q12 -6 26 -6q21 0 44 14 q38 23 59 65q45 91 47 202q0 91 -28 154q-4 -1 -9 -3q-85 -43 -127 -103q-59 -83 -66 -208z" />
<glyph unicode="O" horiz-adv-x="1373" d="M3 748q29 405 214 658q173 234 455 323q58 19 122 19q38 0 79 -7q138 -22 217 -116q83 -99 116 -217q60 -72 90 -143q65 -155 66 -337q0 -99 -20 -205q-67 -362 -302 -562q-190 -161 -453 -161h-10q-359 4 -503 314q-74 158 -74 356q0 38 3 78zM224 709q-17 -98 -17 -188 q0 -175 64 -314q32 -69 108 -109q47 -24 109 -24q49 0 109 15q221 55 333 228q153 237 206 491q24 110 24 185q0 11 -1 21q-62 -180 -161 -312q-68 -90 -170 -147q-77 -44 -135 -44q-29 0 -53 11q-100 45 -100 234q0 16 1 33q7 178 74 337q108 255 313 336q53 21 100 21 q53 0 99 -27q-23 78 -100 151q-83 79 -169 79q-14 0 -28 -2q-64 -10 -146 -64q-107 -70 -186 -183q-201 -288 -274 -728zM651 1001q-9 -56 -10 -105q0 -88 31 -150q26 -54 90 -55q4 0 9 1q51 2 100 31q126 74 194 214q80 171 90 253q4 33 4 62q0 68 -23 111q-19 36 -69 51 q-23 6 -46 6q-35 0 -72 -14q-113 -46 -205 -177q-70 -96 -93 -228z" />
<glyph unicode="P" horiz-adv-x="1579" d="M2 569q-2 34 -2 66q0 238 116 399q150 209 454 221h21q104 0 190 -46q91 -50 136 -138q182 86 535 106q-1 -2 13 33q90 225 178 437q-183 -67 -288 -136q-130 -86 -221 -231q-6 -10 -16 -29q-10 -20 -14 -26q-14 -23 -25 -7q-46 67 -145 99q-14 5 -28 7q-15 3 -18 4 q-6 2 -4 10q3 10 15 21q57 51 128 93q155 98 318 164q293 117 546 129q33 2 64 2q220 0 334 -82q82 -57 82 -137v-6q-3 -67 -34 -131q-97 -197 -337 -245q-111 -22 -306 -30q-2 -10 -3 -16q-153 -392 -271 -601q-64 -118 -191 -281l-20 -20q-144 -141 -343 -182 q-78 -16 -165 -16h-10h-53q-147 0 -287 67q-128 62 -206 157q-131 162 -143 345zM239 850q-33 -112 -33 -218q0 -157 73 -299q59 -114 155 -190q98 -76 192 -80q14 -1 27 -1q179 0 304 113q150 171 288 492q56 132 184 452q-284 -11 -481 -106q27 -71 27 -151q0 -46 -9 -94 q-25 -130 -91 -211q-38 -48 -90 -74q-36 -18 -68 -18q-30 0 -57 16q-70 40 -70 163v10q3 110 45 187q76 138 227 203q-81 130 -229 130h-15q-133 -5 -229 -84q-103 -84 -150 -240zM654 599q9 -49 42 -66q14 -8 30 -8q32 0 67 32q67 58 101 172q23 77 23 129q0 75 -24 132 q-1 4 -3 3q-78 -40 -140 -102q-98 -98 -98 -245q0 -23 2 -47zM1723 1191q400 56 400 415q0 83 -164 84q-29 0 -64 -3q-16 -56 -104 -296q-53 -161 -68 -200z" />
<glyph unicode="Q" horiz-adv-x="1524" d="M5 -164q27 93 160 142q81 30 160 30q75 0 148 -27q46 -17 134 -56q374 200 491 474q143 334 160 685q3 51 3 98q0 253 -73 380q-40 70 -134 112q-51 23 -103 23l-277 -168q-251 -300 -361 -738q-36 -138 -36 -269q0 -109 25 -214q31 -132 113 -192q18 -13 43 -13 q49 0 124 47q110 68 165 158q83 135 123 372q11 65 11 139q0 59 -7 123q-18 175 -79 265q-1 1 -18 20q-18 18 -20 21q-22 27 -8 43q12 3 23 3l49 -14q81 -47 136 -109q67 -76 111 -203q43 -123 43 -246q0 -21 -1 -43q-14 -223 -135 -387q-133 -181 -361 -232 q-61 -14 -116 -14q-181 0 -296 152q-71 95 -111 258q-31 124 -31 224q0 17 1 33q20 353 190 619q114 179 334 302q183 104 328 118q26 3 52 3q135 0 240 -77q141 -101 223 -313q62 -161 62 -394q0 -30 -1 -61q-9 -281 -100 -479q-95 -211 -251 -364q-156 -156 -367 -240 q194 -94 345 -245q71 -71 162 -82q14 -1 28 -1q63 0 119 29q76 40 96 126q4 19 4 37q0 42 -22 80q-27 46 -96 64q-23 6 -52 6q-34 0 -75 -8q-32 -6 -43 14q-9 18 4 35q18 23 76 31q21 3 41 3q88 0 167 -52q123 -79 141 -203q5 -33 5 -64q0 -68 -22 -131q-34 -100 -111 -153 q-93 -65 -198 -65q-70 0 -145 29q-155 59 -287 219q-171 207 -266 286q-222 -84 -411 -84q-67 0 -129 10q-63 11 -88 49q-14 21 -14 47q0 15 5 32zM135 -230q8 0 17 1q163 12 378 93q-102 79 -209 79q-42 0 -84 -12q-161 -46 -161 -126q0 -35 59 -35z" />
<glyph unicode="R" horiz-adv-x="2356" d="M2 571q-2 34 -2 66q0 239 116 401q151 210 456 222h20q105 0 191 -47q92 -50 137 -138q183 86 537 106q-1 -2 13 33q90 225 179 438q-184 -67 -289 -136q-131 -86 -222 -232q-6 -10 -16 -29t-14 -26q-15 -23 -26 -7q-45 68 -145 100q-14 4 -27 7q-16 3 -19 4q-6 1 -4 10 q3 9 15 21q58 51 128 93q156 98 320 164q294 118 547 130q33 2 64 2q222 0 336 -82q82 -58 82 -138v-6q-3 -67 -34 -131q-98 -198 -338 -246l-4 -1q30 -16 48 -37q69 -83 69 -207q0 -47 -10 -100q-34 -206 -69 -353q-21 -114 -21 -199q0 -45 6 -83q15 -93 59 -107q4 -1 8 -1 q27 0 68 52q35 44 64 100q28 54 124 265q21 46 41 44q13 -2 13 -20q0 -14 -7 -37q-67 -155 -101 -224q-26 -53 -80 -139q-59 -93 -168 -101q-23 -2 -44 -2q-57 0 -99 14q-49 15 -89 87q-36 64 -38 177v8q0 65 15 154q6 39 70 334q20 92 20 157q0 70 -23 108q-34 58 -82 73 q-23 7 -62 9q-13 -1 -12 -1q-4 -13 -68 -169q-118 -286 -210 -450q-64 -118 -192 -282q-9 -10 -19 -20h-1q-145 -142 -344 -183q-78 -16 -165 -16h-10h-53q-148 0 -288 67q-129 62 -207 158q-132 163 -144 346zM240 853q-34 -113 -34 -219q0 -157 74 -300q59 -114 156 -190 q98 -77 193 -81q13 -1 27 -1q179 0 304 114q151 171 289 493q56 133 185 454q-285 -11 -483 -106q27 -72 27 -152q0 -46 -9 -95q-24 -130 -91 -212q-38 -47 -90 -73q-36 -18 -68 -18q-30 0 -57 16q-71 40 -71 163v10q3 111 46 188q76 138 227 204q-82 130 -230 130h-15 q-133 -5 -229 -84q-104 -84 -151 -241zM657 601q9 -50 42 -67q14 -7 29 -7q31 0 68 31q67 59 101 174q23 77 23 129q0 75 -24 132q-1 4 -3 3q-78 -40 -140 -102q-99 -98 -99 -244q0 -24 3 -49zM1729 1195q386 54 401 412v5q0 84 -164 84q-29 0 -64 -3q-16 -56 -105 -297 q-53 -161 -68 -201z" />
<glyph unicode="S" horiz-adv-x="1555" d="M5 559q-5 50 -5 94q0 59 9 108q41 214 169 355q140 155 315 174q36 4 70 4q165 0 283 -92q58 -45 91 -111q158 59 337 77q33 3 42 -19q5 -11 8 -48q1 -12 1 -22q0 -30 -11 -30q-4 0 -10 4q-14 10 -91 10h-13q-146 0 -231 -42q22 -76 22 -156v-14q0 -118 -41 -211 q-41 -94 -106 -134q-25 -15 -58 -15q-9 0 -19 1q-44 6 -69 29q-61 56 -61 157q0 19 2 41q11 110 69 193q60 88 167 147q-31 61 -65 84q-70 48 -154 48q-35 0 -72 -8q-73 -16 -175 -107q-73 -65 -125 -172q-61 -125 -65 -262v-18q0 -178 115 -351q107 -161 247 -197 q68 -18 128 -17q120 0 207 71q94 77 182 238q75 137 130 277q110 280 173 517l-1 1q-1 -1 3 13q-102 6 -208 43q-190 66 -312 212q-69 82 -84 144q-6 21 -1 36q5 20 27 18q15 -2 29 -2q78 0 135 47l30 25q16 15 22 19q21 17 37 14q10 -3 17 -34q10 -167 63 -268 q86 -166 265 -181q13 42 62 222q33 120 61 175q40 81 87 90q61 12 109 12q63 0 101 -21q23 -13 38 -47q12 -31 12 -64v-9q-6 -98 -72 -204q-68 -109 -181 -195q0 -2 -18 -71q-127 -509 -228 -707q-67 -131 -183 -236q-111 -106 -252 -152q-127 -42 -263 -42q-60 0 -123 8 q-142 19 -274 99q-138 84 -219 207q-60 92 -75 245zM700 672v-14q0 -77 53 -102q12 -5 25 -5q21 0 45 14q38 23 59 65q44 91 46 201q0 90 -28 153q-4 0 -9 -3q-84 -43 -126 -102q-58 -83 -65 -207zM1661 1295q66 37 141 193q33 67 33 111q0 24 -10 41q-21 18 -39 -4 q-29 -34 -63 -136q-22 -66 -62 -205zM2206 1735q0 2 0.5 2t0.5 -1v-1h-1z" />
<glyph unicode="T" horiz-adv-x="1545" d="M5 559q-5 50 -5 94q0 59 9 107q41 215 169 356q140 155 315 174q36 4 70 4q165 0 283 -92q58 -45 91 -112q158 60 337 78q33 3 42 -20q5 -10 8 -47q1 -13 1 -22q0 -30 -11 -30q-4 0 -10 4q-14 10 -91 10h-13q-146 0 -231 -42q22 -76 22 -156v-14q0 -118 -41 -211 q-42 -94 -106 -134q-25 -15 -58 -15q-9 0 -19 1q-44 6 -69 29q-61 56 -61 157q0 19 2 41q11 110 69 193q60 88 167 147q-31 60 -65 84q-70 48 -154 48q-35 0 -72 -8q-73 -16 -175 -107q-73 -65 -125 -172q-61 -126 -65 -262v-18q0 -178 115 -351q107 -161 247 -197 q68 -18 128 -17q120 0 207 71q94 77 182 238q75 137 130 277q51 130 170 587v3q44 185 85 247l21 21q20 21 33 37q65 80 121 128q-346 -21 -466 -44q-189 -37 -350 -146q-24 -17 -78 -64q-31 -27 -42 -21q-5 3 -18 37q-20 53 -59 74q-33 16 -100 26q-32 4 -38 20q-1 3 -1 7 q0 34 140 81q269 91 666 99h30q70 0 219 -6q173 -6 174 -6q2 0 32 19q39 23 75 42q123 63 238 83q58 10 127 10q43 0 89 -4q149 -12 165 -65q3 -8 2 -17q0 -25 -24 -50q-38 -40 -119 -55q-55 -11 -507 -11q-72 -75 -133 -254q-178 -769 -292 -990q-77 -149 -177 -239 q-111 -106 -252 -152q-127 -42 -263 -42q-60 0 -123 8q-142 19 -274 99q-138 84 -219 207q-60 92 -75 245zM699 672v-11q0 -79 54 -105q12 -5 25 -5q21 0 45 14q38 23 58 65q45 91 47 201q0 90 -28 153q-4 0 -9 -3q-84 -43 -126 -102q-59 -83 -66 -207zM1859 1730 q40 -1 187 -2h11l207 17q107 18 126 38q2 3 2 6q0 9 -22 17q-26 10 -66 13q-48 4 -92 4q-216 0 -353 -93z" />
<glyph unicode="U" horiz-adv-x="2133" d="M1 1053q5 221 113 378q118 172 290 247q129 56 319 67q31 2 62 2q194 0 397 -80q226 -90 286 -272q14 -41 14 -102q0 -54 -11 -124q-8 -53 -278 -824q-46 -133 -53 -190q-1 -10 -1 -19q0 -44 30 -44q33 0 126 76q83 69 122 118q77 95 148 236q7 13 34 75q26 60 29 66 q-1 -3 2 4q217 775 323 1017q11 27 51 34q22 4 47 4q61 0 133 -25q10 -5 10 -22q0 -12 -5 -30q2 7 -34 -91q-42 -115 -84 -240q-136 -406 -234 -805q-34 -141 -34 -251q0 -49 7 -92q14 -91 58 -105q4 -1 8 -1q26 0 67 51q34 43 63 100q43 80 126 266q19 41 38 39 q22 -2 5 -56q-59 -139 -100 -222q-25 -53 -78 -138q-59 -92 -167 -99q-16 -1 -31 -1q-58 0 -111 18q-66 22 -99 108q-23 60 -25 128v8q0 48 10 115q-117 -170 -196 -238q-160 -138 -265 -139q-97 0 -134 12q-62 18 -73 80q-3 14 -3 32q0 104 88 347q-2 -5 40 99 q45 112 82 209q121 316 144 438q8 42 8 82q0 105 -57 192q-64 99 -170 144q-102 43 -228 52h-4q-112 0 -232 -61q-132 -67 -208 -178q-138 -198 -138 -429v-13q5 -216 120 -344q97 -108 237 -108q36 0 75 7q111 20 190 159q69 121 69 231v6q-2 103 -37 133 q-81 -92 -181 -132q-69 -28 -146 -28q-29 0 -59 4q-131 16 -181 102q-13 23 -13 55q0 9 1 20q5 46 30 72q70 71 160 94q72 18 147 18q40 0 80 -5q106 -14 179 -59q30 36 64 189q12 55 12 78q0 9 -2 14t-2 8q0 9 14 9q13 0 39 -8q36 -12 45 -18q21 -15 10 -46 q-70 -209 -111 -272q45 -36 73 -108q24 -60 23 -127q0 -95 -47 -203q-36 -79 -118 -142q-77 -58 -170 -83q-71 -20 -152 -20q-57 0 -120 10q-169 28 -278 118q-178 147 -178 403v20zM362 1082q14 -63 102 -78q43 -7 83 -8q73 0 134 26q68 28 129 101q4 4 5 8q-55 41 -144 62 q-53 11 -104 11q-53 0 -104 -12q-46 -11 -76 -43q-26 -27 -26 -55q0 -6 1 -12zM2007 1744z" />
<glyph unicode="V" horiz-adv-x="1887" d="M1 1056q5 221 113 378q118 171 303 251q145 63 306 63q184 -1 322 -76q94 -51 171 -166q81 -119 114 -264q98 -431 121 -970q47 199 112 440q163 600 264 786q85 155 206 221q109 26 304 31h2q29 0 29 -33q0 -11 -19 -19q-5 -2 -19 -6q-15 -5 -20 -7q-165 -57 -280 -302 q-37 -83 -64 -143q-149 -431 -213 -676q-40 -151 -79 -305t-44 -173q-18 -66 -35 -85q-28 -1 -52 -1q-111 0 -137 23q-3 2 -2 17l-2 -1q-46 780 -129 1153q-107 477 -461 493h-22q-110 0 -212 -46q-129 -59 -217 -180q-132 -182 -132 -428v-22q4 -217 119 -344 q97 -108 237 -108q36 0 75 7q111 20 190 159q69 120 69 230v6q-2 104 -36 134q-82 -92 -182 -132q-69 -28 -146 -28q-29 0 -59 4q-131 16 -181 102q-13 23 -13 55q0 9 1 20q5 46 30 72q70 71 160 94q72 18 147 18q40 0 80 -5q106 -14 179 -59q30 36 64 189q12 55 12 78 q0 9 -2 14t-2 8q0 9 14 9q13 0 39 -8q36 -12 45 -18q21 -15 10 -46q-70 -209 -111 -272q45 -36 73 -108q24 -60 23 -127q0 -95 -47 -203q-36 -79 -118 -142q-77 -58 -170 -84q-70 -19 -150 -19q-58 0 -122 10q-169 28 -278 117q-178 148 -178 404v20zM362 1085 q14 -63 102 -78q43 -7 83 -8q73 0 134 26q68 28 129 101q4 4 5 8q-55 41 -144 62q-53 11 -104 11q-53 0 -104 -12q-46 -11 -76 -43q-26 -27 -26 -55q0 -6 1 -12z" />
<glyph unicode="W" horiz-adv-x="2500" d="M1 1057q5 221 113 377q118 172 303 252q145 63 307 63q183 -1 322 -76q93 -51 171 -166q81 -119 113 -264q98 -430 121 -967q48 196 112 436q66 241 146 480q14 41 17 48q9 25 85 25q15 0 33 -1q107 -7 108 -38q1 -20 -7 -45q4 -24 4 -27q24 -111 45 -256 q44 -311 58 -625q47 197 112 439q163 600 264 786q84 155 206 221q109 27 303 31h2q29 0 29 -33q0 -11 -19 -19q-6 -2 -19 -6q-15 -5 -20 -6q-165 -57 -279 -304q-38 -81 -63 -141q-151 -432 -215 -678q-41 -156 -79 -305q-39 -151 -44 -172q-18 -66 -35 -85q-28 -1 -51 -1 q-111 0 -138 23q-3 2 -2 17l-1 -1q-26 439 -55 684q-20 171 -45 314q0 3 -2 13q-92 -271 -148 -487q-39 -150 -79 -305q-39 -151 -44 -172q-18 -65 -35 -84l1 -1q-30 -1 -55 -1q-109 0 -135 23q-3 2 -2 17l-1 -1q-1 2 -1 6v6q-6 102 -13 191q-44 628 -116 951 q-106 477 -460 492q-13 1 -25 1q-108 0 -210 -47q-129 -58 -217 -179q-132 -183 -132 -429v-22q4 -216 119 -344q97 -108 238 -109q36 0 75 8q111 20 190 159q68 121 68 231v6q-2 104 -36 133q-81 -92 -181 -131q-71 -28 -150 -28q-27 0 -56 3q-131 16 -181 103 q-13 22 -13 54q0 9 1 20q5 47 31 73q69 71 160 94q72 18 147 19q40 0 80 -6q105 -15 178 -59q31 35 64 189q12 53 12 77q0 10 -2 15t-2 8q0 9 14 9q13 0 40 -8q36 -12 45 -19q21 -14 10 -46q-71 -209 -112 -271q45 -36 74 -109q23 -59 23 -125q0 -95 -48 -204 q-35 -80 -118 -142q-77 -58 -170 -84q-70 -20 -149 -20q-59 0 -123 11q-169 27 -277 117q-179 148 -179 405v19zM362 1086q15 -64 102 -78q44 -7 84 -7q73 0 134 24q68 29 128 101q4 5 5 9q-55 41 -144 61q-54 12 -106 12t-102 -12q-45 -11 -76 -43q-26 -27 -26 -55 q0 -6 1 -12z" />
<glyph unicode="X" horiz-adv-x="2271" d="M1 1055q5 221 113 377q118 171 303 252q144 62 305 62q55 0 104 -6q359 -32 458 -109q87 -69 235 -360q108 170 212 310q67 91 153 138q108 26 316 31h2q27 0 29 -32q1 -12 -19 -20q-5 -2 -19 -6q-15 -5 -20 -7q-114 -39 -211 -171q-110 -149 -332 -501 q233 -602 379 -865q28 -49 50 -49q11 0 20 11q34 43 65 103q35 66 129 278q16 34 38 43q3 1 5 0q13 -1 13 -20q0 -14 -7 -36q-82 -190 -91 -209q-67 -136 -101 -187q-52 -76 -119 -78q-69 -2 -103 -2h-19q-45 3 -84 66q-7 12 -121 282q-142 336 -188 443 q-477 -788 -465 -786q-44 -7 -88 -7l-58 3q-67 7 -85 22q-3 2 -2 17l-2 -1q251 445 530 911q28 48 59 98q-159 384 -303 517q-118 109 -271 116h-22q-110 0 -212 -46q-129 -59 -216 -180q-133 -183 -133 -432v-18q5 -215 119 -343q97 -108 237 -109q36 0 75 8 q111 21 190 159q68 119 68 227v9q-1 104 -36 134q-81 -92 -180 -132q-69 -28 -147 -28q-29 0 -59 4q-130 16 -180 102q-14 23 -14 56q0 9 1 19q5 46 31 72q69 70 160 94q71 18 143 18q41 0 83 -6q106 -14 179 -58q30 35 64 189q12 55 12 78q0 9 -2 13q-2 5 -2 8q0 9 14 10 q13 0 39 -9q36 -12 45 -18q21 -14 10 -46q-70 -209 -112 -271q45 -36 74 -108q23 -60 23 -126q0 -95 -48 -204q-35 -79 -117 -141q-77 -58 -170 -84q-70 -20 -149 -20q-59 0 -123 11q-169 27 -277 117q-178 148 -178 404v19zM362 1084q14 -63 101 -78q43 -7 83 -8 q73 0 134 26q68 28 129 101q4 4 5 8q-55 41 -144 61q-54 12 -106 12t-102 -12q-45 -11 -76 -43q-26 -26 -26 -53q0 -7 2 -14z" />
<glyph unicode="Y" horiz-adv-x="1905" d="M1 1061q5 220 113 377q200 290 609 314q31 2 62 2q194 0 396 -80q226 -90 286 -272q14 -41 14 -102q0 -54 -11 -124q-8 -53 -277 -823q-47 -133 -53 -191q-1 -10 -1 -19q0 -43 29 -43q34 0 126 76q83 69 122 118q77 95 148 235q7 14 34 76q26 59 29 65q-1 -3 2 4 q217 775 323 1017q11 27 51 34q22 4 47 4q60 0 133 -25q10 -5 10 -22q0 -12 -5 -30q1 4 -29 -82q-37 -104 -75 -218q-123 -373 -234 -765q-14 -54 -23 -84q-16 -57 -55 -197q-31 -114 -46 -166q-24 -85 -67 -221q-100 -321 -243 -537q-162 -246 -426 -248h-3 q-205 0 -318 119q-83 89 -88 220v16q0 126 72 239q78 120 196 150q46 12 91 12q67 0 132 -27q48 -20 50 -29q9 -34 -21 -39q-4 -1 -20 7q-20 11 -33 15q-64 19 -119 19q-154 0 -239 -152q-51 -92 -51 -194q0 -101 53 -165q39 -46 129 -61q25 -4 49 -4q87 0 167 50 q144 90 274 366q90 191 232 667q-101 -140 -166 -196q-160 -138 -265 -139q-97 0 -134 12q-62 18 -73 80q-2 13 -2 30q0 104 88 349q254 686 265 745q8 42 8 82q0 104 -57 192q-64 100 -170 144q-102 43 -228 52h-4q-111 0 -231 -61q-132 -67 -209 -178q-137 -197 -137 -426 v-16q5 -216 119 -344q97 -107 237 -107q37 0 76 7q111 20 190 159q68 120 68 230v6q-2 104 -36 133q-81 -92 -181 -131q-71 -28 -150 -28q-28 0 -56 3q-130 16 -180 103q-13 22 -13 54q0 10 1 20q5 46 30 72q70 71 160 94q84 22 161 22q134 0 244 -67q31 35 64 188 q12 54 12 78q0 9 -2 14t-2 8q0 10 14 10t40 -9q35 -12 45 -18q20 -14 10 -46q-71 -209 -112 -271q45 -36 74 -109q23 -59 23 -125q0 -95 -48 -204q-74 -166 -288 -226q-69 -19 -150 -19q-58 0 -122 10q-169 27 -277 117q-178 148 -178 404v20zM362 1090q14 -64 101 -78 q44 -7 84 -7q73 0 134 24q68 29 128 101q4 5 5 8q-55 42 -144 62q-53 11 -104 11q-52 0 -103 -12q-46 -10 -77 -42q-25 -28 -25 -55q0 -6 1 -12zM2006 1751v1v-1z" />
<glyph unicode="Z" horiz-adv-x="2346" d="M11 768q28 186 172 345q143 158 299 175q36 4 70 4q167 0 296 -93q61 -44 98 -124q23 3 51 3q38 0 86 -6q130 -18 247 -134l61 -76q97 191 103 202q-5 0 -27 -1h-39q-49 1 -49 11q0 20 13 51q14 34 29 35q23 1 128 2q143 248 187 319q-167 20 -421 20q-118 0 -255 -4 q-184 -6 -318 -60q-8 -4 -37 -16q-22 -10 -32 -12q-31 -9 -19 24q47 82 138 185q81 93 115 114q23 15 100 14q114 0 347 -32q203 -28 457 -113q12 11 55 71q35 50 64 66q19 10 65 10h9q101 -3 174 -16q48 -8 72 -55q12 -24 12 -51q0 -44 -30 -97q-42 -74 -169 -74 q-25 0 -52 3q-93 -138 -158 -293q31 -1 54.5 -1t39.5 1q21 -2 4 -44q-16 -40 -35 -50q-11 -5 -54 -5q-29 0 -72 2q-93 -181 -236 -415q13 -17 29 -37q60 -79 64 -82q149 -200 270 -252q69 -30 143 -30q52 0 108 15q84 23 131 124q18 38 45 99q25 58 27 61q19 40 38 40l6 -1 q13 -4 13 -18q0 -3 -1 -6q-2 -11 -20 -59q-126 -335 -238 -431q-64 -55 -160 -55q-29 0 -62 5q-96 15 -198 122q-67 69 -108 140q-34 58 -85 171l-52 115q-15 -41 -123 -189q-113 -155 -180 -219q-82 -80 -242 -136q-88 -30 -208 -30h-15q-127 3 -290 49q-96 27 -198 99 q-120 84 -178 185q-71 123 -71 292q0 68 12 143zM248 829q-28 -100 -28 -194q0 -184 108 -345q109 -160 253 -194q84 -20 140 -20q25 0 46 4q86 16 180 109q164 160 408 605q-140 204 -280 217q-41 4 -70 4q-21 0 -35 -2q23 -77 23 -159v-13q-6 -225 -132 -312 q-12 -9 -25 -15q-37 -18 -68 -18q-38 0 -66 27q-45 43 -53 127q-2 17 -2 35q0 47 12 94q24 105 99 186q57 62 123 93q-22 40 -71 76q-75 57 -170 57q-26 0 -53 -4q-83 -14 -174 -94q-123 -109 -165 -264zM711 631q11 -63 43 -75q13 -4 25 -4q54 0 104 84q39 67 46 169 q1 18 1 36q0 85 -28 147q-3 0 -6 2q-1 1 -2 1q-80 -50 -112 -92q-44 -54 -68 -157q-7 -31 -8 -62q1 -24 5 -49zM2049 1524q16 -2 30 -2q52 0 90 28q38 29 38 72q0 17 -6 35q-5 17 -18 17q-22 0 -67 -55q-35 -43 -67 -95z" />
<glyph unicode="a" horiz-adv-x="1040" d="M-40 306q2 90 27 195q56 239 174 336q41 34 109 48q39 8 81 8q45 0 95 -9q102 -19 159 -65q6 -5 13 -12q15 39 15 42q32 42 105 44h7q64 0 111 -33q11 -11 11 -33.5t-11 -55.5q-1 -1 -16 -45q-19 -52 -36 -101q-57 -162 -93 -289q-24 -84 -24 -142q0 -48 16 -80 q20 -37 59 -46q22 -5 40 6q16 10 41 40q34 43 63 100q43 81 123 253q26 56 45 56h1q12 -1 12 -20q0 -4 -1 -9q-1 -13 -6 -27q-64 -145 -105 -226q-25 -54 -78 -138q-59 -93 -168 -100q-24 -2 -45 -2q-55 0 -96 13q-37 13 -72 60q-98 -71 -243 -74h-10q-84 0 -157 33 q-83 38 -121 128q-25 62 -25 134v11zM210 355q-11 -65 -11 -117q0 -79 26 -127q18 -24 54 -24q22 0 51 24q35 28 81 111q28 49 112 316q47 178 46 232q-10 15 -28 23q-37 20 -78 20q-12 0 -25 -2q-49 -13 -68 -30q-110 -124 -160 -426z" />
<glyph unicode="b" horiz-adv-x="781" d="M-39 239q-1 16 -1 32q0 117 37 295q43 212 134 544q80 290 132 410q68 159 150 200q57 29 113 29q62 0 122 -36q71 -49 86 -112q6 -24 6 -51q0 -78 -46 -191q-39 -96 -146 -287q-120 -214 -347 -581q0 8 -11 -55q-12 -65 -13 -113q0 -12 -1 -23q0 -160 85 -161q9 0 19 2 q49 9 116 161q-23 71 -28 98q-9 52 -9 98q0 70 21 128t56 87q20 12 47 12q36 0 84 -23q79 -39 97 -93q5 -32 5 -66q0 -54 -13 -113q-16 -73 -46 -135q60 17 104 76q26 35 73 134q21 19 51 -1q-95 -245 -252 -269q-88 -165 -202 -212q-59 -23 -120 -23q-52 0 -105 17 q-89 28 -141 87q-53 59 -57 135zM249 680q49 71 164 270q145 249 168 296q103 209 103 293q0 43 -16 61q-17 20 -57 21h-3q-38 0 -69 -48q-17 -26 -42 -90q-106 -271 -150 -442q-49 -193 -98 -361zM408 538q-2 -22 -2 -44q0 -68 24 -122q30 62 39 140q4 35 4 61q0 42 -11 59 q-4 7 -10 7q-9 0 -21 -22q-18 -33 -23 -79z" />
<glyph unicode="c" horiz-adv-x="692" d="M-16 283q-4 32 -4 68q0 94 25 213q37 178 102 241q68 65 202 79q31 3 59 3q92 0 156 -35q29 -27 37 -41q13 -22 13 -61q0 -64 -68 -158q-10 -14 -41 -44q-42 -41 -44 -42q-15 -3 -28 9q-14 14 -11 30q3 18 31 85q27 64 31 95q1 9 1 17q0 30 -17 45q-15 13 -38 13 q-13 0 -29 -4q-61 -15 -109 -157q-44 -131 -49 -269q-1 -16 -1 -31q0 -147 62 -214q22 -24 55 -24q18 0 38 7q53 17 116 72q82 74 138 163q31 49 90 172q13 28 37 27q11 0 13 -9q1 -3 1 -8q0 -9 -5 -21q-42 -98 -81 -172q-48 -90 -97 -149q-87 -108 -203 -159 q-69 -22 -128 -22q-75 0 -134 35q-99 57 -120 246z" />
<glyph unicode="d" horiz-adv-x="1029" d="M-28 297q1 10 6 70q3 43 6 67q34 209 128 333q25 32 82 70q57 37 91 43q66 14 121 14q73 0 126 -25q40 -19 66 -45q108 370 177 583q14 45 58 161q55 146 93 163q44 8 78 8q82 0 94 -49q1 -4 1 -9q0 -32 -34 -122q1 2 -68 -203q-31 -93 -66 -213q-50 -176 -59 -206 q-68 -222 -102 -353q-7 -24 -24 -99q-4 -20 -9 -42q-41 -151 -41 -259v-10q1 -35 19 -65q20 -31 47 -40q4 -1 8 -1q26 0 67 51q34 42 63 98q42 81 110 232q26 56 44 56h1q23 -2 6 -56q-53 -124 -93 -205q-25 -52 -78 -136q-58 -92 -166 -99q-23 -2 -44 -2q-55 0 -96 13 q-42 14 -67 58q-47 -33 -125 -55q-81 -23 -153 -23q-42 0 -80 8q-81 16 -119 54q-70 70 -70 192q0 21 2 43zM204 300q-6 -49 -6 -87q0 -94 39 -113q22 -10 43 -10q67 0 127 100l30 50q-3 -6 68 188q1 1 6 21q3 9 11 38q1 8 2 11l3 9q16 65 36 171q9 26 9 48q0 38 -27 65 q-30 32 -74 32q-11 0 -22 -2q-56 -9 -113 -101q-40 -64 -84 -197q-33 -101 -48 -223z" />
<glyph unicode="e" horiz-adv-x="691" d="M-17 284q-4 33 -4 69q0 95 25 213q38 179 103 242q68 66 210 80q32 3 61 3q94 0 147 -35q29 -27 37 -42q14 -24 14 -61q0 -64 -69 -158q-3 -6 -22 -25q-7 -10 -13 -16q-40 -41 -118 -76q-79 -35 -146 -39q-6 -54 -7 -100q0 -145 63 -213q22 -24 56 -24q17 0 37 6 q54 17 117 73q82 74 139 163q31 49 90 173q13 28 37 27q11 0 14 -9q1 -3 1 -6q0 -9 -6 -23q-42 -99 -81 -172q-49 -91 -97 -151q-88 -107 -204 -159q-69 -22 -129 -22q-75 0 -134 35q-100 58 -121 247zM214 480q91 16 150 69q65 57 72 145q1 12 1 24v11q-6 47 -18 61 q-11 12 -32 12q-11 0 -25 -3q-62 -15 -110 -157q-24 -71 -37 -155z" />
<glyph unicode="f" horiz-adv-x="511" d="M-787 -781q-10 22 -10 51q0 61 43 154q89 193 334 400q78 66 198 141q106 66 111 72q139 505 208 781q6 21 11 44h-53q-18 0 -24 17q-6 16 9 27q50 40 95 74q50 228 88 342q80 236 204 326q135 99 256 99h12q67 -3 97 -53l2 -4q10 -18 10 -42q0 -49 -44 -121 q-104 -165 -303 -344q-35 -114 -74 -271h30q25 0 25 -26q0 -24 -25 -24h-41q-70 -294 -73 -304q-40 -152 -113 -387q91 43 157 107q125 119 184 251q20 44 32 52q7 4 22 -3q4 -4 4 -13q0 -20 -19 -64q-70 -165 -210 -281q-100 -84 -194 -123q-90 -277 -154 -413 q-163 -343 -366 -471q-93 -45 -249 -45q-32 0 -66 2q-2 -1 -4 -1h-12q-75 0 -98 50zM-736 -758q4 -9 18 -14q49 0 42 -1q133 18 273 195q169 214 256 507q-292 -161 -442 -354q-83 -112 -124 -222q-26 -66 -26 -96q0 -9 3 -15zM487 1279q146 139 231 275q37 60 36 95 q-2 9 -15 16q-4 1 -9 1q-48 0 -120 -111q-62 -97 -123 -276z" />
<glyph unicode="g" horiz-adv-x="925" d="M-313 -792q-10 22 -10 52q0 61 43 155q90 194 337 403q79 66 200 142q83 52 104 67q-86 -25 -139 -25h-4q-78 2 -158 44q-54 29 -82 81q-34 65 -34 162q0 43 7 93q31 223 104 344q84 138 223 158q9 1 21 1q45 0 124 -19q104 -25 146 -56q16 39 22 49q18 27 46 28 q24 -1 91 -14q60 -12 60 -48q0 -6 -1 -12q0 -19 -18 -75q-1 -4 -43 -171q-27 -109 -59 -235q-40 -161 -41 -163q75 36 147 106q106 120 166 253q20 45 32 53q7 4 22 -3q4 -4 4 -13q0 -20 -19 -65q-71 -166 -192 -283q-113 -96 -179 -123q-11 -42 -11 -40q-75 -264 -143 -406 q-158 -330 -338 -443q-99 -48 -252 -48q-29 0 -61 2q-2 -1 -4 -1h-12q-76 0 -99 50zM-261 -769q4 -9 18 -14q49 0 42 -1q134 18 275 197q171 215 258 511q-294 -163 -445 -357q-84 -113 -125 -224q-26 -67 -26 -97q0 -9 3 -15zM151 243q2 -48 27 -100q31 -62 75 -70 q8 -1 17 -1q34 0 68 23q17 11 38 32q25 23 23 21q132 492 151 584q-12 15 -28 22q-56 29 -103 29q-31 0 -58 -12q-51 -34 -76 -61q-53 -60 -90 -191q-44 -159 -44 -257v-19z" />
<glyph unicode="h" horiz-adv-x="910" d="M-109 50q2 9 66 298q66 297 76 343q45 215 181 777q51 210 115 243q45 23 135 32q62 6 78 6h6l-1 -1q111 -10 175 -104q19 -27 19 -67q0 -63 -47 -160q-157 -325 -354 -635q91 59 193 90q44 14 81 13q77 0 124 -58q27 -35 27 -109q0 -35 -6 -80q-15 -107 -66 -279 q-51 -173 -51 -233q0 -22 7 -29q8 -8 18 -8q34 0 89 96q50 88 88 170q19 43 56 123q15 39 29 49q12 8 20 5q13 -5 13 -23q0 -10 -4 -24q0 -2 -44 -98q-133 -288 -198 -339q-52 -34 -125 -42q-21 -2 -40 -2q-62 0 -94 23q-48 34 -48 118q0 35 28 158q10 38 76 306 q25 99 28 132q1 10 1 19q0 39 -22 39q-5 0 -12 -2q-74 -27 -246 -158q-7 -29 -76 -324q-66 -285 -66 -287q-4 -19 -22 -28q-163 10 -191 10q-7 0 -5 -1q-12 11 -12 29q0 6 1 12zM304 821q105 190 198 343q138 229 178 344q11 30 11 57q0 44 -29 77q-24 28 -55 28 q-27 0 -60 -21q-46 -29 -70 -98q-48 -138 -82 -309q-3 -15 -46 -208q-41 -186 -45 -213z" />
<glyph unicode="i" horiz-adv-x="517" d="M-66 241q9 98 44 224q85 288 122 370q23 52 106 52h8q95 0 117 -22q11 -11 11 -33t-11 -56q-2 -8 -49 -143q-49 -141 -51 -147q-62 -191 -62 -287q0 -11 1 -21q3 -32 21 -66q24 -47 58 -50h3q51 0 130 152q44 82 125 262q26 58 45 58h1q13 -1 13 -20q0 -14 -7 -38 q-66 -152 -106 -235q-19 -38 -80 -134q-62 -98 -169 -105q-24 -2 -46 -2q-58 0 -96 14q-77 29 -110 109q-19 48 -19 97q0 10 1 21zM268 1453v5q0 50 38 86q39 38 96 40h6q53 0 92 -34q43 -38 43 -94q0 -49 -38 -86q-39 -38 -96 -40h-3q-55 0 -95 35q-41 36 -43 88z" />
<glyph unicode="j" horiz-adv-x="526" d="M-580 -715q-5 19 -5 39q0 79 75 184q60 83 248 205q122 288 351 1078q25 85 57 90q18 3 39 3q42 0 94 -13q40 -10 52 -21q15 -13 11 -41q-25 -226 -289 -917q93 47 170 127q149 154 281 427q33 68 50 68q1 0 3 -1q18 -10 18 -13q0 -9 -13 -40q-77 -175 -179 -321 q-133 -193 -239 -271q-26 -19 -72 -47q-47 -27 -50 -29q-205 -552 -293 -621q-37 -29 -78 -35q-89 7 -154 51q-62 42 -77 98zM-523 -651q-3 -13 -3 -23q0 -38 37 -42h2q32 0 88 103q61 123 99 214h-1q-6 0 -67 -46q-72 -55 -101 -96q-43 -61 -54 -110zM257 1452v5 q0 49 37 85q39 38 96 40h6q52 0 91 -34q42 -36 43 -88v-5q0 -49 -37 -85q-39 -39 -96 -40h-6q-52 0 -92 34q-41 36 -42 88z" />
<glyph unicode="k" horiz-adv-x="919" d="M-99 50q2 10 66 299q67 297 76 343q45 215 182 779q51 210 115 243q45 23 135 32q62 6 78 6h6l-1 -1q111 -10 176 -104q18 -26 18 -66q0 -64 -47 -162q-66 -136 -280 -510q328 363 510 539q18 18 36 0q9 -10 9 -19t-9 -17q-196 -190 -558 -593q69 36 131 55q44 13 81 14 q78 0 124 -59q28 -36 28 -113q0 -35 -6 -77q-16 -108 -66 -279q-51 -173 -51 -234q0 -22 7 -29q8 -8 18 -8q33 0 88 96q51 88 91 177q25 50 59 127q13 26 24 39q12 8 20 5q13 -5 13 -23q0 -10 -4 -24q0 -2 -44 -99q-134 -288 -199 -339q-52 -34 -125 -42q-21 -2 -40 -2 q-62 0 -94 23q-48 35 -48 118q0 35 28 159q10 38 76 306q25 99 28 132q1 11 1 19q0 39 -21 40q-6 0 -13 -3q-74 -26 -246 -158q-8 -29 -76 -324q-66 -286 -67 -288q-4 -19 -21 -28q-164 10 -192 10q-7 0 -5 -1q-12 11 -12 29q0 6 1 12zM315 823q103 187 198 343 q138 229 178 345q11 31 11 58q0 43 -28 76q-24 28 -56 28q-27 0 -60 -21q-46 -29 -70 -98q-48 -138 -82 -310q-3 -14 -46 -208q-41 -186 -45 -213z" />
<glyph unicode="l" horiz-adv-x="570" d="M-50 243q12 186 164 793q131 519 184 612q55 97 165 103h15q72 0 133 -27q74 -33 89 -95q5 -21 5 -46q0 -112 -93 -322q-49 -110 -192 -352q-175 -296 -189 -309q-58 -247 -66 -344q-1 -10 0 -20q0 -70 44 -97q16 -10 35 -9q16 0 35 6q50 18 100 78q125 151 198 295 q24 49 39 49h1q32 -4 11 -51q-102 -224 -231 -376q-111 -130 -230 -130q-24 0 -49 5q-90 21 -135 99q-33 58 -33 124v14zM284 781q95 146 132 210q109 186 166 314q79 176 79 277q0 9 -1 18q-3 45 -42 63q-14 6 -27 6q-22 0 -39 -18q-45 -48 -74 -129q-102 -300 -194 -741z " />
<glyph unicode="m" horiz-adv-x="1603" d="M-2 492q12 25 54 126q43 105 41 101q60 131 125 160q24 10 59 10q23 0 51 -4q63 -9 96 -28q29 -17 29 -62q-1 -132 -72 -400q273 436 349 469q29 5 59 5q51 0 107 -14q43 -11 52 -38q4 -11 4 -30q0 -26 -7 -66q-47 -273 -68 -289l121 166q118 161 162 213q29 34 83 43 q21 3 42 3q34 0 67 -9q78 -22 82 -74q1 -6 1 -14q0 -59 -34 -202q-69 -289 -79 -423q-2 -31 20 -43q19 -10 46 19q13 14 40 56q83 127 185 348q11 26 15 32q14 18 31 5q8 -7 8 -17q0 -4 -1 -9q-19 -50 -88 -192q-68 -138 -110 -203q-74 -112 -137 -123q-37 -6 -72 -6 q-77 0 -148 29q-22 9 -25 44q-1 9 -1 19q0 108 67 387q59 244 59 286q0 5 -1 7q-4 10 -13 4q-8 -5 -26 -28q-135 -169 -336 -472q-1 -3 -31 -114q-32 -117 -35 -127q-11 -29 -36 -35h-187q-20 0 -14 29q2 9 7 27q7 22 9 26q149 536 166 639q10 45 -5 51h-1q-19 0 -145 -191 q-173 -262 -216 -318q-13 -38 -39 -124q-27 -87 -35 -107q-11 -23 -22 -28q-8 -3 -45 -4q-43 -2 -80 -2t-68 2q-13 1 -14 15q-2 13 6 42q177 668 181 707q4 33 -7 39q-4 2 -8 2q-20 0 -47 -46q-20 -35 -52 -116q-38 -96 -69 -160q-18 -38 -19 -41q-14 -22 -28 -15 q-14 6 -14 24q0 15 11 39z" />
<glyph unicode="n" horiz-adv-x="1101" d="M-6 484q10 26 104 230q37 81 56 110q27 42 56 55q26 11 64 11q25 0 54 -5q48 -7 94 -28q25 -11 33 -33q5 -15 5 -38.5t-5 -56.5q-2 -9 -65 -289q238 344 263 373q27 32 81 42q11 2 24 2q31 0 77 -11q50 -12 65 -20q36 -18 36 -55q0 -57 -52 -293q-59 -270 -66 -337 q-3 -35 21 -50q21 -9 47 21q13 12 40 55q84 128 185 349q12 26 16 32q14 18 31 5q8 -7 8 -16q0 -5 -2 -10q-18 -51 -87 -193q-68 -138 -111 -202q-74 -112 -137 -124q-40 -5 -75 -5q-90 0 -151 33q-17 9 -19 37q-1 7 -1 17q0 96 67 392q56 253 56 279q0 16 -17 4 q-14 -9 -30 -32q3 4 -116 -168q-127 -183 -190 -273q-45 -187 -78 -265q-9 -21 -41 -25h-67h-115q-20 0 -13 36q3 12 10 33q8 25 9 31q129 479 146 553q24 101 26 112q3 27 -10 34q-3 1 -5 1q-21 0 -55 -66q-6 -13 -56 -123q-52 -114 -61 -133q-14 -29 -19 -36 q-12 -19 -25 -15q-14 4 -14 21q0 13 9 34z" />
<glyph unicode="o" horiz-adv-x="852" d="M-35 187q-5 33 -5 75q0 62 11 144q17 117 42 196q53 165 155 237q76 54 214 54q33 0 70 -3q181 -15 249 -86q43 -44 43 -138q0 -27 -4 -59q-15 -137 -81 -324q127 58 209 250q18 41 40 31q9 -4 9 -18q0 -15 -11 -41q-47 -112 -110 -185q-78 -90 -160 -108 q-42 -77 -54 -94q-41 -54 -92 -78q-73 -35 -180 -39q-17 -1 -34 -1q-84 0 -160 21q-61 16 -103 66q-38 45 -48 100zM183 137q19 -38 61 -52q14 -4 29 -4q26 0 51 14q46 27 77 119q-94 17 -142 53q-41 32 -71 107q-18 -98 -18 -159q0 -52 13 -78zM245 468q15 -76 46 -119 q45 -65 127 -80q21 50 72 253q32 128 32 198q0 37 -9 58q-11 25 -30 35q-23 12 -67 12h-13q-64 -2 -98 -59q-20 -32 -58 -153q-7 -47 -7 -86q0 -33 5 -59z" />
<glyph unicode="p" horiz-adv-x="869" d="M-550 -729q13 216 184 442q70 92 175 186q42 108 117 363q77 258 122 377q51 134 151 206q53 37 193 42h25q144 0 256 -53q71 -34 94 -68q22 -34 22 -93q0 -15 -1 -31q-12 -138 -102 -362q120 59 199 246q12 23 20 28t24 -1q7 -2 7 -13q0 -16 -15 -51q-44 -104 -104 -174 q-77 -90 -160 -108q-4 -7 -12 -22q-7 -15 -11 -23q-7 -12 -12 -22q-14 -26 -39 -50q-31 -31 -53 -40q-8 -5 -17 -9q-84 -42 -242 -42h-14q-51 0 -161 33q-242 -639 -242 -644l1 1q-42 -95 -112 -188q-26 -32 -45 -39q-31 -5 -60 -5q-53 0 -96 18q-69 29 -92 96zM-476 -714 q2 -5 6 -5q17 0 68 96q50 94 106 226q20 48 42 136q-138 -141 -184 -266q-42 -113 -42 -163q0 -15 4 -24zM173 152q97 70 262 96q36 90 81 258q48 178 48 238q0 15 -3 23q-25 64 -101 64q-10 0 -20 -1q-59 -6 -95 -55q-94 -130 -158 -414q-21 -95 -21 -153q0 -35 7 -56z M214 98q24 -16 54 -16q17 0 35 5q41 11 67 36q28 27 39 57q-136 -30 -195 -82z" />
<glyph unicode="q" horiz-adv-x="1027" d="M-80 -691q-2 100 82 209q69 90 169 157q7 5 43 24q27 15 36 25q2 2 33 90q53 149 70 191q5 14 12 33q-72 -31 -152 -36q-11 -1 -21 -1q-79 0 -128 35q-86 62 -103 143q-5 22 -5 54q0 75 26 201q36 175 81 261q52 99 122 140q90 52 207 52h9q126 -1 210 -62q25 52 71 60 q17 3 37 3q36 0 80 -11q74 -19 71 -53v1q-4 0 -164 -509q-72 -230 -142 -414q88 42 170 127q150 158 281 427q19 41 28 52q13 20 25 14q17 -9 17 -14q0 -10 -12 -38q-77 -175 -178 -322q-131 -188 -240 -270q-19 -14 -61 -38q-41 -24 -60 -38q2 8 -112 -317 q-81 -174 -84 -179q-50 -91 -115 -136q-28 -19 -61 -24q-85 7 -151 52q-64 44 -91 111zM-13 -691q24 -15 34 -15h1q38 6 91 103q3 8 82 200q-1 3 -6 3q-129 -108 -147 -131q-59 -78 -59 -133q0 -14 4 -27zM200 345q-14 -72 -14 -123q0 -69 26 -98q24 -26 64 -33q5 -1 11 -1 q28 0 60 26q58 47 59 47q5 12 16 33q28 84 52 160q18 60 69 239q8 27 18 70q11 48 16 65q-23 56 -90 84h-10q-60 0 -104 -55q-36 -43 -67 -97q-64 -109 -106 -317z" />
<glyph unicode="r" horiz-adv-x="921" d="M-4 487q33 82 114 258q29 67 50 94q22 28 54 42q24 10 60 10q23 0 52 -4q62 -9 95 -28q21 -12 28 -35q4 -16 4 -40t-4 -56q-11 -86 -57 -263q50 84 145 259q62 117 150 132q18 3 36 3q37 0 69 -14q40 -19 56 -34q18 -17 18 -38q0 -37 -57 -181q-52 -131 -52 -193 q0 -13 2 -22q7 -33 28 -38q4 -1 7 0q41 0 90 81q-4 -7 53 105q19 38 39 28q11 -5 11 -20q0 -13 -9 -34q-24 -59 -72 -137q-32 -47 -64 -63q-25 -13 -53 -13q-18 0 -38 5q-51 14 -121 58q-51 32 -57 72q-1 9 -1 20q0 61 41 181q1 2 11 27q11 26 17 45q16 45 16 66q0 9 -3 15 q-5 11 -14 5q-8 -5 -24 -29q-1 -1 -29 -54q-36 -66 -67 -122q-105 -191 -168 -283q-23 -103 -83 -257q-33 -31 -103 -33q-33 -2 -57 -2q-48 0 -59 7q-6 4 -6 20q0 24 14 77q7 25 19 61l10 33q114 425 130 516q0 4 5 26q4 19 5 28q4 32 -7 39q-3 1 -6 1q-20 0 -49 -57 q-9 -19 -57 -127q-55 -124 -71 -157q-10 -22 -17 -30q-11 -12 -23 -7q-11 4 -11 18q0 15 10 39z" />
<glyph unicode="s" horiz-adv-x="732" d="M-52 1029q4 11 19 34q18 28 29 34q18 10 40 10q14 0 29 -4q61 -16 92 -89q21 -47 20 -99q0 -32 -7 -66q9 -6 95 -68q85 -60 108 -80q122 -101 165 -193q34 -72 51 -186q77 38 160 214q14 33 41 21q12 -6 11 -16q0 -11 -15 -40q-70 -136 -130 -195q-21 -20 -65 -43 q-5 -74 -62 -144q-52 -64 -141 -95q-69 -24 -145 -24q-22 0 -44 2q-98 10 -166 76q-58 56 -58 120q0 30 12 61q33 87 129 116q39 12 72 12q31 0 57 -10q65 -25 69 -103q3 1 23 0h21q-14 128 -85 236q-43 65 -145 169q-54 -145 -98 -232q-4 -8 -10 -14q-13 -12 -27 -2 q-21 16 2 50q54 122 95 236l-15 18q-13 15 -18 21q-81 93 -102 142q-16 36 -16 74q0 28 9 57zM29 1047q12 -107 100 -163v15q0 60 -7 91q-14 48 -51 71q-14 8 -26 9h-1q-15 0 -15 -17v-6zM48 211q-1 -7 0 -14q0 -28 9 -55q17 -50 60 -73q29 -16 64 -16q11 0 23 2q35 5 61 22 q75 47 90 158q-6 1 -46 5q-19 -71 -68 -106q-34 -23 -57 -21q-18 1 -41 18q-18 13 -24 24q-13 19 -4 42q7 19 23 33t67 29q10 32 10.5 56.5t-10.5 42.5q-85 -1 -128 -63q-26 -39 -29 -84zM145 188h3l23 15q5 4 9 11q4 6 4 7q-17 -6 -33 -19q-10 -8 -10 -11t4 -3z" />
<glyph unicode="t" horiz-adv-x="611" d="M62 802q0 1 3 13h-84q-24 0 -18 38q6 35 43 35h79q2 12 3 12q80 268 157 532q69 233 72 242q12 43 28 55q12 11 54 17q19 3 85 3q49 -8 54 -33q1 -3 1 -8q0 -40 -44 -171q-26 -80 -180 -640l-2 -4h84q22 0 13 -41q-7 -33 -38 -33h-77q-5 -17 -5 -20q-53 -193 -73 -274 q-40 -165 -40 -260q0 -16 1 -31q5 -59 39 -89q32 -28 68 -28q32 0 69 22q29 17 69 63q89 104 198 315q24 44 26 46q8 7 25 2q13 -4 13 -13q0 -3 -2 -8q-75 -208 -245 -412q-110 -132 -231 -132q-31 0 -63 9q-64 18 -115 61q-79 66 -79 168q0 123 112 564z" />
<glyph unicode="u" horiz-adv-x="942" d="M-70 145q9 117 89 426q7 25 22 92q16 65 24 97q29 110 49 120q22 11 62 11q18 0 40 -2q80 -8 97 -45q1 -3 1 -9q0 -40 -47 -218l-80 -305v1q-32 -130 -31 -176q0 -25 9 -26q1 0 2 1q32 7 124 145q27 40 65 100q33 53 37 58q98 135 106 165q61 207 64 217q7 22 25 46 q20 28 38 31q17 4 35 4q34 0 72 -14q64 -22 64 -60q0 -16 -43 -158q-40 -135 -93 -377q-18 -83 -19 -132q0 -24 5 -40q2 -9 6 -14q12 -11 25 -15q4 -1 8 -1q27 0 69 53q35 43 65 100q43 84 113 240q27 57 46 57h1q12 -2 12 -21q0 -4 -1 -9q-1 -14 -5 -27q-55 -129 -96 -212 q-26 -54 -80 -140q-60 -94 -171 -102q-30 -2 -55 -2q-34 0 -57 4q-57 9 -79 33q-32 37 -32 111q0 32 6 70q7 42 23 110q22 87 24 101q-45 -61 -131 -191q-86 -129 -132 -191q-3 -3 -20 -22q-11 -12 -32 -20q-16 -6 -38 -6q-34 0 -83 13q-39 10 -65 32q-38 34 -38 87v10z" />
<glyph unicode="v" horiz-adv-x="928" d="M-2 500q31 65 75 187q52 140 62 156q17 28 49 35q24 5 51 5q42 0 91 -13q56 -17 80 -51q8 -11 7 -58q0 -53 -9 -151q-1 -19 -29 -413q-1 -17 -1 -30q0 -28 5 -44q7 -23 23 -15q42 19 162 205q-62 69 -62 198q0 88 38 184q59 148 136 188q16 8 33 8q20 0 43 -11 q46 -22 46 -102q0 -50 -18 -122q-30 -117 -138 -328q26 -22 74 -22q14 0 29 2q46 6 95 58q55 60 98 152q8 18 18 22q8 3 13 -3q13 -12 13 -28q0 -9 -5 -20q-61 -144 -152 -205q-53 -35 -109 -35q-49 0 -100 27q-88 -137 -163 -221q-38 -43 -90 -49t-94 -6q-38 0 -68 5 q-49 8 -53 140v21q0 97 23 335q22 229 22 270v7q-4 24 -20 9q-14 -13 -26 -44q-83 -218 -114 -280q-8 -16 -17 -25q-12 -11 -22 -6q-11 7 -11 20q0 14 15 48zM561 489q2 -83 37 -124q123 210 123 319q0 23 -5 41q-9 32 -34 32h-4q-27 -3 -55 -39q-62 -78 -62 -213v-16z" />
<glyph unicode="w" horiz-adv-x="1352" d="M-14 452q-3 -6 23 49q29 65 81 208q43 121 52 131q11 14 49 34q23 3 46 3q44 0 89 -12q63 -18 84 -49q8 -11 8 -60q0 -52 -9 -146q-3 -26 -16 -149q-9 -85 -11 -121q-8 -138 -8 -134q0 -95 25 -95q3 0 7 2q34 15 79 77q12 16 76 114q48 73 52 94q0 2 15 222 q12 178 24 206q0 16 18 34q37 10 73 10q23 0 47 -4q70 -14 69 -66q0 -54 -22 -326q-13 -170 -15 -322q0 -30 13 -30q10 0 26 18q74 75 135 176q-14 16 -28 49q-29 65 -29 147v5q0 84 34 177q30 85 67 128q39 47 71 59q14 6 29 6q20 0 42 -11q45 -22 45 -100q0 -49 -18 -121 q-29 -116 -135 -324q5 -7 21 -13q21 -8 51 -9q16 0 35 3q40 5 88 57q53 56 96 150q6 19 16 23q8 4 16 -4q12 -12 12 -28q0 -10 -5 -20q-60 -143 -149 -202q-53 -36 -109 -36q-50 0 -102 28q-54 -90 -115 -166q-79 -98 -134 -108q-38 -6 -72 -6q-67 0 -113 25q-11 36 -11 90 v17q2 61 2 95q0 23 -1 34q-20 -24 -51 -76q-35 -57 -51 -78q-65 -88 -155 -97q-26 -3 -53 -3q-22 0 -44 2q-58 5 -70 19q-18 19 -22 121v20q0 96 23 333q21 205 21 259q0 11 -1 16q-4 22 -11 22q-10 0 -28 -36q-11 -24 -47 -121q-41 -112 -75 -186q-12 -26 -17 -32 q-11 -14 -26 -8q-14 6 -14 15q0 5 7 21zM993 487q6 -86 37 -120q122 209 122 316q0 22 -5 40q-9 32 -34 32h-4q-26 -3 -55 -39q-62 -79 -62 -198q0 -15 1 -31z" />
<glyph unicode="x" horiz-adv-x="924" d="M-25 38q56 128 181 285q29 37 131 153q-9 26 -32 113q-27 103 -44 157q-17 56 -34 60q-5 0 -11 -9q-7 -10 -54 -151q-31 -90 -77 -188q-12 -26 -17 -32q-11 -14 -26 -8q-16 8 -15 19q0 3 7 20q4 8 11 23q9 21 12 26q32 80 77 208q40 124 45 132q22 32 50 35q35 4 63 4 q94 0 123 -38q14 -14 25 -41q14 -33 51 -157q9 7 98 94q66 63 107 97q11 10 26 19q21 14 22 15q17 12 37 13h8q43 0 77 -19q12 -17 -9 -42q-3 -4 -38 -38q-181 -172 -276 -281q40 -163 78 -258q25 -61 54 -115q3 -4 27 -38q12 -8 25 -9h3q25 0 61 45q28 36 55 87 q43 82 123 260q17 43 37 36q14 -4 14 -26q0 -11 -2 -21q-46 -108 -102 -222q-26 -53 -80 -139q-53 -84 -144 -100q-18 -6 -42 -6q-38 0 -91 15q-82 24 -99 52q-41 72 -73 230v3q-40 -45 -96 -146q-58 -104 -97 -151q-12 2 -43 0q-41 -4 -53 -4h-3q-63 0 -70 38z" />
<glyph unicode="y" horiz-adv-x="969" d="M-272 -787q-10 22 -10 51q0 61 43 155q90 194 336 402q78 67 199 142q107 66 112 72q0 2 2 8q-30 -20 -62 -30q-50 -16 -107 -16q-31 0 -65 5q-134 19 -184 122q-20 42 -20 124q0 95 27 244q45 246 116 372q8 22 38 24q22 1 42 1q79 0 129 -13q18 -5 18 -26 q0 -15 -10 -40q-45 -120 -88 -283q-52 -198 -52 -311q0 -46 9 -78q8 -29 28 -50q23 -22 49 -20q94 7 148 90q27 42 36 82q155 599 156 600q21 50 58 51q0 1 6 1t18 -1q28 -2 53 -8q81 -21 85 -69q-1 3 -26 -77q-11 -36 -45 -176q-63 -256 -95 -384q70 33 139 100 q116 120 175 253q20 44 32 52q7 4 23 -3q4 -4 4 -13q0 -19 -20 -64q-70 -166 -201 -283q-120 -101 -172 -122q-77 -287 -156 -451q-156 -325 -334 -438q-96 -46 -253 -46q-32 0 -66 2q-2 -1 -4 -1h-12q-76 0 -99 50zM-221 -764q4 -9 18 -14q50 0 43 -1q133 18 274 196 q170 215 257 510q-293 -162 -444 -356q-83 -113 -124 -223q-27 -68 -27 -97q0 -9 3 -15z" />
<glyph unicode="z" horiz-adv-x="958" d="M-45 394q3 10 22 51q63 137 153 372q11 30 31 50q16 17 30 18q53 4 343 4q300 0 315 -7q31 -15 5 -48q-23 -27 -49 -60q3 4 -246 -294h60q15 0 27 -11q11 -11 11 -27q0 -15 -11 -26q-12 -11 -27 -11h-123q-187 -226 -223 -278q417 0 440 3q50 8 77 49q85 132 170 317 q12 25 15 31q14 17 30 5q8 -7 8 -16q0 -4 -2 -9q-17 -49 -84 -185q-65 -133 -107 -195q-59 -89 -111 -112q-23 -12 -46 -12h-652q-47 6 -47 40q0 22 43 81q74 104 213 281h-48q-15 0 -26 11t-11 26q0 16 11 27t26 11h109q151 188 260 306q-259 0 -328 -1q-17 -1 -32 -21 q-12 -17 -34 -66q-94 -207 -145 -305q-14 -26 -21 -32q-9 -9 -22 1q-7 6 -7 16q0 7 3 16z" />
<glyph unicode="&#xa0;" />
<glyph unicode="&#x2000;" horiz-adv-x="939" />
<glyph unicode="&#x2001;" horiz-adv-x="1879" />
<glyph unicode="&#x2002;" horiz-adv-x="939" />
<glyph unicode="&#x2003;" horiz-adv-x="1879" />
<glyph unicode="&#x2004;" horiz-adv-x="626" />
<glyph unicode="&#x2005;" horiz-adv-x="469" />
<glyph unicode="&#x2006;" horiz-adv-x="313" />
<glyph unicode="&#x2007;" horiz-adv-x="313" />
<glyph unicode="&#x2008;" horiz-adv-x="234" />
<glyph unicode="&#x2009;" horiz-adv-x="375" />
<glyph unicode="&#x200a;" horiz-adv-x="104" />
<glyph unicode="&#x202f;" horiz-adv-x="375" />
<glyph unicode="&#x205f;" horiz-adv-x="469" />
<glyph unicode="&#x25fc;" horiz-adv-x="885" d="M0 0v885h885v-885h-885z" />
</font>
</defs>
</svg>
