<?xml version="1.0" encoding="utf-8"?>
<!-- Generator: Adobe Illustrator 16.0.0, SVG Export Plug-In . SVG Version: 6.00 Build 0)  -->
<!DOCTYPE svg PUBLIC "-//W3C//DTD SVG 1.1//EN" "http://www.w3.org/Graphics/SVG/1.1/DTD/svg11.dtd">
<svg version="1.1" id="Layer_1" xmlns="http://www.w3.org/2000/svg" xmlns:xlink="http://www.w3.org/1999/xlink" x="0px" y="0px"
	 width="24.008px" height="21.435px" viewBox="0 0 24.008 21.435" enable-background="new 0 0 24.008 21.435" xml:space="preserve">
<path fill="#929293" d="M22.307,20.19c-0.147,0.308-0.295,0.736-0.496,1.018c-0.094,0.134-0.188,0.228-0.375,0.228
	c-0.268,0-0.429-0.214-0.429-0.469c0-0.214,0.054-0.455,0.067-0.67c0.04-0.549,0.066-1.099,0.066-1.647
	c0-6.391-3.791-7.502-9.565-7.502H8.574v3.429c0,0.47-0.389,0.857-0.857,0.857c-0.228,0-0.442-0.094-0.603-0.254L0.254,8.32
	C0.094,8.159,0,7.944,0,7.717s0.094-0.442,0.254-0.603l6.859-6.859C7.275,0.094,7.489,0,7.717,0c0.469,0,0.857,0.389,0.857,0.857
	v3.43h3.001c4.395,0,9.86,0.777,11.723,5.399c0.563,1.42,0.71,2.961,0.71,4.461C24.008,16.023,23.07,18.475,22.307,20.19z"/>
<path fill="#929293" d="M-39.2,19.72h-12.861c-0.496,0-0.429-0.522-0.429-0.857v-2.144v-5.573h-2.572
	c-0.469,0-0.857-0.389-0.857-0.857c0-0.201,0.067-0.402,0.201-0.549l4.287-5.145C-51.271,4.408-51.03,4.3-50.775,4.3
	s0.496,0.107,0.656,0.295l4.287,5.145c0.134,0.147,0.201,0.348,0.201,0.549c0,0.469-0.389,0.857-0.857,0.857h-2.572v5.144h7.717
	c0.121,0,0.254,0.054,0.335,0.147l2.144,2.572c0.054,0.081,0.094,0.188,0.094,0.281C-38.771,19.52-38.973,19.72-39.2,19.72z
	 M-30.398,14.268l-4.287,5.145c-0.161,0.188-0.402,0.308-0.656,0.308s-0.496-0.12-0.657-0.308l-4.287-5.145
	c-0.134-0.147-0.201-0.349-0.201-0.55c0-0.469,0.389-0.857,0.857-0.857h2.572V7.717h-7.717c-0.121,0-0.254-0.054-0.335-0.161
	l-2.144-2.572c-0.054-0.067-0.094-0.174-0.094-0.268c0-0.228,0.201-0.429,0.429-0.429h12.861c0.496,0,0.429,0.522,0.429,0.857v2.144
	v5.573h2.572c0.469,0,0.857,0.389,0.857,0.857C-30.197,13.919-30.264,14.121-30.398,14.268z"/>
<path fill="#929293" d="M75.104,8.454l-4.863,4.742l1.152,6.699c0.014,0.094,0.014,0.174,0.014,0.268c0,0.349-0.161,0.67-0.55,0.67
	c-0.188,0-0.375-0.066-0.535-0.16l-6.016-3.162l-6.016,3.162c-0.174,0.094-0.349,0.16-0.536,0.16c-0.388,0-0.563-0.321-0.563-0.67
	c0-0.094,0.014-0.174,0.027-0.268l1.151-6.699l-4.876-4.742c-0.161-0.174-0.335-0.402-0.335-0.643c0-0.402,0.415-0.563,0.75-0.616
	l6.726-0.978l3.015-6.096c0.12-0.254,0.348-0.549,0.656-0.549c0.308,0,0.536,0.295,0.656,0.549l3.015,6.096l6.726,0.978
	c0.321,0.054,0.75,0.214,0.75,0.616C75.453,8.052,75.279,8.279,75.104,8.454z"/>
</svg>
