<?xml version="1.0" encoding="utf-8"?>
<!-- Generator: Adobe Illustrator 16.0.0, SVG Export Plug-In . SVG Version: 6.00 Build 0)  -->
<!DOCTYPE svg PUBLIC "-//W3C//DTD SVG 1.1//EN" "http://www.w3.org/Graphics/SVG/1.1/DTD/svg11.dtd">
<svg version="1.1" id="Layer_1" xmlns="http://www.w3.org/2000/svg" xmlns:xlink="http://www.w3.org/1999/xlink" x="0px" y="0px"
	 width="38.727px" height="36.932px" viewBox="114.411 2.618 38.727 36.932" enable-background="new 114.411 2.618 38.727 36.932"
	 xml:space="preserve">
<path fill="#929293" d="M78.227,15.903c-0.146,0.308-0.295,0.736-0.496,1.018c-0.094,0.135-0.188,0.229-0.375,0.229
	c-0.268,0-0.429-0.214-0.429-0.469c0-0.215,0.054-0.455,0.067-0.671c0.04-0.549,0.065-1.099,0.065-1.646
	c0-6.391-3.791-7.502-9.564-7.502h-3.001v3.429c0,0.47-0.39,0.857-0.857,0.857c-0.228,0-0.442-0.095-0.603-0.254l-6.859-6.859
	C56.014,3.872,55.92,3.657,55.92,3.43c0-0.228,0.094-0.442,0.254-0.604l6.859-6.859c0.16-0.16,0.375-0.254,0.603-0.254
	c0.469,0,0.857,0.39,0.857,0.857V0h3.001c4.395,0,9.859,0.777,11.723,5.399c0.563,1.42,0.71,2.961,0.71,4.461
	C79.928,11.736,78.99,14.188,78.227,15.903z"/>
<path fill="#929293" d="M137.634,28.801h-12.862c-0.496,0-0.429-0.522-0.429-0.857V25.8v-5.573h-2.572
	c-0.468,0-0.856-0.388-0.856-0.857c0-0.201,0.066-0.401,0.201-0.549l4.286-5.145c0.161-0.188,0.402-0.295,0.657-0.295
	s0.495,0.107,0.656,0.295l4.287,5.145c0.134,0.147,0.201,0.348,0.201,0.549c0,0.47-0.39,0.857-0.857,0.857h-2.573v5.144h7.718
	c0.12,0,0.254,0.055,0.335,0.147l2.144,2.572c0.054,0.08,0.094,0.188,0.094,0.28C138.062,28.6,137.861,28.801,137.634,28.801z
	 M146.435,23.348l-4.287,5.145c-0.16,0.188-0.401,0.309-0.655,0.309s-0.496-0.12-0.657-0.309l-4.287-5.145
	c-0.134-0.147-0.201-0.35-0.201-0.55c0-0.47,0.389-0.857,0.857-0.857h2.571v-5.144h-7.717c-0.121,0-0.254-0.055-0.335-0.161
	l-2.142-2.572c-0.055-0.067-0.094-0.175-0.094-0.268c0-0.229,0.2-0.43,0.429-0.43h12.861c0.495,0,0.429,0.522,0.429,0.857v2.144
	v5.573h2.572c0.469,0,0.856,0.389,0.856,0.857C146.637,22.999,146.571,23.2,146.435,23.348z"/>
<path fill="#929293" d="M216.24-9.76l-4.862,4.742l1.151,6.699c0.015,0.094,0.015,0.174,0.015,0.268c0,0.35-0.161,0.67-0.551,0.67
	c-0.188,0-0.375-0.064-0.534-0.16l-6.017-3.16l-6.016,3.16c-0.174,0.096-0.35,0.16-0.536,0.16c-0.388,0-0.563-0.32-0.563-0.67
	c0-0.094,0.015-0.174,0.027-0.268l1.151-6.699L194.63-9.76c-0.161-0.174-0.335-0.4-0.335-0.643c0-0.402,0.415-0.563,0.75-0.615
	l6.726-0.979l3.015-6.096c0.12-0.254,0.349-0.549,0.656-0.549c0.309,0,0.536,0.295,0.656,0.549l3.015,6.096l6.727,0.979
	c0.32,0.053,0.75,0.213,0.75,0.615C216.59-10.161,216.416-9.934,216.24-9.76z"/>
</svg>
