<?xml version="1.0" encoding="utf-8"?>
<!-- Generator: Adobe Illustrator 16.0.0, SVG Export Plug-In . SVG Version: 6.00 Build 0)  -->
<!DOCTYPE svg PUBLIC "-//W3C//DTD SVG 1.1//EN" "http://www.w3.org/Graphics/SVG/1.1/DTD/svg11.dtd">
<svg version="1.1" id="Layer_1" xmlns="http://www.w3.org/2000/svg" xmlns:xlink="http://www.w3.org/1999/xlink" x="0px" y="0px"
	 width="24.972px" height="25.17px" viewBox="0 0 24.972 25.17" enable-background="new 0 0 24.972 25.17" xml:space="preserve">
<g>
	<defs>
		<rect id="SVGID_1_" y="0" width="24.972" height="25.17"/>
	</defs>
	<clipPath id="SVGID_2_">
		<use xlink:href="#SVGID_1_"  overflow="visible"/>
	</clipPath>
	<path clip-path="url(#SVGID_2_)" fill="#20ADE3" d="M22.404,25.17H2.567C1.149,25.17,0,24.02,0,22.602V2.567
		C0,1.149,1.149,0,2.567,0h19.837c1.418,0,2.568,1.149,2.568,2.567v20.035C24.973,24.02,23.822,25.17,22.404,25.17"/>
	<path clip-path="url(#SVGID_2_)" fill="#FFFFFF" d="M20.462,7.861c-0.588,0.249-1.219,0.417-1.881,0.492
		c0.677-0.387,1.195-0.999,1.439-1.729c-0.632,0.358-1.332,0.618-2.078,0.759c-0.597-0.608-1.447-0.987-2.389-0.987
		c-1.808,0-3.272,1.399-3.272,3.125c0,0.245,0.029,0.483,0.085,0.712c-2.72-0.131-5.132-1.375-6.746-3.265
		C5.338,7.429,5.178,7.966,5.178,8.539c0,1.084,0.578,2.04,1.456,2.601c-0.536-0.016-1.041-0.157-1.482-0.391
		C5.15,10.762,5.15,10.775,5.15,10.788c0,1.514,1.128,2.777,2.626,3.064c-0.275,0.072-0.564,0.11-0.863,0.11
		c-0.211,0-0.416-0.021-0.615-0.057c0.416,1.242,1.625,2.146,3.057,2.171c-1.12,0.838-2.531,1.338-4.065,1.338
		c-0.264,0-0.524-0.016-0.78-0.044c1.448,0.887,3.168,1.403,5.016,1.403c6.021,0,9.313-4.761,9.313-8.891
		c0-0.136-0.004-0.27-0.011-0.404C19.468,9.038,20.022,8.488,20.462,7.861"/>
</g>
</svg>
