<?xml version="1.0" encoding="UTF-8"?>
<svg width="251px" height="310px" viewBox="0 0 251 310" version="1.1" xmlns="http://www.w3.org/2000/svg" xmlns:xlink="http://www.w3.org/1999/xlink">
    <!-- Generator: Sketch 46.2 (44496) - http://www.bohemiancoding.com/sketch -->
    <title>Group 12</title>
    <desc>Created with Sketch.</desc>
    <defs></defs>
    <g id="Welcome" stroke="none" stroke-width="1" fill="none" fill-rule="evenodd">
        <g id="Splitwise" transform="translate(-785.000000, -4814.000000)">
            <g id="Group-12" transform="translate(785.000000, 4814.000000)">
                <polygon id="Fill-1021" fill="#727270" points="202.821889 34.5655495 213.454417 34.5655495 213.454417 38.2869481 198.834066 38.2869481 198.834066 18.3542378 202.821889 18.3542378"></polygon>
                <polygon id="Fill-1061" fill="#727270" points="190.372809 201.955559 191.671773 201.955559 191.671773 171.88466 190.372809 171.88466"></polygon>
                <polygon id="Fill-1062" fill="#727270" points="192.271296 201.256236 193.47034 201.256236 193.47034 171.88466 192.271296 171.88466"></polygon>
                <polygon id="Fill-1063" fill="#727270" points="203.562299 204.353239 204.661423 204.353239 204.661423 171.88466 203.562299 171.88466"></polygon>
                <polygon id="Fill-1064" fill="#727270" points="201.663812 201.955559 202.862856 201.955559 202.862856 171.88466 201.663812 171.88466"></polygon>
                <polygon id="Fill-1065" fill="#727270" points="199.765324 201.256236 201.064289 201.256236 201.064289 171.88466 199.765324 171.88466"></polygon>
                <polygon id="Fill-1066" fill="#727270" points="197.766917 204.353239 199.065882 204.353239 199.065882 171.88466 197.766917 171.88466"></polygon>
                <polygon id="Fill-1067" fill="#727270" points="195.96835 201.955559 197.167395 201.955559 197.167395 171.88466 195.96835 171.88466"></polygon>
                <polygon id="Fill-1068" fill="#727270" points="194.169783 201.256236 195.368828 201.256236 195.368828 171.88466 194.169783 171.88466"></polygon>
                <polygon id="Fill-1069" fill="#727270" points="205.360866 204.353239 206.55991 204.353239 206.55991 171.88466 205.360866 171.88466"></polygon>
                <polygon id="Fill-1070" fill="#727270" points="207.259353 201.955559 208.558318 201.955559 208.558318 171.88466 207.259353 171.88466"></polygon>
                <polygon id="Fill-1071" fill="#727270" points="209.257761 201.256236 210.456805 201.256236 210.456805 171.88466 209.257761 171.88466"></polygon>
                <polygon id="Fill-1072" fill="#727270" points="211.056328 204.353239 212.255372 204.353239 212.255372 171.88466 211.056328 171.88466"></polygon>
                <polygon id="Fill-1073" fill="#727270" points="212.854895 201.955559 214.053939 201.955559 214.053939 171.88466 212.854895 171.88466"></polygon>
                <polygon id="Fill-1074" fill="#727270" points="214.853302 201.256236 216.152267 201.256236 216.152267 171.88466 214.853302 171.88466"></polygon>
                <polygon id="Fill-1075" fill="#727270" points="226.044385 204.353239 227.34335 204.353239 227.34335 171.88466 226.044385 171.88466"></polygon>
                <polygon id="Fill-1076" fill="#727270" points="224.245818 201.955559 225.544783 201.955559 225.544783 171.88466 224.245818 171.88466"></polygon>
                <polygon id="Fill-1077" fill="#727270" points="222.347331 201.256236 223.646296 201.256236 223.646296 171.88466 222.347331 171.88466"></polygon>
                <polygon id="Fill-1078" fill="#727270" points="220.448844 204.353239 221.647888 204.353239 221.647888 171.88466 220.448844 171.88466"></polygon>
                <polygon id="Fill-1079" fill="#727270" points="218.650277 201.955559 219.749401 201.955559 219.749401 171.88466 218.650277 171.88466"></polygon>
                <polygon id="Fill-1080" fill="#727270" points="216.651869 201.256236 217.950834 201.256236 217.950834 171.88466 216.651869 171.88466"></polygon>
                <polygon id="Fill-1089" fill="#727270" points="193.286487 121.332581 196.94757 121.332581 196.94757 120.157718 193.286487 120.157718"></polygon>
                <polygon id="Fill-1090" fill="#727270" points="202.734958 121.332581 206.39704 121.332581 206.39704 120.157718 202.734958 120.157718"></polygon>
                <polygon id="Fill-1091" fill="#727270" points="212.184429 121.332581 215.845512 121.332581 215.845512 120.157718 212.184429 120.157718"></polygon>
                <polygon id="Fill-1092" fill="#727270" points="221.633899 121.332581 225.294982 121.332581 225.294982 120.157718 221.633899 120.157718"></polygon>
                <polygon id="Fill-1015" fill="#A6A7A3" points="134.174588 208.174541 144.356475 2.48559459 250.977518 7.76248791 240.795631 213.450435"></polygon>
                <polygon id="Fill-1016" fill="#C6C6C3" points="132.947566 205.908733 136.583668 0 243.318621 1.8841766 239.683517 207.791911"></polygon>
                <polygon id="Fill-1017" fill="#FFFFFE" points="129.121614 213.943957 235.936503 213.943957 235.936503 7.94331292 129.121614 7.94331292"></polygon>
                <path d="M155.666463,35.1769578 L162.178274,35.1769578 C164.047785,35.1509829 165.005022,34.189913 165.048987,32.293748 C165.005022,31.0179826 164.061773,30.3536255 162.218242,30.3006768 L155.666463,30.3006768 L155.666463,35.1769578 Z M155.666463,26.3534966 L161.248016,26.3534966 C162.851738,26.3275218 163.676081,25.4993232 163.720046,23.8689011 C163.676081,22.8948437 162.864727,22.3803416 161.287984,22.3273928 L155.666463,22.3273928 L155.666463,26.3534966 Z M168.903915,32.3337093 C168.726057,36.0900741 166.719656,38.0791492 162.882713,38.2999355 L151.665651,38.2869481 L151.665651,18.3672253 L162.245221,18.3672253 C165.603545,18.5620367 167.375133,20.5161457 167.560985,24.227554 C167.499035,25.9998389 167.020416,27.1826942 166.126129,27.7751209 C167.871738,28.9449887 168.797,30.4645182 168.903915,32.3337093 Z" id="Fill-1018" fill="#727270"></path>
                <polygon id="Fill-1019" fill="#727270" points="172.877749 38.2869481 176.851582 38.2869481 176.851582 18.3402514 172.877749 18.3402514"></polygon>
                <polygon id="Fill-1020" fill="#727270" points="184.879186 34.5655495 195.511714 34.5655495 195.511714 38.2869481 180.892363 38.2869481 180.892363 18.3542378 184.879186 18.3542378"></polygon>
                <polygon id="Fill-1022" fill="#727270" points="134.217554 49.2033838 230.940484 49.2033838 230.940484 45.7067676 134.217554 45.7067676"></polygon>
                <polygon id="Fill-1023" fill="#858783" points="143.010547 69.8833709 172.686901 69.8833709 172.686901 66.9861747 143.010547 66.9861747"></polygon>
                <polygon id="Fill-1024" fill="#858783" points="143.010547 75.6777635 198.066678 75.6777635 198.066678 72.7805672 143.010547 72.7805672"></polygon>
                <polygon id="Fill-1025" fill="#858783" points="143.010547 87.2665485 198.266519 87.2665485 198.266519 84.1695456 143.010547 84.1695456"></polygon>
                <polygon id="Fill-1026" fill="#858783" points="143.010547 81.3722527 213.354496 81.3722527 213.354496 78.3751531 143.010547 78.3751531"></polygon>
                <polygon id="Fill-1027" fill="#858783" points="143.010547 93.5604576 228.042793 93.5604576 228.042793 90.6632614 143.010547 90.6632614"></polygon>
                <path d="M138.876841,70.1051563 C137.863648,70.1051563 137.042303,69.283951 137.042303,68.2709314 C137.042303,67.2569127 137.863648,66.4357074 138.876841,66.4357074 C139.890034,66.4357074 140.711379,67.2569127 140.711379,68.2709314 C140.711379,69.283951 139.890034,70.1051563 138.876841,70.1051563 Z" id="Fill-1028" fill="#AD5150"></path>
                <path d="M138.876841,76.1513052 C137.863648,76.1513052 137.042303,75.3300999 137.042303,74.3170802 C137.042303,73.3040606 137.863648,72.4818563 138.876841,72.4818563 C139.890034,72.4818563 140.711379,73.3040606 140.711379,74.3170802 C140.711379,75.3300999 139.890034,76.1513052 138.876841,76.1513052 Z" id="Fill-1029" fill="#AD5150"></path>
                <path d="M138.876841,81.5800516 C137.863648,81.5800516 137.042303,80.7588463 137.042303,79.7458266 C137.042303,78.732807 137.863648,77.9116017 138.876841,77.9116017 C139.890034,77.9116017 140.711379,78.732807 140.711379,79.7458266 C140.711379,80.7588463 139.890034,81.5800516 138.876841,81.5800516 Z" id="Fill-1030" fill="#AD5150"></path>
                <path d="M138.876841,87.6262005 C137.863648,87.6262005 137.042303,86.8049952 137.042303,85.7919755 C137.042303,84.7789558 137.863648,83.9577506 138.876841,83.9577506 C139.890034,83.9577506 140.711379,84.7789558 140.711379,85.7919755 C140.711379,86.8049952 139.890034,87.6262005 138.876841,87.6262005 Z" id="Fill-1031" fill="#AD5150"></path>
                <path d="M138.876841,94.0429907 C137.863648,94.0429907 137.042303,93.2217854 137.042303,92.2087657 C137.042303,91.1957461 137.863648,90.3745408 138.876841,90.3745408 C139.890034,90.3745408 140.711379,91.1957461 140.711379,92.2087657 C140.711379,93.2217854 139.890034,94.0429907 138.876841,94.0429907 Z" id="Fill-1032" fill="#AD5150"></path>
                <polygon id="Fill-1033" fill="#727270" points="137.714767 204.353239 138.913812 204.353239 138.913812 171.88466 137.714767 171.88466"></polygon>
                <polygon id="Fill-1034" fill="#727270" points="139.613254 201.955559 140.812299 201.955559 140.812299 171.88466 139.613254 171.88466"></polygon>
                <polygon id="Fill-1035" fill="#727270" points="141.411821 201.256236 142.610866 201.256236 142.610866 171.88466 141.411821 171.88466"></polygon>
                <polygon id="Fill-1036" fill="#727270" points="143.410229 204.353239 144.709194 204.353239 144.709194 171.88466 143.410229 171.88466"></polygon>
                <polygon id="Fill-1037" fill="#727270" points="145.208796 201.955559 146.507761 201.955559 146.507761 171.88466 145.208796 171.88466"></polygon>
                <polygon id="Fill-1038" fill="#727270" points="147.107283 201.256236 148.306328 201.256236 148.306328 171.88466 147.107283 171.88466"></polygon>
                <polygon id="Fill-1039" fill="#727270" points="158.498207 204.353239 159.697251 204.353239 159.697251 171.88466 158.498207 171.88466"></polygon>
                <polygon id="Fill-1040" fill="#727270" points="156.499799 201.955559 157.698844 201.955559 157.698844 171.88466 156.499799 171.88466"></polygon>
                <polygon id="Fill-1041" fill="#727270" points="154.601312 201.256236 155.900277 201.256236 155.900277 171.88466 154.601312 171.88466"></polygon>
                <polygon id="Fill-1042" fill="#727270" points="152.802745 204.353239 154.001789 204.353239 154.001789 171.88466 152.802745 171.88466"></polygon>
                <polygon id="Fill-1043" fill="#727270" points="150.904258 201.955559 152.103302 201.955559 152.103302 171.88466 150.904258 171.88466"></polygon>
                <polygon id="Fill-1044" fill="#727270" points="149.00577 201.256236 150.204815 201.256236 150.204815 171.88466 149.00577 171.88466"></polygon>
                <polygon id="Fill-1045" fill="#727270" points="160.296773 204.353239 161.595738 204.353239 161.595738 171.88466 160.296773 171.88466"></polygon>
                <polygon id="Fill-1046" fill="#727270" points="162.09534 201.955559 163.394305 201.955559 163.394305 171.88466 162.09534 171.88466"></polygon>
                <polygon id="Fill-1047" fill="#727270" points="163.993828 201.256236 165.292793 201.256236 165.292793 171.88466 163.993828 171.88466"></polygon>
                <polygon id="Fill-1048" fill="#727270" points="165.992235 204.353239 167.19128 204.353239 167.19128 171.88466 165.992235 171.88466"></polygon>
                <polygon id="Fill-1049" fill="#727270" points="167.890723 201.955559 168.989847 201.955559 168.989847 171.88466 167.890723 171.88466"></polygon>
                <polygon id="Fill-1050" fill="#727270" points="169.689289 201.256236 170.988254 201.256236 170.988254 171.88466 169.689289 171.88466"></polygon>
                <polygon id="Fill-1051" fill="#727270" points="180.880372 204.353239 182.179337 204.353239 182.179337 171.88466 180.880372 171.88466"></polygon>
                <polygon id="Fill-1052" fill="#727270" points="179.081805 201.955559 180.38077 201.955559 180.38077 171.88466 179.081805 171.88466"></polygon>
                <polygon id="Fill-1053" fill="#727270" points="177.183318 201.256236 178.382363 201.256236 178.382363 171.88466 177.183318 171.88466"></polygon>
                <polygon id="Fill-1054" fill="#727270" points="175.384751 204.353239 176.583796 204.353239 176.583796 171.88466 175.384751 171.88466"></polygon>
                <polygon id="Fill-1055" fill="#727270" points="173.386344 201.955559 174.585388 201.955559 174.585388 171.88466 173.386344 171.88466"></polygon>
                <polygon id="Fill-1056" fill="#727270" points="171.487856 201.256236 172.786821 201.256236 172.786821 171.88466 171.487856 171.88466"></polygon>
                <polygon id="Fill-1057" fill="#727270" points="182.9787 204.353239 184.077824 204.353239 184.077824 171.88466 182.9787 171.88466"></polygon>
                <polygon id="Fill-1058" fill="#727270" points="184.777267 201.955559 185.976312 201.955559 185.976312 171.88466 184.777267 171.88466"></polygon>
                <polygon id="Fill-1059" fill="#727270" points="186.575834 201.256236 187.774879 201.256236 187.774879 171.88466 186.575834 171.88466"></polygon>
                <polygon id="Fill-1060" fill="#727270" points="188.474321 204.353239 189.673366 204.353239 189.673366 171.88466 188.474321 171.88466"></polygon>
                <path d="M191.396992,140.423107 C191.42497,140.186336 191.055265,140.189333 191.026288,140.423107 C189.943151,149.312504 191.949552,158.349758 190.093031,167.176217 C190.195949,167.149243 190.298867,167.12127 190.401785,167.094296 C189.218728,165.9534 188.713131,164.267032 188.33743,162.713535 C187.927757,161.015179 187.724918,159.272865 187.501097,157.542539 C187.269281,155.74428 186.974516,153.962005 186.776674,152.157751 C186.564843,150.214631 186.319039,148.203577 185.414759,146.442282 C185.344815,146.306413 185.105006,146.329391 185.076029,146.486239 C184.147769,151.646246 186.071236,157.192878 183.978903,162.160071 C184.081821,162.133097 184.184739,162.106123 184.287657,162.079149 C183.397367,161.212987 182.895766,160.017145 182.508075,158.859265 C182.00048,157.339736 181.714707,155.743281 181.520862,154.155817 C181.18413,151.39349 181.031252,148.377409 181.670742,145.645053 C181.557832,145.65904 181.444922,145.674025 181.332012,145.689011 C183.012673,148.641154 183.805042,152.004898 184.527466,155.294715 C185.080026,157.808282 185.658565,160.291879 186.324035,162.777473 C186.650774,163.993297 186.94454,165.233097 187.027474,166.492878 C187.09542,167.526877 186.934548,168.61882 186.011284,169.247212 C185.142976,169.83864 184.097809,169.09436 183.458318,168.511924 C182.620985,167.748663 181.967506,166.775604 181.430934,165.785562 C181.133171,165.236094 180.869381,164.652659 180.730492,164.04125 C180.617582,164.089204 180.504672,164.136159 180.391762,164.184112 C180.869381,165.309024 181.280054,166.460909 181.307032,167.695714 C181.368983,167.633774 181.430934,167.571834 181.491885,167.510893 C178.947912,167.447954 177.439114,164.608701 176.810615,162.473767 C176.74167,162.237995 176.421925,162.319916 176.453899,162.548695 C176.567809,163.351917 176.50286,164.192104 176.159134,164.891428 C176.266049,164.891428 176.371965,164.891428 176.478879,164.891428 C175.295822,163.093168 175.158931,159.7534 177.196308,158.427683 C177.112375,158.405704 177.027442,158.394715 176.943509,158.372736 C177.671929,159.336803 177.957701,160.87931 178.075607,162.048179 C178.13456,162.628617 178.168533,163.392878 177.778844,163.874412 C177.388155,164.355946 176.539831,164.267032 176.050221,164.034257 C174.852176,163.46281 174.164723,161.961263 173.669118,160.814373 C173.184504,159.696455 172.801809,158.499613 172.577988,157.301772 C172.540018,157.096971 172.187299,157.143925 172.215277,157.350725 C172.546013,159.824331 173.045615,162.554689 172.221272,164.981341 C172.297211,164.938382 172.373151,164.895424 172.44909,164.852465 C170.938294,164.582726 169.528418,163.961328 168.077574,163.484789 C166.715659,163.038221 165.513617,162.982275 164.094747,163.089172 C163.543187,163.130132 162.967645,163.204061 162.416085,163.128134 C161.767602,163.03922 161.123115,162.446793 160.688461,162.002224 C159.626308,160.917274 158.946849,159.466677 158.137494,158.197905 C158.068549,158.09001 157.880699,158.066033 157.817749,158.197905 C157.355117,159.168966 157.180257,160.247921 156.666666,161.201998 C156.376897,161.73748 156.031172,162.031196 155.413664,162.049178 C154.907068,162.063165 154.412462,161.906316 154.016777,161.589623 C152.540953,160.408766 152.769771,157.750338 153.200428,156.14689 C153.708023,154.252723 155.378692,153.168772 157.118306,152.477441 C159.09573,151.690203 161.347936,151.428456 163.444266,151.818079 C164.60634,152.03387 165.737438,152.49942 166.624731,153.291653 C167.590961,154.153819 168.009628,155.316694 168.15751,156.572478 C168.57218,160.085079 166.11214,163.888398 162.630914,164.695617 C162.396101,164.750564 162.49802,165.09523 162.729835,165.052272 C177.69591,162.319916 192.959747,161.570641 207.869867,158.489623 C211.947617,157.647438 215.986399,156.616436 219.949242,155.334676 C220.179059,155.260748 220.083135,154.936062 219.85032,154.978021 C204.25075,157.791299 188.832036,161.717499 173.02663,163.278988 C169.773223,163.599678 166.519815,163.939349 163.264409,164.247051 C159.947052,164.560748 156.603716,164.771544 153.274369,164.532775 C153.036559,164.515791 153.037558,164.885433 153.274369,164.902417 C156.984413,165.169159 160.707446,164.875443 164.400504,164.5068 C168.147518,164.133161 171.903525,163.794489 175.645543,163.370899 C183.434337,162.487754 191.148191,161.060135 198.83007,159.521624 C205.866463,158.111988 212.884871,156.608443 219.949242,155.334676 C219.916268,155.215791 219.883294,155.096906 219.85032,154.978021 C205.263943,159.695456 189.887195,160.862327 174.772239,162.837415 C170.712474,163.366903 166.659703,163.960329 162.630914,164.695617 C162.663887,164.814502 162.696861,164.933387 162.729835,165.052272 C165.332761,164.448856 167.25323,162.330906 168.124536,159.872285 C168.844962,157.84125 168.770022,155.332678 167.408107,153.585369 C166.256025,152.108798 164.321566,151.492394 162.525997,151.318563 C160.492617,151.121753 158.385297,151.513374 156.520782,152.328585 C155.213824,152.900032 153.777968,153.809152 153.162458,155.149855 C152.515973,156.558492 152.380082,158.294811 152.674847,159.80535 C152.962617,161.28292 153.941837,162.417821 155.533569,162.371866 C157.348123,162.320915 157.545965,159.596552 158.137494,158.297809 C158.030579,158.297809 157.923664,158.297809 157.817749,158.297809 C158.623107,159.596552 159.314556,160.96223 160.308764,162.094135 C161.107128,163.002256 162.065364,163.541734 163.273402,163.491782 C163.958855,163.463809 164.642311,163.397873 165.328764,163.374895 C166.108143,163.347921 166.815579,163.490783 167.562984,163.707573 C169.171702,164.174122 170.69249,164.910409 172.351168,165.206123 C172.455086,165.225105 172.544015,165.181147 172.577988,165.079246 C173.414321,162.616629 172.920715,159.860296 172.584982,157.350725 C172.464078,157.36671 172.342176,157.383693 172.221272,157.399678 C172.47507,158.76136 172.937701,160.103062 173.509246,161.362842 C174.070798,162.601644 174.932112,164.165131 176.354978,164.538769 C176.891551,164.679633 177.560018,164.565743 177.982681,164.199098 C178.453306,163.790493 178.481284,163.003255 178.470293,162.434805 C178.453306,161.58263 178.250468,160.725459 178.005663,159.913245 C177.831801,159.338801 177.628963,158.683435 177.262255,158.197905 C177.204301,158.119981 177.101383,158.071028 177.009457,158.13097 C174.800217,159.568579 174.860169,163.102159 176.159134,165.124202 C176.228079,165.231099 176.416929,165.258073 176.478879,165.124202 C176.868569,164.283016 176.939512,163.383887 176.810615,162.473767 C176.69171,162.506735 176.572805,162.539704 176.453899,162.571673 C177.132359,164.87844 178.764059,167.8136 181.491885,167.880535 C181.591805,167.883532 181.679735,167.794618 181.677737,167.695714 C181.64876,166.392975 181.215105,165.184144 180.711507,163.997293 C180.626574,163.796487 180.328812,163.945343 180.372777,164.140155 C180.793441,165.98437 182.107395,167.918498 183.56923,169.093361 C184.174747,169.57989 184.927148,169.950532 185.717518,169.7767 C186.485906,169.607863 187.064445,168.79465 187.278274,168.08234 C187.568043,167.114277 187.383191,166.001354 187.216324,165.028295 C187.011487,163.825459 186.679751,162.6466 186.348016,161.473735 C185.593617,158.81331 185.111001,156.088946 184.476507,153.399549 C183.835018,150.678182 183.042649,147.944828 181.651758,145.502191 C181.574819,145.366323 181.350997,145.389301 181.314027,145.546149 C180.641562,148.419368 180.822418,151.571318 181.190125,154.471511 C181.387968,156.034998 181.694723,157.592491 182.195324,159.089043 C182.588012,160.261908 183.126582,161.466742 184.025866,162.340896 C184.135778,162.446793 184.282661,162.383854 184.335619,162.258975 C186.432948,157.279794 184.504484,151.750145 185.432745,146.585143 C185.320834,146.600129 185.207924,146.614115 185.095014,146.629101 C186.057247,148.503287 186.249094,150.68118 186.469918,152.743184 C186.662765,154.54544 186.974516,156.32272 187.204333,158.118982 C187.427156,159.855301 187.661969,161.593619 188.100619,163.289977 C188.47632,164.746568 189.033875,166.290074 190.139994,167.356043 C190.234918,167.447954 190.419771,167.410989 190.449747,167.270126 C192.314262,158.408701 190.308859,149.406413 191.396992,140.415114 C191.273091,140.415114 191.150189,140.415114 191.026288,140.415114 C189.925165,149.60622 189.152781,158.780342 189.145786,168.005414 C189.144787,168.244183 189.515492,168.248179 189.515492,168.00941 C189.522486,158.784338 190.294871,149.576249 191.396992,140.423107 Z" id="Fill-1081" fill="#727270"></path>
                <polygon id="Fill-1082" fill="#727270" points="134.217554 136.618788 230.940484 136.618788 230.940484 133.222075 134.217554 133.222075"></polygon>
                <polygon id="Fill-1083" fill="#727270" points="136.590663 121.332581 140.251746 121.332581 140.251746 120.157718 136.590663 120.157718"></polygon>
                <polygon id="Fill-1084" fill="#727270" points="146.040133 121.332581 149.702215 121.332581 149.702215 120.157718 146.040133 120.157718"></polygon>
                <polygon id="Fill-1085" fill="#727270" points="155.488605 121.332581 159.149687 121.332581 159.149687 120.157718 155.488605 120.157718"></polygon>
                <polygon id="Fill-1086" fill="#727270" points="164.936077 121.332581 168.598159 121.332581 168.598159 120.157718 164.936077 120.157718"></polygon>
                <polygon id="Fill-1087" fill="#727270" points="174.386547 121.332581 178.047629 121.332581 178.047629 120.157718 174.386547 120.157718"></polygon>
                <polygon id="Fill-1088" fill="#727270" points="183.836017 121.332581 187.4971 121.332581 187.4971 120.157718 183.836017 120.157718"></polygon>
                <polygon id="Fill-1093" fill="#858783" points="143.010547 106.048373 198.266519 106.048373 198.266519 103.051273 143.010547 103.051273"></polygon>
                <polygon id="Fill-1094" fill="#858783" points="143.010547 100.25398 213.354496 100.25398 213.354496 97.2568804 143.010547 97.2568804"></polygon>
                <polygon id="Fill-1095" fill="#858783" points="143.010547 112.442185 228.042793 112.442185 228.042793 109.544989 143.010547 109.544989"></polygon>
                <path d="M138.876841,100.458782 C137.863648,100.458782 137.042303,99.6375765 137.042303,98.6245569 C137.042303,97.6115372 137.863648,96.7903319 138.876841,96.7903319 C139.890034,96.7903319 140.711379,97.6115372 140.711379,98.6245569 C140.711379,99.6375765 139.890034,100.458782 138.876841,100.458782 Z" id="Fill-1096" fill="#AD5150"></path>
                <path d="M138.876841,106.504931 C137.863648,106.504931 137.042303,105.683725 137.042303,104.670706 C137.042303,103.657686 137.863648,102.836481 138.876841,102.836481 C139.890034,102.836481 140.711379,103.657686 140.711379,104.670706 C140.711379,105.683725 139.890034,106.504931 138.876841,106.504931 Z" id="Fill-1097" fill="#AD5150"></path>
                <path d="M138.876841,112.921721 C137.863648,112.921721 137.042303,112.100516 137.042303,111.087496 C137.042303,110.074476 137.863648,109.253271 138.876841,109.253271 C139.890034,109.253271 140.711379,110.074476 140.711379,111.087496 C140.711379,112.100516 139.890034,112.921721 138.876841,112.921721 Z" id="Fill-1098" fill="#AD5150"></path>
                <path d="M156.905476,107.031421 L142.445997,160.660522 C142.445997,160.660522 134.42339,165.174154 128.119413,163.199065 C126.908378,162.820432 127.23212,160.509668 128.530086,157.040026 L128.530086,119.099742 C116.498672,129.227941 99.5182026,143.615018 96.9758284,150.492362 C94.9384518,156.01302 94.2031377,167.346052 93.7840717,182.178698 C93.467324,193.378859 93.3265362,206.572092 92.9426421,220.775346 C92.7767743,226.954367 90.0190717,234.464099 85.6514518,242.588237 C94.8871927,251.089011 106.220862,272.919884 118.166344,283.913245 C122.426949,287.832452 128.354226,288.887432 133.518111,287.173091 C154.191638,272.384402 156.25999,261.093329 162.24622,250.14892 C168.50923,238.705994 179.663342,209.681083 177.428123,181.508347 C175.24786,154.04892 177.690914,160.918273 182.368187,130.3029 C182.491089,129.508669 182.613991,128.709442 182.737892,127.86426 C187.658971,94.4106349 174.13075,95.3996777 174.13075,95.3996777 C160.488621,92.0998711 156.905476,107.031421 156.905476,107.031421 Z" id="Fill-1099" fill="#E0BA8D"></path>
                <path d="M139.522327,292.250277 C142.503951,294.96455 142.686805,299.544119 139.928004,302.479278 L133.190372,309.616371 C119.794047,306.371511 108.963676,304.345472 105.982052,301.6301 L81.2927249,298.304318 L111.202892,266.474122 L139.522327,292.250277 Z" id="Fill-1100" fill="#2E1815"></path>
                <path d="M111.202892,266.474122 L81.2927249,298.304318 L52.9730904,272.529262 C49.990467,269.81389 49.8114096,265.235321 52.5681131,262.300261 L72.4928368,241.096681 C75.2499399,238.16252 79.9024327,237.981695 82.8850561,240.697067 L111.202892,266.474122 Z" id="Fill-1101" fill="#7A2A39"></path>
                <path d="M100.692267,278.375604 L70.6699893,309.951047 L100.692267,278.375604 Z" id="Fill-1102" fill="#778B97"></path>
                <path d="M100.692267,278.374605 L70.6724873,309.951047 L134.980945,309.951047 C134.562279,309.351627 134.050687,308.73922 133.449166,308.19175 L100.692267,278.374605 Z" id="Fill-1103" fill="#C9642D"></path>
                <path d="M59.3463121,247.345633 L0,309.951047 L70.6699893,309.951047 L100.692267,278.374605 L67.9323706,248.555462 C65.0387763,245.921012 61.1947393,245.378637 59.3463121,247.345633 Z" id="Fill-1104" fill="#E79D32"></path>
            </g>
        </g>
    </g>
</svg>