<?xml version="1.0" encoding="UTF-8"?>
<svg width="173px" height="199px" viewBox="0 0 173 199" version="1.1" xmlns="http://www.w3.org/2000/svg" xmlns:xlink="http://www.w3.org/1999/xlink">
    <!-- Generator: Sketch 46.2 (44496) - http://www.bohemiancoding.com/sketch -->
    <title>15039-NPZF9G</title>
    <desc>Created with Sketch.</desc>
    <defs>
        <polygon id="path-1" points="172.849323 44.9419433 172.849323 0.265967403 0 0.265967403 0 44.9419433 172.849323 44.9419433"></polygon>
        <path d="M26.8641196,18.2532285 C24.3903694,15.5505294 20.800169,13.5000326 20.1525652,11.9734839 C19.2941413,9.95022581 19.4599565,3.10616129 14.1700109,0.711290323 C13.554,0.432580645 13.1310978,1.107 12.3571957,0.963290323 C11.9718663,0.891854849 11.4546604,0.480666811 10.9795158,0.279384056 L10.0982346,0.279384056 C8.09314606,1.02979626 6.18035536,3.31240017 5.3418913,6.25616129 C4.22520652,10.1769677 2.23630435,17.2495161 0.626282609,20.9749355 C-0.98373913,24.7003548 1.20766304,29.0999032 4.79836957,32.4551613 C8.38936957,35.810129 11.4306848,35.7834194 12.8989565,35.7323226 C14.3675217,35.6815161 14.6181522,33.8156129 16.7887174,34.1097097 C18.9592826,34.4038065 21.8045543,35.8098387 24.0916304,33.5128065 C24.942676,32.6580561 25.9579758,31.5702266 26.8641196,30.3026162 L26.8641196,18.2532285 L26.8641196,18.2532285 Z" id="path-3"></path>
        <path d="M30.6125079,0.224383838 C34.5985238,1.55984848 38.7486905,8.52043434 36.018619,15.8020707 C33.2885476,23.0834141 23.9859841,29.2917576 20.8809206,28.7808889 C17.7758571,28.2697273 16.8411667,26.2584747 16.0136587,26.3630505 C15.1858571,26.4676263 13.6876508,27.6572121 9.75361111,26.4764141 C6.82043447,25.5962426 2.47195545,21.0746373 0.271626984,15.1091537 L0.271626984,1.79967631 C0.53974849,1.24733602 0.840756532,0.721707717 1.16897337,0.224101862 L30.6116661,0.224101862 L30.6125079,0.224383838 Z" id="path-5"></path>
        <path d="M94.8038426,0.172242424 C93.9725926,0.663191919 82.3773148,10.1992121 82.3773148,10.1992121 C81.075463,9.11449495 75.0054321,2.01066667 75.0054321,2.01066667 C74.4794136,2.75558586 68.1668981,10.0952222 68.1668981,10.0952222 C66.2202778,9.33360606 57.938858,2.97879798 57.938858,2.97879798 C55.7805401,3.75330303 45.4847685,13.5043333 45.4847685,13.5043333 C44.1119599,12.7503333 37.251142,5.20769697 37.251142,5.20769697 C35.6358488,6.64510101 30.0238117,13.5043333 30.0238117,13.5043333 C25.2459568,11.9714343 16.1467747,4.28438384 16.1467747,4.28438384 L9.09595679,15.2674747 L0.00791666667,8.31655556 C0.00791666667,8.31655556 1.94156037,53.5109828 0.00791666689,68.1150356 L0.00791666667,86.8266136 L93.8435324,86.8266136 C92.3429478,77.0880927 91.3861522,68.5695376 91.3665432,67.7940909 C91.3240278,66.1243939 93.2891204,45.0440303 94.0596759,38.1563838 C94.7561396,31.9310111 94.8015492,5.92851319 94.8038426,0.985589903 L94.8038426,0.172242424 Z" id="path-7"></path>
    </defs>
    <g id="Welcome" stroke="none" stroke-width="1" fill="none" fill-rule="evenodd">
        <g id="Splitwise" transform="translate(-409.000000, -4481.000000)">
            <g id="15039-NPZF9G" transform="translate(409.000000, 4481.000000)">
                <g id="Group-34" transform="translate(0.000000, 165.000000)">
                    <mask id="mask-2" fill="white">
                        <use xlink:href="#path-1"></use>
                    </mask>
                    <g id="Clip-32"></g>
                    <path d="M28.1749151,4.84519737 C28.1749151,4.84519737 6.35341766,16.2355263 0.23233107,20.0321053 C-5.88875552,23.8289803 110.774044,33.0217105 129.609603,33.7955921 C135.877548,34.0528618 169.972353,4.84519737 172.797628,1.99746711 C175.62261,-0.849967105 62.0056672,-0.375394737 28.1749151,4.84519737" id="Fill-33" fill="#D0D1CB" mask="url(#mask-2)"></path>
                </g>
                <path d="M18.5347108,177.61405 C18.5347108,177.61405 11.4197464,183.561504 11.0012191,184.587096 C10.5826918,185.612688 118.060506,193.201147 124.904676,192.995913 C130.804002,190.739784 162,169 162,169 L18.5347108,177.61405" id="Fill-35" fill="#8C8F8B"></path>
                <polyline id="Fill-36" fill="#604730" points="24 84.0056454 32.2021014 88.5868933 37.7410844 80 43 89.1592946 33.5001457 95 24 84.0056454"></polyline>
                <path d="M153,73.1071243 L140.582232,80.7398037 L134.060969,72 L124,91.5104392 C124,91.5104392 138.687311,96.7264489 153,73.1071243" id="Fill-37" fill="#604730"></path>
                <path d="M59.36743,120.7924 C49.2626197,123.382517 39.9601309,101.139551 35.1083061,87.3406551 C30.2567773,73.5417591 16.5450728,28.172599 22.4514619,20.227949 C28.3581471,12.2830056 43.3352104,27.1273971 45.866816,40.5081537 C45.866816,40.5081537 52.8280655,47.8257412 53.4607449,59.742863 C53.4607449,59.742863 60.0001094,64.7605367 59.36743,77.0960913 C59.36743,77.0960913 64.8519342,85.6680973 63.1643945,94.6582427 C63.1643945,94.6582427 71.6020932,117.656501 59.36743,120.7924" id="Fill-38" fill="#E5985A"></path>
                <path d="M47,41.0633314 C47,41.0633314 42.6626873,38.1974228 37.457912,39.2208179 C32.2528324,40.2445004 29,47 29,47 C29,47 37.457912,40.039649 47,41.0633314" id="Fill-39" fill="#EFC57C"></path>
                <path d="M53,59.9684677 C53,59.9684677 49.3921018,57.2340895 43.2306538,58.2107902 C37.0689155,59.1872168 35,67 35,67 C35,67 42.2413493,58.9920411 53,59.9684677" id="Fill-40" fill="#EFC57C"></path>
                <path d="M59,77.788571 C59,77.788571 46.4417717,70.9558539 41,84 C41,84 46.6512174,78.6167616 59,77.788571" id="Fill-41" fill="#EFC57C"></path>
                <path d="M63,94.6939137 C63,94.6939137 52.1313731,91.1712068 50,100 C50,100 54.0491901,95.7333675 63,94.6939137" id="Fill-42" fill="#EFC57C"></path>
                <path d="M27.9557541,41.6216962 C25.530869,44.8966231 22.6407072,25.9254795 24.7051912,22.5526213 C26.7693856,19.1797632 33.2705114,21.7088151 36.5222332,26.241463 C39.7739549,30.774111 43.6960691,36.9502877 41.2190358,37.5514848 C38.7417129,38.1523861 33.0961051,34.6795257 27.9557541,41.6216962" id="Fill-43" fill="#EFA167"></path>
                <path d="M32.9520496,62.9888497 C30.6728867,63.4450512 29.5114597,49.768665 34.5113246,46.538677 C39.5114788,43.3083963 43.7532623,43.0026038 46.6918403,46.538677 C49.8997976,50.3992706 50.7461289,55.8183817 49.3549628,56.0267302 C47.964086,56.2353714 43.4581314,56.3301817 40.5568788,57.2209304 C37.6559155,58.111679 35.6701474,62.4445684 32.9520496,62.9888497" id="Fill-44" fill="#EFA167"></path>
                <path d="M40.063582,79.9853323 C37.2614828,80.320486 34.7490166,74.8520356 36.6804822,69.7280567 C38.6119478,64.6040778 49.6136705,60.0234498 53.3410348,62.8793903 C57.0686882,65.7353308 57.7089451,71.5546589 56.3341995,73.4732755 C54.9597429,75.3918922 48.954047,72.5918592 46.4991028,73.4732755 C44.0438695,74.3546919 43.2917484,79.5995125 40.063582,79.9853323" id="Fill-45" fill="#EFA167"></path>
                <path d="M47.6661527,96.99956 C45.5376821,97.088255 41.6397384,83.7421715 50.8361962,80.8911744 C60.032654,78.0401773 61.6985702,82.5935854 61.9621151,86.609187 C62.2256601,90.6247887 61.1162499,93.2992856 58.5696494,92.4903511 C56.023349,91.6814166 51.9275964,96.8224665 47.6661527,96.99956" id="Fill-46" fill="#EFA167"></path>
                <path d="M62.7592532,116.660711 C59.2655521,119.084043 48.389667,107.852401 49.0268642,104.330648 C49.6643595,100.808894 57.8787463,95.6421236 62.0147135,97.3295882 C66.1506806,99.0170529 65.5901141,114.697623 62.7592532,116.660711" id="Fill-47" fill="#EFA167"></path>
                <path d="M34.341085,34.9802763 C30.381766,35.345542 30.0234325,30.522572 32.8312654,30.0340157 C35.6390983,29.5451883 39.7802457,34.4784425 34.341085,34.9802763" id="Fill-48" fill="#F2AF71"></path>
                <path d="M29.7461767,27.3277817 C27.204125,28.4310369 31.8453404,33.3218644 33.4168015,31.658111 C34.9882625,29.994057 33.2570273,25.8041528 29.7461767,27.3277817" id="Fill-49" fill="#F2AF71"></path>
                <path d="M35.4624504,29.998617 C33.3139085,30.066864 33.721759,27.5844679 35.4624504,28.0607604 C37.2031418,28.537412 37.8002643,29.9242636 35.4624504,29.998617" id="Fill-50" fill="#F2AF71"></path>
                <path d="M30.4244826,33.1080904 C30.1743725,32.9639699 29.8256275,32.9639699 29.5759577,33.1080904 C29.2324967,33.2600721 29,33.6413364 29,34.0081887 C29,34.548859 29.4548657,35 30,35 C30.5451343,35 31,34.548859 31,34.0081887 C31,33.6413364 30.7675033,33.2600721 30.4244826,33.1080904" id="Fill-51" fill="#F2AF71"></path>
                <path d="M42.9577389,47.4920139 C42.563413,45.9392526 40.3643448,44.127445 38.9344335,45.4675699 C38.5300648,45.8464327 38.4473598,46.425192 38.3977367,46.9499579 C38.3673131,47.2687608 38.4511997,47.5569271 38.5974104,47.8123335 C38.4901892,47.8563167 38.3873986,47.9163767 38.2931739,47.9982765 C37.8533603,48.381386 37.9821439,49.1042284 38.201903,49.5649911 C38.3283236,49.8304075 38.658553,50.0087672 38.9397502,49.9996672 C39.0673523,49.9954206 39.1934775,49.9699406 39.3184212,49.944764 C39.7868863,49.8507308 39.9800616,49.3235381 39.8988335,48.895232 C39.897652,48.889772 39.8946982,48.8846154 39.8935167,48.8791554 C40.5203029,49.3447714 41.4138128,49.2862282 42.1052861,49.0335518 C42.7379798,48.8024122 43.1346686,48.189983 42.9577389,47.4920139" id="Fill-52" fill="#F2AF71"></path>
                <path d="M38.1165827,55.0056608 C37.6240827,54.9671608 38.9010827,55.1426608 38.1165827,55.0056608" id="Fill-53" fill="#F2AF71"></path>
                <path d="M40.9014552,52.6692109 C40.8954636,52.6512584 40.8866339,52.6335779 40.8800116,52.6156254 C40.9080775,52.4186921 40.896725,52.2146866 40.8399626,52.010137 C40.5712869,51.0415187 39.2931855,50.4773754 38.3149791,50.1547746 C37.5780132,49.9116 36.5572349,49.9132321 35.9949712,50.4648631 C35.6288533,50.6811089 35.3229667,51.0042537 35.1249288,51.4245051 C34.6402405,52.453237 35.6619648,53.6633979 36.5424136,54.2607261 C36.9230374,54.5185891 37.3478099,54.7769961 37.8239838,54.8874311 C37.9520147,54.9219761 38.0850911,54.9426486 38.2216364,54.9538009 C38.2235285,54.9540729 38.2251052,54.9543449 38.2269973,54.9546169 C38.2865979,54.9586971 38.382148,54.9663133 38.5410829,54.9810017 C38.6486162,54.9910659 38.7545728,54.9975941 38.8630522,54.9994982 C39.1339353,55.0046663 39.4287847,54.9701214 39.6835851,54.8863431 C40.7718476,54.5289254 41.2152255,53.6171566 40.9014552,52.6692109" id="Fill-54" fill="#F2AF71"></path>
                <path d="M42.9749698,50.9710443 C42.9779654,50.9435493 42.9850799,50.9163896 42.9865777,50.8885592 C43.0135382,50.4043783 42.5151439,50 41.9942826,50 C41.4790381,50 40.967538,50.4047136 41.0016131,50.8885592 C41.0267013,51.2433123 41.1697416,51.7191106 41.5681574,51.8901163 C41.9905381,52.0711812 42.3443943,52.0272562 42.7121052,51.7673946 C42.9738464,51.582306 43.0442432,51.250689 42.9749698,50.9710443" id="Fill-55" fill="#F2AF71"></path>
                <path d="M52.6234959,66.3382125 C52.308714,65.8516708 51.8578473,65.5511931 51.3649181,65.3234984 C50.1030412,63.7678678 47.1490396,63.2034454 46.7674524,65.7652941 C46.741885,65.9369147 46.7306133,66.109385 46.7295136,66.2810056 C46.6657325,66.1932129 46.5972777,66.109385 46.5279982,66.0320707 C46.2662756,65.7395227 45.7692226,65.6707045 45.4439937,65.8879207 C45.3799377,65.9304011 45.3191806,65.9779791 45.2622725,66.0312211 C45.2185604,66.0892776 45.1748483,66.1476173 45.1311362,66.205957 C45.128387,66.210205 45.1259128,66.2144531 45.1231636,66.2184179 C45.0822007,66.2835544 45.0547088,66.3554878 45.0343648,66.4296869 C45.0288665,66.4475286 45.0233681,66.4653704 45.0192443,66.4832121 C45.017045,66.494257 45.0151205,66.5053019 45.0131961,66.5163468 C45.0063231,66.5548623 45.0021993,66.5933778 45.0010997,66.6318934 C45.0008248,66.6409558 45.0002749,66.6494519 45,66.6582312 C45.0002749,66.6757897 45.0016495,66.6933483 45.0030241,66.7106236 C45.0076977,66.8241878 45.0316157,66.9360527 45.0736782,67.0405544 C45.0882489,67.1974485 45.1514802,67.3475458 45.2751936,67.4747036 C45.3301774,67.5313441 45.3881852,67.5715588 45.4503169,67.6041271 C45.6094948,67.829273 45.8857881,67.9725734 46.1494351,67.9725734 C46.5007813,67.9725734 46.7630537,67.7647028 46.9117847,67.4653579 C47.2020989,68.3616935 47.8220406,69.1362519 48.6731889,69.554825 C49.8756834,70.1461516 51.8408024,70.3276843 52.6408158,68.9555688 C53.1112017,68.1487253 53.13402,67.1269311 52.6234959,66.3382125" id="Fill-56" fill="#F2AF71"></path>
                <path d="M45.9631149,70.9536607 C45.8584527,70.373019 45.3021066,69.8681917 44.8192402,69.5679428 C44.4407273,69.3329785 43.9859561,69.1912778 43.547548,69.209028 C43.4561615,69.1500613 43.358909,69.1013235 43.2579517,69.0670266 C42.6605435,68.8636515 41.9822459,69.150663 41.5540261,69.557413 C41.0970937,69.9918413 40.8615266,70.707264 41.0859792,71.3065584 C41.3947173,72.1299865 42.1681062,72.5379399 42.9856447,72.7879468 C43.7256899,73.0138856 44.5040186,73.1309164 45.2190561,72.7662855 C45.9124818,72.4124852 46.0872276,71.6420068 45.9631149,70.9536607" id="Fill-57" fill="#F2AF71"></path>
                <path d="M52.8046458,83.0119743 C51.8868381,82.8957382 50.9734529,83.6445432 50.4572045,84.4416778 C50.219571,83.8265444 49.7817476,83.3267293 49.0909595,83.2022344 C48.2548199,83.0520452 47.6398032,83.451836 47.1745605,84.04984 C47.0616404,84.1666878 46.9549117,84.2969945 46.8570279,84.4435131 C46.6630294,84.7344092 46.5162038,85.0763879 46.4103596,85.4446727 C46.3478555,85.5976148 46.289479,85.7493335 46.2361147,85.8955462 C45.9129803,86.7804697 45.8360295,88.1462434 46.5621973,88.7466944 C46.6709898,89.0140373 46.8027791,89.2621096 46.9625773,89.4765345 C47.6165116,90.353505 48.8253171,90.0099968 49.4426924,89.3144158 C49.7746716,88.9403192 50.0182017,88.5206459 50.2001122,88.0737488 C51.03065,90.0145851 53.5113548,89.0076138 54.4459678,87.6091104 C55.5813605,85.9108404 54.9412832,83.2820702 52.8046458,83.0119743" id="Fill-58" fill="#F2AF71"></path>
                <path d="M55.4999146,86 C54.9768603,86 54.8205929,86.6635202 55.2418917,86.9242968 C55.404389,87.0252344 55.5954401,87.0252344 55.7581969,86.9242968 C56.1794958,86.6635202 56.0229688,86 55.4999146,86" id="Fill-59" fill="#F2AF71"></path>
                <g id="Group-63" transform="translate(54.000000, 0.000000)">
                    <path d="M6.79780328,102.858235 C6.76032787,102.668235 6.69363934,102.483824 6.6142623,102.303235 C6.5602623,101.985294 6.4555082,101.670588 6.32803279,101.388235 C6.10377049,100.890588 5.70009836,100.434412 5.21616393,100.065588 C4.87091803,99.6014706 4.39613115,99.2347059 3.82839344,99.0285294 C2.83632787,98.6682353 1.40281967,99.2008824 0.884655738,100.115294 C0.495147541,100.802647 0.67042623,101.523235 1.04577049,102.139118 C0.98557377,102.133235 0.922721311,102.132941 0.856918033,102.14 C0.491016393,102.177941 0.182065574,102.417353 0.182065574,102.812647 C0.182065574,103.208235 0.491016393,103.447647 0.856918033,103.485588 C1.0684918,103.507647 1.24908197,103.462059 1.41167213,103.339706 C1.44059016,103.320882 1.46537705,103.299706 1.49016393,103.277353 C1.49370492,103.273824 1.49783607,103.271765 1.50167213,103.267941 C1.49960656,103.269118 1.49783607,103.270294 1.49577049,103.271471 C1.59757377,103.176765 1.66013115,103.058235 1.68403279,102.930588 C2.11278689,103.348529 2.69940984,103.765882 3.33265574,104.053824 C3.80980328,104.392647 4.33032787,104.649118 4.8535082,104.758824 C6.14360656,105.029706 7.0477377,104.128529 6.79780328,102.858235" id="Fill-60" fill="#F2AF71"></path>
                    <path d="M22.6277705,6.88558824 L23.7316721,0.127058824 C23.7316721,0.127058824 31.4583934,-0.658823529 35.8737049,2.79882353 L33.0353115,9.24294118 L22.6277705,6.88558824" id="Fill-62" fill="#EA8D5A"></path>
                </g>
                <path d="M76.6481848,5.0041764 C73.9970857,4.87026118 73.8424942,7.99239882 76.6481848,9.25061323 C76.6481848,9.25061323 74.3103523,24.9787348 71.66042,27.65233 C69.0104876,30.3262196 62.152165,32.7737777 58.2555831,39.4924955 C54.3587095,46.2115076 44.9026657,96.226634 44.0191605,100.315904 C43.1359469,104.405175 73.0631194,117.459407 76.6481848,107.07877 C80.2332502,96.6984276 88.4945639,51.2443652 88.0267057,46.368674 C87.5591392,41.4929828 82.2595661,32.5280212 81.7919996,29.5397988 C81.3244331,26.5515764 84.9094985,12.3962964 85.377065,11.138082 C88.3385139,11.767042 90.247282,8.93598605 88.0459567,7.36343878 C85.8446315,5.79059719 79.7656837,5.16134283 76.6481848,5.0041764" id="Fill-64" fill="#C75856"></path>
                <path d="M77.3362098,6.00624712 C74.7783514,5.87643918 74.6291164,7.79912728 77.3362098,9.0212646 C77.3362098,9.0212646 75.8687809,26.2527533 73.3120816,28.8495007 C70.7553823,31.4465425 63.2524856,34.0853819 59.4926337,40.611395 C55.7327818,47.1374082 46.8725713,94.4513714 46.0203382,98.4233176 C45.1681051,102.395264 71.3639132,114.08416 74.822977,104.001821 C78.2820407,93.9191882 86.3462348,51.8140261 85.8950526,47.078244 C85.4438703,42.3424619 79.9972286,32.7587507 79.5460464,29.8564689 C79.0948642,26.9538927 83.3913824,11.9473887 83.8425646,10.7252513 C86.7000521,11.33632 88.097355,9.80747095 85.973582,8.2797993 C83.849809,6.752422 80.3440913,6.15901428 77.3362098,6.00624712" id="Fill-65" fill="#56181F"></path>
                <path d="M60.2791885,45 C60.2791885,45 74.4466146,49.0163421 84,49.4798107 C84,49.4798107 78.7883965,79.8465354 77.8488249,83.5525501 C77.0135851,85.4052685 55.1924313,81.0820663 53,78.3026998 C53,78.3026998 58.8575224,48.8603116 60.2791885,45" id="Fill-66" fill="#F6C69D"></path>
                <path d="M60.8097118,46 C60.8097118,46 74.0632467,49.8103657 83,50.2497969 C83,50.2497969 78.1248186,79.0597641 77.2458612,82.5755078 C76.4643368,84.3332325 56.0510967,80.2314824 54,77.5946011 C54,77.5946011 59.4797958,49.6620246 60.8097118,46" id="Fill-67" fill="#FADBC2"></path>
                <path d="M66.2190265,69.8782356 C66.2208108,69.8738862 66.2222977,69.8692469 66.224082,69.8648975 C66.2389509,69.8733063 66.2538199,69.8814251 66.2692836,69.8895439 C66.2526304,69.8851946 66.2359771,69.882005 66.2190265,69.8782356 Z M76.1425649,60.4615488 C76.0821969,60.45285 76.0227211,60.4502404 75.9635427,60.4499504 C76.199959,60.2124746 76.4033663,59.8816321 76.5517584,59.4319067 C76.8420004,58.5515932 75.6854933,57.2250339 74.3422322,57.0319216 C74.0671566,56.9921973 73.8021919,57.0307618 73.5577463,57.1220986 C73.6778874,56.5578397 73.3596919,55.9057234 72.4913451,55.7908999 C71.5730387,55.6694074 70.7481092,56.5050673 70.9842282,57.1954581 C70.8034217,57.1537041 70.6267786,57.1400761 70.4608411,57.1597932 C70.7418643,56.5291339 71.4380286,55.1616904 72.3581193,54.725593 C73.5681546,54.1520554 77.0929883,55.1628502 77.0929883,55.1628502 L76.8747121,54.3674945 C76.8747121,54.3674945 73.8973532,53.6858024 72.223704,54.1793115 C70.5500548,54.6728206 69.9065266,57.3917599 69.9065266,57.3917599 C69.9065266,57.3923398 69.9065266,57.3929197 69.9065266,57.3934996 C69.880952,57.4146666 69.8565669,57.4384432 69.8327766,57.4625097 C69.4768138,56.9626216 68.7925447,56.6775925 68.2078975,56.3879241 C67.3112997,55.943418 65.6831495,56.8843328 65.3890417,57.8809196 C65.1442987,57.279546 64.4249388,56.6729532 63.6223128,56.5575498 C62.5157654,56.3983626 61.5876455,57.7115839 62.0693995,58.6649669 C62.3367433,59.1938509 63.1280689,59.7511508 63.9003622,59.7801467 C63.4319902,60.2739457 63.0816777,60.9971018 63.1914106,61.6016649 C63.2940064,62.1665038 63.7064711,62.6916183 64.2545406,63.0363788 C64.1793038,63.0540662 64.1067433,63.0801625 64.0404277,63.1210466 C63.6327211,63.2347103 63.3359368,63.5696121 63.4093894,64.1364807 C62.8538854,63.9404688 62.3147372,63.9917915 61.9676959,64.4046921 C61.4460931,65.024913 61.7672624,65.9130554 62.3254429,66.4828235 C61.6200598,66.7029019 60.9090265,67.3741554 61.0095406,67.9734993 C61.1249237,68.6589608 61.8630185,69.297449 62.4994096,69.5476831 C61.8865114,69.9408666 61.5397675,70.7742068 61.8737241,71.4350219 C62.0628572,71.809648 62.516955,72.1984821 63.0397473,72.4026128 C62.6698078,72.9378759 62.7822171,73.6711805 63.9521062,73.9509903 C65.1981243,74.2490675 65.7735527,73.1202597 65.3545457,72.380576 C65.5213753,72.4527756 65.7229983,72.5020685 65.9674439,72.5185961 C66.5699338,72.5591903 67.2345759,71.6591596 67.1519046,70.8197303 C67.1168138,70.4642414 66.8833713,70.1821119 66.577963,70.014226 C66.6421969,70.0348131 66.7088098,70.0539503 66.7807755,70.0710579 C67.7439862,70.3015747 68.3060326,69.6793242 68.3182251,69.0434455 C68.5802161,69.1516 68.8454782,69.1753766 69.0753522,69.075051 C69.7266122,68.7900219 70.2056899,68.3246388 70.2369147,67.8099628 C71.3990719,68.4148159 72.9852917,67.20279 72.0797725,65.6967465 C71.9179983,65.4276651 71.690206,65.220055 71.4332705,65.0744959 C71.5504378,65.0800051 71.6637393,65.0782653 71.7690114,65.0701465 C72.0473582,65.0486896 72.5526052,64.6430379 72.8523633,64.14141 C72.8737745,64.2344866 72.9026203,64.3264034 72.9472272,64.4148407 C73.4271969,65.3650341 75.6066879,66.4112038 76.3076102,64.2852293 C76.3694651,64.0976263 76.3501354,63.8856667 76.2701405,63.6716775 C76.9410276,63.7546055 77.6241072,63.466387 77.9628219,62.4387746 C78.2022121,61.7135888 77.2494096,60.6207359 76.1425649,60.4615488 L76.1425649,60.4615488 Z" id="Fill-68" fill="#D56563"></path>
                <path d="M77,9 C77,9 82.8479257,10.854259 84,11 C84,11 80.1299897,9 77,9" id="Fill-69" fill="#120205"></path>
                <path d="M72.1863909,33.045117 C69.3969348,32.439281 61.7276894,38.0734038 61.0330695,41.6246049 C60.3384496,45.1758059 70.7923665,46.5563224 73.0405933,45.7989515 C75.2885387,45.0418842 76.3014791,33.9385353 72.1863909,33.045117" id="Fill-70" fill="#C75856"></path>
                <path d="M77,4.88634623 C77,4.88634623 77.4531572,1.4355217 77.6815059,1.120659 C77.9095596,0.8057963 83.7430729,1.120659 85.3984537,1.90766849 C87.0538344,2.69467797 84.767692,6 84.767692,6 C84.767692,6 79.4009069,4.71698603 77,4.88634623" id="Fill-71" fill="#F3B68E"></path>
                <path d="M94,98.0960523 C94,98.0960523 120.242421,55.3484862 124.522364,52.2142523 C128.802308,49.0800184 136.948784,49.4163767 138.21484,49.153127 C139.48119,48.8901721 146.679664,39.5697175 147.662288,37.7184206 C147.662288,37.7184206 145.837583,35.4355474 147.148824,34.0709529 C148.460064,32.7060637 150.372205,31.9964981 156.954229,36.0522534 C163.535959,40.1080086 166.085676,42.9987439 164.581079,45.2491899 C163.076776,47.499341 159.222567,45.8143071 159.222567,45.8143071 C159.222567,45.8143071 151.877095,56.5922158 151.520604,57.6334229 C151.164113,58.6749248 154.824086,66.0541707 154.085285,70.2139877 C153.346776,74.3738048 126.418954,116.301848 124.814306,118.4444 C123.20995,120.586951 96.1307296,117.088649 94,98.0960523" id="Fill-72" fill="#C4C5C1"></path>
                <path d="M96,97.8352025 C96,97.8352025 120.350322,56.5653987 124.630849,53.4375523 C128.911376,50.3097058 136.95831,51.1131434 138.224538,50.8507244 C139.490767,50.5883054 147.501606,40.0403552 148.48407,38.192537 C148.48407,38.192537 146.954912,36.8927979 147.863134,35.2329682 C148.577387,33.9273453 149.273152,32.7391049 155.856073,36.7865947 C162.4387,40.8340845 165.095286,42.39536 163.590484,44.6409254 C162.085976,46.8867851 157.911677,44.9483558 157.911677,44.9483558 C157.911677,44.9483558 149.757928,56.2512019 149.401389,57.2902871 C149.044849,58.3296665 152.762543,66.0586715 152.023934,70.210011 C151.285032,74.3613504 125.278783,115.246646 123.673915,117.385125 C122.069047,119.523311 98.13102,116.789093 96,97.8352025" id="Fill-73" fill="#E1E2DC"></path>
                <path d="M123.119158,56.3602558 C123.119158,56.3602558 97.8580939,94.2862336 96.2229373,97.8424685 C94.5877808,101.398703 102.366462,109.222537 105.897126,111.759413 C109.427791,114.295997 120.796161,116.53042 122.906436,115.888764 C125.016419,115.247399 149.337473,74.952834 150.428844,72.2126694 C151.520214,69.4725048 151.032239,66.0195183 149.096115,64.9610768 C147.160284,63.9029271 143.393229,63.6690141 142.059624,63.1577306 C140.726311,62.6467388 141.653173,59.0450046 139.322578,58.1175194 C136.991983,57.1897426 135.007062,59.8123674 133.52122,59.2313767 C132.035086,58.6503859 132.647831,57.2148255 129.892961,55.6456839 C128.019661,54.5787843 124.223386,54.845655 123.119158,56.3602558" id="Fill-74" fill="#FFFFFE"></path>
                <path d="M149,39 C149,39 152.175019,43.484389 158,46 C158,46 150.56228,43.8356264 149,39" id="Fill-75" fill="#8E918D"></path>
                <path d="M150,34.6830381 C150,34.6830381 152.426045,29.5410136 152.899897,29.0234043 C153.373443,28.505795 168.28083,36.7360116 167.995969,37.6438319 C167.711414,38.5516521 163.515754,43 163.515754,43 C163.515754,43 152.549088,39.8637115 150,34.6830381" id="Fill-76" fill="#F1AC79"></path>
                <path d="M156.958688,42.3331123 C156.646852,41.615679 156.048207,41.3270365 155.416944,40.9045768 C154.575354,40.3411053 153.796468,39.6889979 153.058074,38.9919969 C151.804546,37.808937 150.973078,36.1916185 149.671749,35.0923023 C149.337418,34.8097033 148.960348,35.2350408 149.003369,35.5746201 C149.243502,37.4641777 150.959019,39.1479732 152.261754,40.3776533 C153.353319,41.4079025 155.084582,43.1797584 156.668504,42.9852197 C156.970216,42.9480962 157.063289,42.5739834 156.958688,42.3331123" id="Fill-77" fill="#FFFFFE"></path>
                <path d="M130,52.1266162 C134.028523,51.7527613 137.659689,53.0780591 140.571331,49.9097276 C142.315772,48.011854 145.82721,41.9434937 146.966649,42.0003975 C148.106087,42.0570065 149.282254,43.5780768 148.939555,44.4048032 C148.596856,45.2315296 142.605548,53.3905876 142.159605,54.1076341 C141.713951,54.8249755 135.199196,56.6544467 133.867151,55.7578437 C132.535107,54.8609458 131.241815,53.1107861 130,52.1266162" id="Fill-78" fill="#FFFFFE"></path>
                <path d="M151,34.1048901 L153.250075,30 C153.250075,30 159.80719,32.8609497 162.850886,34.5720765 C165.894581,36.2832034 161.928935,40 161.928935,40 C161.928935,40 155.991365,38.8975195 151,34.1048901" id="Fill-79" fill="#F6C49C"></path>
                <path d="M150,34 C150,34 151.317972,38.2030911 163,42 C163,42 157.818266,40.9064748 154.260504,38.7034525 C150.702449,36.5001549 150,34 150,34" id="Fill-80" fill="#864D29"></path>
                <path d="M109.892205,30.2635366 C106.963126,29.594985 105.604825,30.2715414 104.098714,31.4710801 C102.592305,32.6703223 98.5320039,43.2583414 95.7027563,48.4528836 C92.8735087,53.6474257 86.3940131,69.8895235 86.0474347,78.3464788 C85.7008563,86.8037306 87.3044145,94.5275027 89.1943543,96.2903443 C91.0845921,98.0531859 94.4213402,99.6076054 96.6241839,99.929281 C98.8273256,100.25066 105.902829,99.5539434 106.83558,96.2319387 C107.76863,92.909934 106.978622,70.9295585 108.294011,65.7415388 C109.609399,60.5532227 118.678548,38.4409158 117.959465,36.4142113 C117.240382,34.3872103 114.829233,31.3901424 109.892205,30.2635366" id="Fill-81" fill="#255B30"></path>
                <path d="M111.516715,34.3556904 C108.620157,33.1572308 106.433155,34.8444671 102.681499,41.6084872 C98.9295462,48.3725072 92.5036642,67.4594402 92.3247872,70.5040029 C92.1459101,73.5485657 91.6961877,89.2001464 92.3194298,91.113797 C92.9426719,93.0274477 99.4658796,94.8405019 101.011187,93.5840617 C102.556494,92.3273316 103.106816,68.5993393 103.127353,65.6316008 C103.147592,62.6641523 106.764122,53.9748855 109.182682,48.8598344 C111.60154,43.7447834 114.985322,35.7910008 111.516715,34.3556904" id="Fill-82" fill="#336C37"></path>
                <path d="M99.5901194,97.4573667 C99.5901194,97.4573667 104.311179,96.2915486 104.698939,94.7664772 C105.0867,93.2414057 105.739881,70.4791362 106.671709,65.5388174 C107.603837,60.5984986 113.557614,47.3617091 114.251375,45.2965873 C114.945436,43.2314656 117.04265,39.4423373 116.620321,37.8564151 L114.097173,34 C114.097173,34 118.694389,35.6739802 118.993476,37.180621 C119.292262,38.6869691 109.230628,64.3302867 108.936952,67.8663579 C108.642975,71.4021365 108.828138,95.8691041 107.306854,97.1226877 C105.785571,98.3762713 99.966157,100.531499 97.6813757,99.8799865 C95.3965945,99.2284741 99.5901194,97.4573667 99.5901194,97.4573667" id="Fill-83" fill="#1F4928"></path>
                <path d="M111.655578,27.2483186 C111.655578,27.2483186 108.923867,26.097594 108.351886,26.574443 C107.780184,27.0515727 106,31.0650755 106,31.0650755 C106,31.0650755 109.424877,32.3729723 109.903726,32.3519224 C110.382575,32.3308726 111.319514,31.8096785 111.319514,31.8096785 C111.319514,31.8096785 112.170614,32.8736778 112.693505,33.2177725 C113.216676,33.5618672 115.549767,34.6314797 115.834776,34.6895773 C116.119504,34.7476749 116.509147,34.3626031 116.509147,34.3626031 C116.509147,34.3626031 116.493999,35.2393991 116.732161,35.5253963 C116.970604,35.8116741 117.577651,36 117.577651,36 C117.577651,36 118.227056,35.1773723 118.353571,34.8470301 C118.480367,34.5169686 119.15053,32.101289 118.969034,31.8267991 C118.787817,31.5523092 117.820582,31.0583396 117.820582,31.0583396 C117.820582,31.0583396 117.778504,30.0998702 117.585505,29.8826359 C117.392507,29.6651208 116.834551,29.4919508 116.834551,29.4919508 C116.834551,29.4919508 117.136392,28.0103228 117.000339,27.804315 C116.864287,27.5985879 113.871972,25.9791535 113.393123,26.0002034 C112.914275,26.0212532 111.655578,27.2483186 111.655578,27.2483186" id="Fill-84" fill="#79BC5C"></path>
                <path d="M114.241883,34 C114.241883,34 116.20371,36.3483129 115.982625,37.6786503 C115.76154,39.0089877 113,43 113,43 C113,43 115.349334,38.8323744 115.193845,37.449137 C115.038762,36.0656197 114.241883,34 114.241883,34" id="Fill-85" fill="#1B3C22"></path>
                <path d="M110,33 C110,33 107.130386,33.3169261 106.12207,34.2214536 C105.113754,35.1259811 103,40 103,40 C103,40 105.751077,35.1284644 106.562134,34.5765598 C107.37319,34.0243448 110,33 110,33" id="Fill-86" fill="#1B3C22"></path>
                <path d="M110,51 C110,51 106.551927,59.3439131 105.746479,62.6617613 C104.941031,65.9796095 104,75 104,75 C104,75 104.188516,65.3632304 104.972914,62.6049194 C105.757313,59.8463123 110,51 110,51" id="Fill-87" fill="#1B3C22"></path>
                <path d="M90.0214529,78 C90.0214529,78 90.5245404,90.7343727 91.8069516,92.9407572 C92.618455,94.3370453 97,96 97,96 C97,96 91.9942951,94.2286563 91.3771447,93.518634 C90.0045665,91.938827 89.9449861,82.5072012 90.0214529,78" id="Fill-88" fill="#1B3C22"></path>
                <path d="M99,95.999744 C99,95.999744 101.214586,95.0175965 102.067065,92.2568871 C102.919545,89.4964684 102.796395,82 102.796395,82 C102.796395,82 103.425447,88.5948343 102.47216,92.347283 C101.518872,96.0997318 99,95.999744 99,95.999744" id="Fill-89" fill="#1B3C22"></path>
                <path d="M98.4249457,98.2912676 C95.6794825,97.9296639 93.7573508,97.7492104 94.024826,98.7033844 C94.024826,98.7033844 94.5041291,100.504436 95.8796277,100.245252 C95.8796277,100.245252 97.0156284,101.788164 99.3094583,100.461935 C99.3094583,100.461935 101.528887,101.651256 101.977138,99.8829511 C102.243384,98.8333249 100.130638,98.5159636 98.4249457,98.2912676" id="Fill-90" fill="#9BCC90"></path>
                <path d="M112.868087,28 C112.868087,28 114.009628,28.6009419 113.999939,29.1474882 C113.990249,29.6937991 112.680044,31 112.680044,31 L112,30.3241758 C112,30.3241758 112.7694,28.3852433 112.868087,28" id="Fill-91" fill="#4F8940"></path>
                <path d="M118.95804,31 C118.95804,31 119.341125,32.2384831 117.792272,33.3836505 C116.243749,34.5285535 117.442542,33.7275708 117.442542,33.7275708 L118.95804,31" id="Fill-92" fill="#4F8940"></path>
                <path d="M116.23097,36 C116.23097,36 117.134031,37.0956177 116.982958,38.2862946 C116.831886,39.4772762 116,42 116,42 C116,42 117.034441,38.8639618 116.23097,36" id="Fill-93" fill="#1B3C22"></path>
                <path d="M110.205775,36.1004346 C107.288359,35.0399629 102.426098,42.3956366 97.1526885,57.3060775 C91.2953146,73.8687321 92.5510028,77.8010471 95.3358777,77.9978086 C98.1207526,78.1942786 100.309942,65.1211529 101.052595,62.34667 C103.647224,52.6496801 113.901009,37.4433682 110.205775,36.1004346" id="Fill-94" fill="#448840"></path>
                <path d="M93.1859676,57.8043487 C92.6212922,57.697704 91.7715095,56.8427832 91.1913835,57.0255188 C89.1105093,57.6803705 87.085024,60.0574028 86.2174586,63.1603834 C85.1082226,67.1279796 83.1325873,74.2849299 81.5333052,78.0548074 C79.934023,81.8246849 82.1108075,86.2767363 85.6775624,89.6720351 C89.2446088,93.0670401 92.265637,93.0400117 93.7241147,92.9883051 C95.1828839,92.9368924 95.4318425,91.048722 97.5879291,91.3463284 C99.7440156,91.6439348 102.570308,93.0667463 104.842128,90.7423019 C107.113949,88.4178575 110.564095,84.3900348 109.921584,79.7055977 C109.232137,74.6780172 101.881153,71.2315994 100.929338,68.9459349 C100.076641,66.8985318 100.24135,59.9727921 94.9866905,57.5493414 C94.3747887,57.2673057 93.9547075,57.9497734 93.1859676,57.8043487" id="Fill-95" fill="#AAA84E"></path>
                <g id="Group-98" transform="translate(80.000000, 57.000000)">
                    <mask id="mask-4" fill="white">
                        <use xlink:href="#path-3"></use>
                    </mask>
                    <g id="Clip-97"></g>
                    <path d="M9.97121739,0.329225806 C9.97121739,0.329225806 7.42382609,1.88506452 6.04976087,6.91954839 C4.67540217,11.9543226 3.04630435,21.5262581 4.4981413,24.9247742 C5.94997826,28.3232903 9.68918478,31.391129 11.6220326,31.3577419 C13.5548804,31.3243548 16.9287065,31.1446452 18.2599239,32.0969032 C19.5914348,33.0494516 23.8920652,33.9599032 26.8641196,30.3044516 C26.8641196,30.3044516 25.6681957,33.8144516 23.0130978,35.5729355 C20.3577065,37.3314194 17.0549022,35.3229677 15.4307935,36.4026774 C13.8063913,37.4826774 9.531,38.4363871 3.60508696,33.4892903 C-2.32082609,28.5421935 -3.55930435,26.1223548 -1.8198587,21.231 C-0.0807065217,16.3396452 3.45629348,11.2000645 3.76532609,8.23529032 C4.0743587,5.27080645 7.58553261,-0.305129032 9.97121739,0.329225806" id="Fill-96" fill="#969244" mask="url(#mask-4)"></path>
                </g>
                <path d="M97.4375141,61.0781876 C96.4925909,59.6285568 95.4640852,58.6924103 94.6980581,59.0930281 C93.9323243,59.4936459 93.1630712,61.7236437 90.289883,59.6411955 C88.6768857,58.4725555 86.7269186,63.3519801 86.2500579,67.0677614 C85.772904,70.7835427 85.6077917,79.6218232 89.2948103,82.7718017 C92.9818289,85.9214863 95.7104339,84.18528 97.9686301,85.6731209 C102.804983,88.8595459 107.197908,85.7116249 107.856597,82.486108 C108.515286,79.2602973 106.889385,75.0157476 103.297387,72.8906804 C99.7056816,70.7653194 98.9525585,68.9456388 98.9106205,66.5257664 C98.8683893,64.1061879 98.1088142,62.1083896 97.4375141,61.0781876" id="Fill-99" fill="#D8D26F"></path>
                <path d="M95.5732719,60.1336729 C94.3442031,59.5750991 91.7693594,60.7904575 90.4779889,63.3418917 C89.1863259,65.8933259 90.663139,71.0809595 93.1037269,75.8131992 C95.5440223,80.5454388 103.337875,85.5822487 105.590095,83.5282989 C107.842608,81.4740568 107.393334,76.4363699 104.262163,74.4113572 C101.130991,72.3863445 99.7176499,71.8204633 98.5848123,70.2099234 C97.4519747,68.5990913 99.1209578,61.7471357 95.5732719,60.1336729" id="Fill-100" fill="#ECE382"></path>
                <path d="M96.5075478,62.9216781 C95.5061501,60.8369411 94.1124288,60.5049728 92.7375801,61.6520711 C91.3627314,62.7991695 91.9274831,69.5404268 94.2848567,70.8360294 C96.6425163,72.1316321 97.6979586,65.3999365 96.5075478,62.9216781" id="Fill-101" fill="#FBF4A7"></path>
                <path d="M104.996563,78.7395088 C104.924849,76.4046912 103.72776,75.0120868 101.745727,74.1824046 C99.7634142,73.3527224 97.0262939,75.4763773 97.000064,78.0651247 C96.973555,80.6541394 105.192171,85.0906938 104.996563,78.7395088" id="Fill-102" fill="#FBF4A7"></path>
                <path d="M94.9913512,58.2630498 C94.8664089,57.7107384 94.6274294,57.5934785 94.2120975,57.5650132 C93.4820729,57.5144554 93.0346485,58.1712811 92.2659883,57.7137124 C91.747836,57.4048429 90.5828501,56.6141879 90.0709293,57.225979 C89.893642,57.4379816 90.0805881,57.7855129 90.2821784,57.7336806 C90.9579886,57.5599149 91.8970813,58.6437198 92.5255319,58.9228494 C92.8623465,59.0723984 93.2381082,58.9755315 93.5721186,58.8761154 C93.7587531,58.8208843 93.9416487,58.7197688 94.1264138,58.651792 C94.3202146,58.5804164 94.6025033,58.7184942 94.8234113,58.6505175 C94.9430568,58.6135551 95.0281173,58.4253444 94.9913512,58.2630498" id="Fill-103" fill="#D8D26F"></path>
                <path d="M94.9996477,58.7481363 C94.9494053,57.8379592 93.54697,57.8641949 93.1319757,58.2668121 C92.9642373,58.4297761 92.9274457,58.850052 93.1940864,58.9151367 C93.4856505,58.9872849 93.7882917,58.8984871 94.0842076,58.8924327 C94.3362107,58.8873874 94.6226319,59.0740645 94.8643493,58.966599 C94.935559,58.935318 95.0055818,58.8550973 94.9996477,58.7481363" id="Fill-104" fill="#ECE382"></path>
                <path d="M93.9834099,58.5198227 C93.9024968,58.1534853 93.7046714,58.0540703 93.5198743,58.0070865 C93.3573626,57.9655501 93.0607958,58.1051396 93.0090252,58.4646678 C92.946969,58.8950121 93.2202219,58.9304202 93.3614768,58.9113543 C93.5257028,58.8882029 93.6813575,58.9917034 93.8404407,58.9998745 C93.97381,59.0066838 94.0310663,58.7349949 93.9834099,58.5198227" id="Fill-105" fill="#FBF4A7"></path>
                <path d="M94.9608397,58.2298849 C94.7366454,58.0121256 94.3838951,57.9887146 94.059614,58.0035787 C93.7148706,58.0191861 93.2758233,58.0790141 93.0338358,58.3034623 C92.9733389,58.3592027 92.9960252,58.4483874 93.0854361,58.4714268 C93.3634549,58.5427745 93.6708325,58.4628799 93.9488513,58.4227468 C94.2548944,58.378526 94.5484822,58.4420701 94.8531909,58.4402121 C94.9884192,58.4394689 95.044023,58.3112659 94.9608397,58.2298849" id="Fill-106" fill="#ECE382"></path>
                <path d="M92.213008,59.5824338 C92.213008,59.5824338 93.4794988,57.5692828 92.7992054,54.2916588 C92.1189119,51.0137423 89.6836806,49.0000062 89.6836806,49.0000062 C89.6836806,49.0000062 88.1138898,48.9932772 88,49.4236427 C88,49.4236427 91.0969492,52.2161912 91.8107396,54.6538563 C92.5248346,57.0915215 91.9115351,59.4616037 91.7708477,59.7924966 C91.6298558,60.1233895 91.9763974,60.062243 92.213008,59.5824338" id="Fill-107" fill="#0D150F"></path>
                <path d="M90,59.0191131 C90,59.0191131 90.8534338,58.8372393 91.3359244,59.5955608 C91.8181745,60.3538823 92.6598285,60.0368141 93,59.175005 C93,59.175005 92.7033416,61.2874721 91.8530331,60.9668809 C91.0027246,60.6458493 91.3051527,59.5682577 90,59.0191131" id="Fill-108" fill="#7B7939"></path>
                <path d="M72.764934,73.1314007 C71.0401543,72.9457822 67.3251537,68.3084943 62.306438,68.0114469 C57.2877224,67.7143995 49.588463,73.2197355 50.017162,82.0688032 C50.4455675,90.9178709 56.92509,98.5366024 60.8588445,99.6999659 C64.7925991,100.863618 66.2906969,99.6913056 67.1184385,99.5882483 C67.9458865,99.4851911 68.8805092,101.467239 71.9853477,101.970978 C75.0901861,102.474429 84.3920755,96.3562342 87.121949,89.18062 C89.8518226,82.0047172 85.7019567,75.145203 81.7162297,73.8291301 C77.7305027,72.5133458 75.0934161,73.3819713 72.764934,73.1314007" id="Fill-109" fill="#AE2F2B"></path>
                <g id="Group-112" transform="translate(51.000000, 74.000000)">
                    <mask id="mask-6" fill="white">
                        <use xlink:href="#path-5"></use>
                    </mask>
                    <g id="Clip-111"></g>
                    <path d="M30.6125079,0.224383838 C30.1864206,0.19479798 33.9178413,2.49429293 34.6672381,6.69812121 C35.5017937,11.3788384 33.615381,17.1773737 27.3523968,20.9942424 C17.210873,27.1750505 8.46184127,27.5107475 0.271626984,18.0277475 C0.271626984,18.0277475 1.48234921,29.2006566 14.8082222,31.9524343 C28.1338016,34.7042121 33.860873,25.043697 37.0575556,18.3807273 C40.2545317,11.7177576 36.149,0.611050505 30.6125079,0.224383838" id="Fill-110" fill="#9A2628" mask="url(#mask-6)"></path>
                </g>
                <path d="M62.054897,98.9554386 C59.6558068,98.7895347 55.4462433,97.0205925 52.9091732,88.9371225 C50.3718095,80.853353 53.7631812,75.4249434 55.5666088,73.6910387 C57.3697429,71.9574334 60.094407,70.0168975 63.7135924,71.5651337 C67.3327778,73.1130704 67.6128478,77.0207946 71.5021217,79.1359189 C75.3913955,81.2507436 79.3840076,79.5135448 80.9155853,78.8969455 C82.447163,78.2800467 85.3221373,81.1974388 83.3088039,87.5308329 C80.5859012,96.0958433 68.9556572,99.4333854 62.054897,98.9554386" id="Fill-113" fill="#D1372B"></path>
                <path d="M78.5895284,84.6372826 C77.8010447,87.0703618 71.1075191,94.0883636 64.5781519,92.8560832 C58.0487846,91.6241026 53.1013329,86.3906587 53.0026633,81.4138649 C52.9042847,76.4370711 55.5372208,70.59948 59.9389335,71.0216335 C64.3406462,71.443787 66.947969,74.4606253 67.8971183,75.7864511 C72.9836971,82.8914021 80.8921105,77.5320317 78.5895284,84.6372826" id="Fill-114" fill="#DC4036"></path>
                <path d="M71.5820935,83.3715099 C73.9885811,81.7415816 73.1680507,80.1255312 70.3541586,78.9323274 C67.5402664,77.7391237 66.106973,77.1922268 65.4120064,74.249293 C64.7173409,71.3063592 61.479483,70.4130849 59.2530604,71.3647025 C57.0266379,72.3160367 55.0179194,76.610494 60.6487148,80.7435161 C66.2795102,84.8765383 70.3424152,84.2109724 71.5820935,83.3715099" id="Fill-115" fill="#E88274"></path>
                <path d="M55.746246,74.6619701 C55.8439289,74.2993746 55.8602094,73.9021493 55.9789611,73.546344 C56.0639549,73.2920519 55.8769687,72.9359071 55.6770539,73.0099201 C55.4491271,73.0944578 55.2970961,73.2421441 55.1654157,73.5229179 C55.0327776,73.8060683 54.9781901,74.2117813 55.007878,74.5445 C55.0567195,75.0894117 55.610256,75.1661407 55.746246,74.6619701" id="Fill-116" fill="#E88274"></path>
                <path d="M79.8991232,75.2748553 C78.4458453,73.6476466 75.9060399,74.1859936 74.0603156,74.2820212 C71.2261754,74.4296802 69.5763823,72.2124933 67.5137029,70.41033 C66.3319838,69.3777037 64.8293581,68.7706246 63.3798762,68.4322257 C62.5012518,68.2270159 60.6292476,67.4801705 60.0178022,68.6098111 C59.9696224,68.6989327 60.0248102,68.7995644 60.1164978,68.7933161 C63.416084,68.5673879 66.2689121,70.5902175 68.5675265,73.0652322 C69.9478048,74.5513591 71.4387505,75.6267376 73.3857984,75.7260539 C74.2889506,75.7724234 75.1956069,75.6260798 76.0952551,75.5675424 C77.309386,75.4882867 78.3664216,75.9049547 79.5478487,75.9990092 C79.8605794,76.0240027 80.1630901,75.5705022 79.8991232,75.2748553" id="Fill-117" fill="#D1372B"></path>
                <path d="M69.9863857,71.701646 C69.7262559,70.8816449 68.6598724,70.2850978 67.9071311,69.915451 C67.0506352,69.4946799 66.1010871,68.9452361 65.1131884,69.0044026 C65.0020015,69.0110085 64.9547322,69.1804659 65.0549194,69.2350369 C65.894767,69.6917099 66.7884243,69.9217698 67.5798135,70.497063 C68.2463404,70.9813088 68.8822462,71.7932678 69.7003916,71.9908723 C69.8983875,72.0388373 70.0467358,71.8912084 69.9863857,71.701646" id="Fill-118" fill="#E88274"></path>
                <path d="M72.5319445,77.9622045 C71.6852519,77.7953382 70.9153702,77.1160649 70.0131375,76.0505443 C69.1112001,74.9847129 68.9224225,74.3756664 69.025231,74.0742505 C69.1280394,73.7728347 70.3404701,74.4440288 70.9833183,75.0999967 C71.626462,75.7556539 72.4967887,76.5716519 74.13552,76.4976963 C75.7739558,76.4237406 78.0038356,75.8336491 77.999995,76.4827808 C77.9958591,77.1316018 73.8167547,78.2160775 72.5319445,77.9622045" id="Fill-119" fill="#9A2628"></path>
                <path d="M72.4791714,76.5807234 C72.4791714,76.5807234 74.024344,69.761343 70,64.6036462 L71.6543006,63 C71.6543006,63 75.8863582,72.6503098 72.9815021,76.8383737 C72.9815021,76.8383737 72.2378361,77.3378461 72.4791714,76.5807234" id="Fill-120" fill="#243C21"></path>
                <path d="M73.2662957,69.0775813 C72.8606952,67.7970571 72.3889038,65.8462365 71.2035937,65.0207166 C71.108244,64.9544729 70.9507859,65.058891 71.0149355,65.1675194 C71.7853142,66.476113 72.2888887,67.7813382 72.6927398,69.2370152 C72.8875214,69.9387492 73.038273,70.6505882 73.1487853,71.3688832 C73.2762098,72.1991748 73.1484937,73.0667988 73.3867221,73.8740736 C73.4298773,74.0203149 73.6144532,74.0495071 73.6885169,73.906634 C74.4113665,72.5110254 73.7086366,70.4743126 73.2662957,69.0775813" id="Fill-121" fill="#507337"></path>
                <path d="M67,72 C67,72 68.9410126,73.0403877 69.6368132,74.6134 C70.3326138,76.1861198 72.3754361,77.6365788 74.3483772,76.8916062 C76.3210171,76.1466337 78.1855217,75.3490129 79,75.6570051 C79,75.6570051 76.3315595,76.8968711 74.5724792,77.7418753 C72.8133989,78.587172 70.4898466,77.2586814 69.1702352,75.1784911 C67.850925,73.0980082 67.8141771,72.3079922 67,72" id="Fill-122" fill="#7B1F22"></path>
                <path d="M104.990016,68.0025725 C104.990016,68.0025725 102.462065,67.8877844 102.058443,69.1917654 C101.654821,70.4957465 103.179099,75.9291485 111.783792,81.6747506 C120.388776,87.4200575 126.49811,88.0432772 129.926427,87.9978341 C132.518398,87.9633092 132.41451,85.6330221 131.066871,84.5816339 C129.719232,83.5302457 104.990016,68.0025725 104.990016,68.0025725" id="Fill-123" fill="#A6A8A5"></path>
                <path d="M110.714315,61 C110.714315,61 106.900676,66.6596153 105.164478,69.143782 C103.317302,71.7871601 117.321716,86 132.43859,86 C133.054909,86 138,76.9527517 138,76.9527517 C138,76.9527517 117.691448,72.1544585 110.714315,61" id="Fill-124" fill="#355A7E"></path>
                <path d="M107,73.8950347 L113.044386,64 C113.044386,64 129.446752,75.2203004 136,77.401663 L130.757703,86.9983839 C130.757703,86.9983839 117.900225,87.4362952 107,73.8950347" id="Fill-125" fill="#1A3A4E"></path>
                <path d="M138.686798,77.080152 C137.243768,79.3239235 129.684358,77.3375223 121.551866,72.485396 C113.419664,67.6332696 107.750761,61.7232299 109.237115,59.5090752 C111.647496,55.9180338 118.239554,59.2517049 126.371756,64.1038312 C134.504249,68.9559575 140.456931,74.3275632 138.686798,77.080152" id="Fill-126" fill="#A6A8A5"></path>
                <path d="M126.694433,65.2150149 C119.575721,61.0266741 113.04506,58.9341453 112.107864,60.5413722 C112.039223,60.6589669 112.00624,60.7950663 112,60.9442982 C113.423326,60.2572348 119.372771,62.5751037 125.97029,66.4566239 C132.567809,70.338144 137.490616,74.4169486 137.589863,76 C137.716446,75.9215041 137.818664,75.8259957 137.887305,75.7081025 C138.824502,74.1011741 133.813145,69.4030573 126.694433,65.2150149" id="Fill-127" fill="#777B78"></path>
                <path d="M125.648707,65.4779078 C119.203515,61.7028501 113.391435,59.4485558 112.000971,60.1167744 C111.922594,61.955972 116.595598,66.155125 123.040789,69.9301826 C129.48598,73.7052403 135.434204,75.7273127 137,74.7595279 C136.903045,73.2198965 132.093898,69.2529655 125.648707,65.4779078" id="Fill-128" fill="#D9DAD5"></path>
                <path d="M117.077265,63.2347447 C118.404495,61.5630032 134.331865,69.2824908 132.910307,71.7777516 C131.941036,73.479192 115.750337,64.9062086 117.077265,63.2347447" id="Fill-129" fill="#A6A8A5"></path>
                <path d="M115.490009,80.6631477 C108.547018,76.0428766 106.129863,70.2067293 107.270343,68.5157468 C108.410824,66.8247643 114.988303,69.5530575 119.786237,72.9108449 C124.58417,76.2686322 130.315383,80.0287015 128.731108,83.0768395 C127.523112,85.4008117 118.798538,82.8650662 115.490009,80.6631477" id="Fill-130" fill="#6598BD"></path>
                <path d="M110,70 C110,70 120.218735,70.7017699 124.142371,79.649687 L128,79.9389812 L124.836161,83 L123.782304,81.1214116 C123.782304,81.1214116 111.413076,78.6922944 110,70" id="Fill-131" fill="#D9DAD5"></path>
                <path d="M114.35154,71 L114.081171,73 M113,72 L115,72" id="Stroke-132" stroke="#2B2F2E"></path>
                <path d="M133.86816,74.5388118 C131.704729,73.664964 129.470365,73.0666333 127.349012,72.0617225 C125.13148,71.0112247 123.010127,69.765842 120.967521,68.4381176 C119.207141,67.2935964 117.468701,66.0710073 115.802096,64.8068199 C114.027589,63.4608606 112.8527,61.9809893 111.669395,60.1660527 C111.448784,59.8272835 110.924907,60.0529397 111.009064,60.4298881 C111.828992,64.1093372 116.417643,66.7850153 119.388078,68.8415635 C121.553012,70.3405244 123.838471,71.6631203 126.23694,72.7970995 C128.504065,73.8689663 131.16342,75.0169065 133.736515,74.9998114 C133.976663,74.9983868 134.118827,74.6399582 133.86816,74.5388118" id="Fill-133" fill="#C1C8C6"></path>
                <path d="M113.831285,58.1751665 C113.438418,57.9228172 112.835235,57.9920666 112.338922,58.0815039 C112.106928,58.123523 111.882161,58.1852605 111.663859,58.248876 C111.389271,58.3286888 111.311306,58.4683612 111.118485,58.5953575 C110.792934,58.8101478 111.199873,59.0810418 111.595783,58.9770504 C111.685918,58.9533413 111.902318,58.9862054 112.010328,58.9683649 C112.18033,58.9401957 112.345007,58.9190688 112.520333,58.9089748 C112.974431,58.883153 113.508396,58.9270501 113.831285,58.6923065 C114.043122,58.53808 114.068983,58.3277498 113.831285,58.1751665" id="Fill-134" fill="#C1C8C6"></path>
                <path d="M112.968851,81.6772082 C112.462924,80.8179729 111.575656,80.3042183 110.796635,79.7020045 C109.770485,78.9087534 108.793353,78.0575862 107.862611,77.1580113 C106.081949,75.4369476 104.38123,73.390285 103.401764,71.1064828 C103.306647,70.8846145 102.934934,71.0439562 103.009919,71.2695703 C103.813741,73.6847647 104.974104,75.7098167 106.758851,77.5697642 C107.653413,78.5016108 108.658556,79.332032 109.672743,80.1324865 C110.588312,80.8548549 111.548522,81.7633622 112.721139,81.9953154 C112.904662,82.0316211 113.07097,81.8503807 112.968851,81.6772082" id="Fill-135" fill="#C1C8C6"></path>
                <path d="M115.990465,65.9171562 C115.444734,65.1522301 114.70042,64.5715968 114.103171,63.84525 C113.505923,63.1189032 112.955699,62.5465964 112.14519,62.0128689 C112.080194,61.9701263 111.974462,62.041734 112.005613,62.1122316 C112.37732,62.9551491 112.832595,63.6237656 113.618843,64.1916316 C114.43055,64.7775384 114.99515,65.5174851 115.908396,65.9932048 C115.958715,66.0192944 116.02491,65.9651723 115.990465,65.9171562" id="Fill-136" fill="#E5E7E3"></path>
                <path d="M118.349916,67.6764693 C118.042366,67.4785986 117.730428,67.3222937 117.447014,67.0724656 C117.140195,66.8022876 116.867386,67.3530351 117.069616,67.6517896 C117.26636,67.9423176 117.496383,68.1912797 117.730793,68.4376439 C117.987512,68.706956 118.366738,69.1252123 118.732799,68.9641446 C118.889683,68.8948682 118.994637,68.7545835 118.999757,68.5493521 C119.010728,68.0942927 118.647958,67.8682784 118.349916,67.6764693" id="Fill-137" fill="#E5E7E3"></path>
                <path d="M108.996518,76.7924649 C108.953094,76.575402 108.819654,76.5002966 108.621871,76.3643915 C108.314736,76.1536562 108.027887,75.9173355 107.750863,75.6774384 C107.207276,75.207273 106.547047,74.6364168 106.199342,74.0446522 C106.144824,73.9522148 105.966059,74.0168659 106.005679,74.1153558 C106.289041,74.8182655 106.600614,75.3706892 107.165754,75.9352178 C107.528991,76.2980897 108.240567,77.0970132 108.867198,76.99027 C108.973063,76.9723878 109.012683,76.8736228 108.996518,76.7924649" id="Fill-138" fill="#E5E7E3"></path>
                <path d="M111.728114,59.0036554 C111.545624,58.9798281 111.383751,59.0784812 111.204047,59.1261356 C110.932402,59.1988714 110.931566,59.8756481 111.204047,59.9475478 C111.471513,60.0177754 111.735079,60.0750443 111.92537,59.718054 C112.080834,59.426275 111.983042,59.036261 111.728114,59.0036554" id="Fill-139" fill="#E5E7E3"></path>
                <path d="M118.031695,75.0761945 L127.028295,84.7079212 L136.052648,77.3796385 L140.701521,85.9947845 L153.306562,73 C153.306562,73 152.478705,105.315419 151.847479,109.515851 C151.216548,113.715989 149.323164,130.09918 149.112952,133.038097 C148.902445,135.97731 156.896404,166.428751 159,169.368848 C159,169.368848 129.33856,187.010016 123.869211,191 C123.869211,191 116.58885,179.239614 110.552342,144.377585 C104.515833,109.515851 118.031695,75.0761945 118.031695,75.0761945" id="Fill-140" fill="#926F4B"></path>
                <path d="M117.865805,117.913126 C117.865805,117.913126 121.064495,130.56186 124.468627,133.927217 C127.872758,137.292869 129.963314,138.078985 130.21295,138.211875 C130.462885,138.344764 135.744963,139.396955 128.936699,141.501041 C122.128137,143.605128 138.209972,147.071186 141.551695,146.074513 C144.893717,145.078136 147.77409,135.191145 147.610453,133.927217 C147.447114,132.663583 137.425828,133.393886 136.585545,132.081822 C135.744963,130.770053 142.465735,126.365499 145.913762,119.835597 C149.361789,113.305694 154.069345,80 154.069345,80 C154.069345,80 153.569774,104.252068 152.765921,110.359973 C151.962367,116.467582 150.000213,133.927217 150.000213,133.927217 C150.000213,133.927217 154.893802,155.598568 160,170.327468 C160,170.327468 127.447242,189.895914 124.468627,192 C124.468627,192 115.761215,174.956753 115.063966,144.025945 C114.498701,118.952323 117.865805,117.913126 117.865805,117.913126" id="Fill-141" fill="#886646"></path>
                <polyline id="Fill-142" fill="#F6C394" points="153 73 140.356375 87 135.277658 77.6561693 136.312618 77.8617429 127.009106 84.6838707 126.909213 84.7570607 126.830705 84.6716238 118 75.0539865 127.021996 84.4937516 126.843888 84.4817962 136.0727 76.2471882 141.080525 85.5408648 140.013634 85.3936099 153 73"></polyline>
                <path d="M143,119 C143,119 135.721919,126.918685 126,128.965641 C126,128.965641 137.166672,130.123249 143,119" id="Fill-143" fill="#886646"></path>
                <path d="M22.9217855,84.2002237 L32.0536375,91.1988609 L39.1384462,80.1403712 C39.1384462,80.1403712 48.2814939,87.8801932 53.0823821,89.4236156 C53.0823821,89.4236156 58.7214738,82.5172947 60.344554,81.0700229 C60.344554,81.0700229 67.2384467,88.6644394 68.6178735,89.4236156 C68.6178735,89.4236156 78.9632792,79.6056445 81.132002,78.8258225 C81.132002,78.8258225 89.453345,85.2242563 91.4093497,85.9911009 C91.4093497,85.9911009 97.7522967,78.6010781 98.2808511,77.851045 C98.2808511,77.851045 104.380145,85.003641 105.688272,86.0958047 C105.688272,86.0958047 117.339449,76.4943199 118.174706,76 C118.174706,76 118.201222,107.309972 117.426952,114.244902 C116.652682,121.179832 114.678116,142.404912 114.720836,144.086072 C114.763262,145.767231 119.171712,183.594203 124,192 C124,192 28.0650261,186.115942 14,184.22449 C14,184.22449 18.3233036,162.18626 22.3970613,147.238393 C25.1777168,137.03464 22.9217855,84.2002237 22.9217855,84.2002237" id="Fill-144" fill="#CB9872"></path>
                <g id="Group-147" transform="translate(24.000000, 76.000000)">
                    <mask id="mask-8" fill="white">
                        <use xlink:href="#path-7"></use>
                    </mask>
                    <g id="Clip-146"></g>
                    <path d="M0.00791666667,8.31655556 C0.00791666667,8.31655556 6.95259259,48.3857677 14.7094599,57.7767879 C22.4663272,67.168101 33.9821451,70.2986364 33.9821451,70.2986364 C33.9821451,70.2986364 18.4027315,71.5509091 17.7186728,73.2206061 C17.0346142,74.890596 36.996929,87.6221818 44.6693519,86.7873333 C52.3414815,85.9524848 80.1471605,66.5418182 82.4353704,63.4109899 C84.7235802,60.2804545 45.468642,60.282798 41.070787,57.7767879 C36.6726389,55.2710707 74.0906173,47.0098788 80.0339815,41.122 C85.9770525,35.2344141 94.8038426,0.172242424 94.8038426,0.172242424 C94.8038426,0.172242424 10.349429,-26.9497879 0.00791666667,8.31655556" id="Fill-145" fill="#DEA37A" mask="url(#mask-8)"></path>
                </g>
                <path d="M24,83.9800425 L33.1966385,90.6768145 L32.9838975,90.7132661 L32.9838975,90.7129791 L39.9779031,79.1170471 L40.5711683,79.5355236 L40.5714622,79.5355236 C41.6354607,80.3983085 42.724142,81.2498995 43.8166432,82.0882876 C44.9100259,82.9281108 46.0172191,83.7498517 47.1355783,84.5563805 C47.6941702,84.96108 48.2592266,85.3557337 48.8260461,85.7483783 C49.1084274,85.9467098 49.3972732,86.1341344 49.6825929,86.3275865 C49.9679126,86.5216127 50.255583,86.7113335 50.5470733,86.8950269 C50.8385637,87.0784332 51.1244711,87.2724594 51.4209567,87.4475421 L52.3071815,87.9793919 L53.2107428,88.4785213 L54.1372238,88.9308662 L53.9638575,88.9762155 C54.5124589,88.2512007 55.0716385,87.5362316 55.6337565,86.8218366 L56.4864833,85.75785 C56.77004,85.4028052 57.0647626,85.0557969 57.3536084,84.7041962 C57.6412788,84.3517346 57.9351199,84.0035782 58.2371885,83.6614493 C58.5392572,83.3190333 58.828103,82.9674327 59.1416314,82.6327663 L60.0822167,81.6279061 C60.4180771,81.3070167 60.7636342,80.9912937 61.1056653,80.6727005 L61.1056653,80.6724135 L61.3551363,80.4565737 L61.5802186,80.7088651 C62.2196168,81.4258434 62.870181,82.1379423 63.5222144,82.8468839 L64.5071697,83.904556 L65.503291,84.9516083 C65.8338622,85.3023478 66.1714857,85.6459119 66.511166,85.9871797 C66.8526093,86.3267255 67.1825929,86.6794742 67.5334391,87.0084001 L68.5774565,88.0063719 L69.6655501,88.9503837 L69.6655501,88.9506707 L69.4704396,88.9621515 C71.342795,87.0104093 73.2653973,85.1080347 75.2529384,83.2590459 C75.7524683,82.7995255 76.2525858,82.340005 76.7647508,81.8911043 C77.017748,81.6634967 77.2742713,81.4396204 77.5357898,81.2197623 C77.7973084,80.9999043 78.051481,80.7734448 78.319464,80.5590402 L79.1204748,79.9120951 L79.9502821,79.2878246 C80.2288434,79.0808825 80.5294429,78.8911617 80.819464,78.6922562 C81.1138928,78.4967949 81.4465209,78.3265915 81.7609309,78.1437592 L81.7618124,78.1434722 L82.1432181,77.962362 L82.4617419,78.208913 L84.907969,80.1015289 C85.7266102,80.7286696 86.5402562,81.3644209 87.3683004,81.9774976 L89.8453808,83.8330878 L92.378291,85.5979794 L92.3788787,85.5982664 L92.1940527,85.6292647 L93.8648331,83.6138038 C94.4196051,82.9410268 94.9831923,82.2728421 95.5306182,81.5963338 L98.8239892,77.5479038 L98.824283,77.5476168 L99.1642572,77.1710453 L106.655736,85.7285739 L106.65603,85.7288609 L106.454455,85.7130748 L119,76 L106.638987,85.936377 L106.532323,86.0219093 L106.437412,85.9205909 L98.8439704,78.0780314 L99.4933592,78.0550697 L99.4930654,78.0553568 L95.9666784,81.9553969 C95.3810531,82.6066474 94.7842619,83.2432598 94.1936413,83.8879088 L92.4173719,85.8161153 L92.3292196,85.9119803 L92.2325458,85.8474005 L92.232252,85.8468265 L89.5271509,84.2877289 L86.8878702,82.6430991 C86.0037024,82.0989074 85.1365773,81.5340502 84.2629878,80.9763686 L81.6492713,79.2909818 L82.3492008,79.3564226 L82.3486131,79.3567096 C82.0679948,79.50022 81.7823813,79.6193337 81.5002938,79.7809265 C81.2199694,79.9491208 80.9340621,80.1026769 80.6560884,80.282352 L79.8227551,80.8276918 L79.0032323,81.4054649 C78.7287847,81.5969078 78.4634462,81.8038499 78.1931124,82.0024684 C77.9224847,82.2010869 77.6553832,82.4051587 77.3906323,82.6132489 C76.8567231,83.0228277 76.3316291,83.4450355 75.8068289,83.8681043 C73.7158557,85.5712864 71.671897,87.3433536 69.6790668,89.1642142 L69.5759285,89.2583571 L69.4836624,89.1759821 L69.4836624,89.1756951 L68.3464974,88.254645 L67.2607546,87.2845143 C66.8949224,86.9639119 66.5531852,86.622644 66.1979314,86.292283 C65.8444405,85.9607738 65.4935943,85.6266815 65.150094,85.2859876 L64.114598,84.2684985 L63.090268,83.2403896 C62.4112012,82.5509653 61.7359544,81.860106 61.0665844,81.1589139 L61.5411378,81.1953656 L61.5408439,81.1953656 C61.2070404,81.4869788 60.8688293,81.7742868 60.5353197,82.0699183 L59.5765162,83.0234018 C59.2565233,83.3414209 58.9559238,83.6815407 58.6447461,84.0096056 C58.3332746,84.3379576 58.0288552,84.673198 57.729725,85.0138918 C57.4297132,85.3534376 57.1238246,85.6881039 56.8285143,86.031955 L55.9402327,87.0620731 C55.3543136,87.7537935 54.7695698,88.4483841 54.1974612,89.1501502 L54.1307593,89.2402748 L54.0238011,89.1957865 L53.0520686,88.7896519 L52.1053126,88.3367329 L51.1776563,87.8513806 C50.8664786,87.6915099 50.5679361,87.513557 50.2623413,87.3456497 C49.9567466,87.1771684 49.6555595,87.0026597 49.3567231,86.8244197 C49.0578867,86.6461798 48.7546427,86.4739672 48.4590386,86.2911349 C47.8648919,85.9292015 47.2722144,85.564972 46.6862953,85.1909837 C45.5126939,84.4455904 44.3499647,83.6841239 43.2007522,82.9042881 C42.0497767,82.1244523 40.9108486,81.3368669 39.7763282,80.5231626 L39.7760343,80.5231626 L40.7148566,80.3684583 L33.2313117,90.8679704 L33.2310179,90.8682574 L33.1422779,91 L33.0179831,90.9047091 L24,83.9800425" id="Fill-148" fill="#F6C394"></path>
                <path d="M60,145 C60,145 76.3263849,140.294572 83.0214814,139.39833 C89.7162825,138.502088 99,139.39833 99,139.39833 C99,139.39833 85.4060484,142.535177 79.7761078,143.431734 C74.1461671,144.327976 60,145 60,145" id="Fill-149" fill="#AC8A62"></path>
                <path d="M27,144 C27,144 37.1782962,154.294123 45.455774,158.411657 C53.7335405,162.529191 61,165 61,165 C61,165 47.6330855,162.323459 44,160.676445 C40.3669145,159.029432 27,144 27,144" id="Fill-150" fill="#977C58"></path>
            </g>
        </g>
    </g>
</svg>