<?xml version="1.0" encoding="UTF-8"?>
<svg width="254px" height="144px" viewBox="0 0 254 144" version="1.1" xmlns="http://www.w3.org/2000/svg" xmlns:xlink="http://www.w3.org/1999/xlink">
    <!-- Generator: Sketch 48.1 (47250) - http://www.bohemiancoding.com/sketch -->
    <title>Clique_Logo_Manipulation-03 Copy 2</title>
    <desc>Created with Sketch.</desc>
    <defs></defs>
    <g id="Desktop-HD-Copy-15" stroke="none" stroke-width="1" fill="none" fill-rule="evenodd" transform="translate(-905.000000, -241.000000)">
        <g id="Clique_Logo_Manipulation-03-Copy-2" transform="translate(1032.000000, 309.000000) rotate(-11.000000) translate(-1032.000000, -309.000000) translate(904.000000, 228.000000)" fill="#4BAEE0">
            <path d="M232.304004,72.3215104 C231.997536,71.4514025 231.254018,70.8344653 230.343942,70.8357978 C229.822946,70.8371302 229.188691,71.0996283 228.646376,71.3488017 C222.183901,74.3108997 217.753441,81.2184643 215.897312,85.6929246 C215.666795,86.0020594 215.724091,86.3378438 215.910637,86.7029427 C216.354349,86.8401879 216.791399,86.7535768 217.141838,86.5896821 C222.455725,84.1192683 227.106042,80.7960689 230.483851,75.9178679 C231.226036,74.8452233 232.611804,73.1489791 232.304004,72.3215104 Z M255.752794,83.6529011 C247.781964,92.3006817 239.191536,100.200942 228.723659,105.790686 C223.944093,108.342381 218.838071,109.291105 213.646772,107.537565 C210.972506,106.634145 208.326223,105.179079 206.16629,103.373572 C204.564663,102.035764 203.970381,102.374213 202.788481,103.569446 C201.180191,105.195069 199.497283,106.798039 197.638488,108.11586 C191.774292,112.266528 185.763524,111.123262 181.82208,105.12578 C181.08789,104.007831 180.586882,103.978517 179.538228,104.556812 C178.064518,105.368291 176.552165,106.202422 174.95187,106.670122 C168.550689,108.543585 163.07957,104.703384 162.854383,98.0356659 C162.770438,95.5412675 163.186168,92.9562607 163.812428,90.5244888 C165.326113,84.6415996 167.739215,79.0998247 170.951798,73.9298111 C171.456804,73.1169996 172.052417,72.3135156 172.766621,71.687251 C174.290965,70.3494434 178.053858,70.0296487 179.644826,71.1009608 C181.818083,72.5653539 180.873362,74.5640705 180.248434,76.330936 C177.953923,82.821435 175.527497,89.2666299 173.203671,95.7478016 C172.513452,97.6732319 171.781926,99.6266443 171.459468,101.630691 C170.981112,104.600784 172.306919,105.54551 174.93588,104.189048 C176.644106,103.30828 178.249731,102.188999 179.7874,101.027078 C180.406998,100.559379 180.881357,99.7439023 181.149184,98.9897199 C183.04129,93.6504816 184.673564,88.21264 186.757546,82.9506854 C188.754917,77.9019272 191.080076,72.9704271 193.479852,68.094891 C195.150769,64.6997378 198.547232,63.5231599 201.98367,64.7490394 C204.014353,65.4739073 204.478052,66.2320872 203.774508,68.3160823 C203.001676,70.6039466 202.088935,72.8505041 201.126892,75.0664146 C197.370662,83.7088652 193.549141,92.3246663 189.810233,100.975112 C189.239936,102.292932 188.790894,103.717351 188.599018,105.135107 C188.260571,107.640165 190.195316,109.152528 192.465843,108.046571 C196.781711,105.946586 200.068912,102.562093 203.001676,98.83382 C203.256178,98.507363 203.285492,97.9317326 203.274833,97.4760252 C202.996346,86.6416487 209.021772,79.1158144 216.484931,72.3748095 C219.56027,69.5979259 223.31117,68.1548525 227.381863,67.9696381 C229.487164,67.8723673 231.723047,68.3467293 233.733743,69.0396178 C236.34405,69.9377078 237.010284,71.7445476 235.760428,74.2296186 C234.904983,75.9298602 233.691104,77.4848617 232.45857,78.9572496 C228.069417,84.2032144 222.259852,87.4198157 216.050546,89.9262063 C214.286357,90.6390819 213.227044,91.5731488 212.776669,93.3719938 C212.396916,94.8923509 211.722686,96.3527465 211.464187,97.8877608 C210.568768,103.18969 213.385608,106.474247 218.728809,106.043857 C220.948702,105.863973 223.335154,105.213723 225.233923,104.085115 C230.201368,101.129679 235.131503,98.0396633 239.716529,94.5312494 C243.540715,91.6037958 246.975821,88.1260289 250.336308,84.6535919 C251.971247,82.9666751 253.555553,82.283114 255.752794,82.9253683 C256.107231,83.1678792 256.044605,83.4103902 255.752794,83.6529011 Z" id="Fill-1"></path>
            <path d="M6.73275124,52.0271264 C13.9219375,35.7290814 24.069251,21.6105352 38.894689,11.3328868 C46.7732126,5.86941376 55.4123835,2.17515869 65.0413217,0.866473561 C71.4165912,4.10782519e-15 75.2116757,1.38229681 78.1052684,3.24143099 C80.9988611,5.10056517 83.161746,8.37065119 82.905198,13.2566827 C82.4581326,21.7711747 78.6617526,28.6826588 67.8227644,34.8776311 C66.2996165,35.7481791 64.3894629,35.9432828 62.6306487,36.3047476 C62.23177,36.3864118 61.4500749,36.3984607 61.2372503,35.5858343 C61.2613437,34.7879343 61.8650158,34.9097613 62.2505093,34.778563 C71.3832253,31.6565783 77.1281495,20.3950095 77.6167089,15.726692 C78.1052684,11.0583745 76.9367141,8.98492925 75.2116757,7.60263244 C73.1044496,5.91408346 68.311522,5.87476143 63.6506003,7.05019868 C57.3725432,8.63346112 52.46995,12.9608171 47.8574131,17.3412346 C30.2023457,34.1065062 19.031065,54.4837481 14.5122244,78.4046834 C13.3088957,84.7704797 13.6207707,91.2420379 14.8923639,97.6292543 C17.0072241,108.241592 25.77854,113.682306 36.6807783,112.003503 C43.4349458,110.965966 49.4649745,108.091651 54.9703037,104.194526 C59.4248954,101.041749 63.6840633,97.6051566 67.9097682,94.1458049 C68.8587782,93.3706638 69.7770024,92.0345829 69.9095158,90.864508 C71.2078793,79.4944328 76.1322912,69.424292 81.2333876,59.477317 C85.0026575,52.1315495 89.3153662,45.0629051 93.466114,37.9166127 C95.0562747,35.1761742 97.2862476,33.1760691 100.688763,33.0247894 C101.408887,32.9926592 102.151765,32.9324151 102.85181,33.0622747 C105.477985,33.5549378 106.034809,34.4666323 105.004149,37.1736018 C103.274782,41.7133316 101.458412,46.2249474 99.5269286,50.6816742 C93.8730238,63.7305525 88.1200686,76.7379292 82.4581326,89.7827912 C80.803723,93.5969139 79.651258,97.5676714 79.7717247,101.790115 C79.89353,105.983107 81.0981972,106.823847 84.5850395,104.76082 C88.0250337,102.724569 91.225433,100.285351 94.5355908,98.0268655 C95.8767869,97.109816 96.1538604,95.8701257 96.1511834,94.2622769 C96.1284285,84.0970842 100.044936,75.3389267 106.160629,67.4656884 C108.845699,64.010353 112.669848,63.4279931 116.712176,64.0505157 C119.250008,64.4414332 120.109337,65.722625 119.362444,68.1953118 C118.559332,70.8621185 117.500564,73.4726974 116.322667,75.9989346 C113.448866,82.1706109 110.367595,88.2458966 107.529935,94.4336379 C106.634465,96.3868865 105.923712,98.5409488 105.700179,100.662881 C105.33744,104.134281 107.314433,105.738114 110.331455,104.193187 C113.63492,102.499657 116.641234,100.155491 119.551175,97.8153417 C120.23382,97.2677895 120.186971,95.5930027 120.181617,94.4376542 C120.129415,80.4918078 131.253848,65.323675 144.629669,61.2525106 C148.933008,59.9432049 153.046278,59.5830789 156.000389,64.0357894 C156.998925,65.5418926 157.607951,64.2419582 158.113911,63.5270612 C160.203339,60.5777764 163.201622,59.9485599 166.499733,60.2872658 C168.838126,60.5269036 169.651946,61.7277699 168.941192,64.1308412 C168.218392,66.5687203 167.274736,68.9637591 166.187858,71.2624073 C159.151263,86.1346745 153.548222,101.523703 149.171265,117.37728 C146.476826,127.134151 144.970992,137.09853 143.70743,147.108427 C143.321936,150.164812 143.548146,153.203794 144.987054,156.001799 C146.2292,158.41558 147.318282,158.618559 149.621007,157.260232 C151.923732,155.901905 154.824054,153.030523 156.834287,150.621329 C161.11859,145.486739 164.568667,140.6487 168.399092,135.14662 C168.858612,134.486559 169.448491,133.785103 170.143182,133.470495 C170.71473,133.212114 171.145733,133.082255 172.24198,133.552159 C172.871084,134.264378 172.208518,134.932419 171.89932,135.446502 C166.99097,143.584814 161.816255,151.520974 154.349995,157.637761 C151.18172,160.234953 147.498116,161.405028 143.486574,160.936462 C137.558273,160.242985 133.712707,155.845164 132.593705,149.400381 C130.94465,139.900551 132.73425,130.751476 135.173032,121.673355 C136.621309,116.280837 138.369415,110.968643 139.950206,105.610932 C140.108152,105.07409 140.053272,104.474326 140.096105,103.904015 C139.545974,104.019148 138.986473,104.10349 138.445711,104.252092 C135.776704,104.988409 133.151868,105.989801 130.436012,106.423558 C127.318601,106.921576 124.787462,105.604238 122.91755,102.958852 C121.413055,100.832903 121.28188,100.834242 119.188436,102.521078 C115.681516,105.344519 111.786425,107.103648 107.247507,107.422272 C103.037864,107.719476 99.9338384,106.333861 98.1669932,102.268052 C97.037283,99.6708609 96.9864193,99.8395444 94.5811004,101.563865 C91.8250895,103.539873 88.9660127,105.386021 86.0400098,107.099631 C84.8112493,107.818545 83.3308471,108.209462 81.9106783,108.485246 C75.3853975,109.754389 71.9641426,107.423611 70.624285,100.903857 C70.552005,100.547748 70.5412968,100.17825 70.4716938,99.8194631 C69.9014847,96.9076635 69.9135313,96.9250674 67.6340332,98.6199355 C63.9276738,101.376439 60.3243803,104.296271 56.4600755,106.809121 C46.7812437,113.101285 36.2136351,116.295563 24.6006431,114.690392 C11.1873429,112.836211 3.4908579,105.229386 1.28363985,91.8551892 C0.671936604,88.1468284 0.417617969,84.3795622 0,80.6377325 C0.0856652245,70.5635754 2.74128718,61.0798108 6.73275124,52.0271264 Z M129.033244,99.1099211 C129.060015,103.397964 131.208338,104.853195 134.680457,103.278815 C135.894493,102.727246 136.993418,101.921314 138.212809,101.384472 C141.07724,100.122022 142.546934,97.941185 143.663258,95.0052878 C146.557137,87.406495 149.825801,79.9469331 153.031554,72.4686286 C154.402197,69.2703348 153.931039,66.51517 151.402576,64.292831 C150.147045,63.1883553 149.029382,63.0437694 147.514178,64.0384669 C145.420734,65.412033 143.611056,67.3893792 142.067744,69.3827905 C135.874416,77.3858883 131.961924,86.4948005 129.568652,96.2864796 C129.310318,97.3467763 129.160404,98.4311706 129.033244,99.1099211 Z" id="Fill-2"></path>
            <path d="M114.603004,54.6867066 C114.22987,53.313719 115.661104,51.1623966 116.781837,49.7484439 C118.979326,46.974718 124.932137,46.1752401 128.085115,47.9195556 C129.970772,48.9635019 130.189321,49.9136253 128.940657,51.6328332 C126.516622,54.9668543 123.476917,56.6635975 119.463067,56.6741691 C117.853263,56.6292398 115.17603,56.7891353 114.603004,54.6867066 Z" id="Fill-3"></path>
        </g>
    </g>
</svg>