<?xml version="1.0" encoding="UTF-8"?>
<svg width="270px" height="154px" viewBox="0 0 270 154" version="1.1" xmlns="http://www.w3.org/2000/svg" xmlns:xlink="http://www.w3.org/1999/xlink">
    <!-- Generator: Sketch 48.1 (47250) - http://www.bohemiancoding.com/sketch -->
    <title>Clique_Logo_Manipulation-03 Copy 2</title>
    <desc>Created with Sketch.</desc>
    <defs></defs>
    <g id="Desktop-HD-Copy-15" stroke="none" stroke-width="1" fill="none" fill-rule="evenodd" transform="translate(-891.000000, -11628.000000)">
        <g id="Clique_Logo_Manipulation-03-Copy-2" transform="translate(1026.500000, 11701.000000) rotate(-11.000000) translate(-1026.500000, -11701.000000) translate(890.000000, 11615.000000)" fill="#4BAEE0">
            <path d="M247.353273,76.8804491 C247.026951,75.955492 246.235266,75.2996649 245.266233,75.3010814 C244.711486,75.3024978 244.036142,75.5815431 243.458694,75.8464236 C236.577563,78.9952437 231.860086,86.3382412 229.883712,91.0947584 C229.638261,91.4233802 229.699269,91.7803315 229.8979,92.1684452 C230.370357,92.3143419 230.83572,92.2222712 231.208862,92.0480449 C236.866996,89.4219035 241.818573,85.8892191 245.415206,80.7035104 C246.205472,79.5632495 247.681013,77.760079 247.353273,76.8804491 Z M272.321138,88.9261378 C263.833937,98.1190494 254.686998,106.517319 243.540984,112.459425 C238.451785,115.171971 233.014981,116.1805 227.487376,114.316421 C224.639864,113.356052 221.822148,111.809264 219.522289,109.889942 C217.816904,108.467803 217.184123,108.827587 215.925657,110.098164 C214.213177,111.826261 212.421245,113.530279 210.442033,114.931171 C204.197939,119.343485 197.797777,118.128151 193.600997,111.752605 C192.819243,110.564184 192.285778,110.533021 191.169191,111.147771 C189.600009,112.010403 187.989682,112.897115 186.285716,113.394297 C179.469849,115.385859 173.644297,111.303583 173.404522,104.21555 C173.315138,101.563912 173.7578,98.8159543 174.424632,96.2308905 C176.036377,89.977161 178.605806,84.0860486 182.026508,78.5901323 C182.56423,77.7260836 183.198429,76.8719502 183.9589,76.2062078 C185.581996,74.7840686 189.588659,74.444115 191.282694,75.5829595 C193.59674,77.1396637 192.590818,79.2643736 191.925406,81.1426172 C189.482249,88.0422585 186.898633,94.8937398 184.424263,101.783466 C183.68933,103.83027 182.910414,105.90682 182.567067,108.037195 C182.057722,111.194514 183.469418,112.198794 186.26869,110.756824 C188.087579,109.820535 189.797221,108.630698 191.434504,107.395533 C192.094242,106.898351 192.599331,106.031469 192.884508,105.229745 C194.899189,99.5539369 196.637207,93.7733094 198.856195,88.1796564 C200.982961,82.8126392 203.458749,77.5702716 206.01399,72.3873958 C207.793153,68.7782219 211.409648,67.527476 215.068707,68.8306314 C217.230943,69.6011929 217.724682,70.4071662 216.975561,72.6225304 C216.152663,75.054615 215.180792,77.442789 214.156425,79.798384 C210.156857,88.9856297 206.087767,98.1445459 202.106642,107.34029 C201.4994,108.741183 201.021268,110.255392 200.816962,111.76252 C200.45659,114.42549 202.516673,116.033187 204.934291,114.857514 C209.529751,112.625152 213.029906,109.02731 216.152663,105.064018 C216.423652,104.716982 216.454865,104.105065 216.443515,103.620632 C216.146988,92.1032874 222.562756,84.1030463 230.509398,76.937108 C233.783966,73.9851777 237.777859,72.4511371 242.112263,72.2542473 C244.353951,72.1508448 246.73468,72.6551093 248.875634,73.3916754 C251.655044,74.3463784 252.364439,76.2671161 251.033614,78.9088388 C250.122751,80.7162587 248.830233,82.369283 247.517852,83.934486 C242.844358,89.5111413 236.658434,92.9305078 230.046873,95.594894 C228.168395,96.3527072 227.040457,97.345655 226.560906,99.2578939 C226.156551,100.87409 225.438643,102.426545 225.163398,104.058322 C224.209971,109.694469 227.209293,113.186076 232.898641,112.728555 C235.262345,112.537331 237.803398,111.846092 239.825173,110.646339 C245.114422,107.504601 250.363945,104.2198 255.246001,100.490226 C259.317928,97.3782339 262.975569,93.6812386 266.553757,89.9899093 C268.294612,88.1966541 269.981554,87.4700033 272.321138,88.1527434 C272.698536,88.4105416 272.631853,88.6683397 272.321138,88.9261378 Z" id="Fill-1"></path>
            <path d="M7.1689167,55.3067658 C14.8238375,37.9813393 25.6285209,22.9728008 41.41439,12.0472792 C49.8033052,6.23940461 59.0021446,2.31227439 69.2548709,0.921093545 C76.0431472,5.55111512e-15 80.0840874,1.4694328 83.1651347,3.44576141 C86.246182,5.42209003 88.5491843,8.89831281 88.2760165,14.0923456 C87.799989,23.1435665 83.7576694,30.4907305 72.2165029,37.076216 C70.5946814,38.0016408 68.5607829,38.2090433 66.6880281,38.5932937 C66.263309,38.6801059 65.4309736,38.6929142 65.2043617,37.8290623 C65.2300158,36.9808649 65.8727955,37.1103716 66.2832623,36.9709029 C76.0076198,33.6521174 82.1247154,21.6806518 82.644925,16.7180571 C83.1651347,11.7554624 81.9208784,9.55131317 80.0840874,8.08188038 C77.8403496,6.28689016 72.7369234,6.24508938 67.7740549,7.49462279 C61.0892886,9.17768951 55.8690924,13.7778295 50.9577431,18.4343758 C32.1589337,36.2564817 20.2639479,57.9182458 15.4523648,83.3470877 C14.1710813,90.1141653 14.5031603,96.9936718 15.8571307,103.78352 C18.1089971,115.064829 27.4485421,120.84851 39.0570563,119.06388 C46.2487768,117.960939 52.6694467,114.905436 58.5314257,110.762647 C63.2745976,107.411129 67.8096857,103.757903 72.3091429,100.080484 C73.3196324,99.2564801 74.2973415,97.8361765 74.4384395,96.5923435 C75.8209145,84.5055317 81.0643428,73.8005984 86.4959018,63.2265948 C90.5093549,55.4177715 95.1014523,47.9035402 99.5210965,40.3067662 C101.214272,37.3935784 103.588709,35.2673925 107.211648,35.1065766 C107.978423,35.072421 108.769427,35.0083792 109.514823,35.1464248 C112.311128,35.6701439 112.904025,36.639309 111.806596,39.516918 C109.965196,44.3428192 108.031157,49.1388343 105.974547,53.8765002 C99.9543671,67.747942 93.8287201,81.5752661 87.799989,95.4424384 C86.0384023,99.4969924 84.8112776,103.718055 84.9395485,108.20667 C85.0692446,112.663975 86.3519533,113.557713 90.0646826,111.364639 C93.7275287,109.200028 97.1352583,106.607049 100.659857,104.206195 C102.087939,103.231338 102.382962,101.913501 102.380112,100.204298 C102.355883,89.3983209 106.526112,80.0880745 113.037996,71.7185301 C115.897012,68.0453803 119.968899,67.4263101 124.2731,68.0880748 C126.97534,68.5036346 127.890338,69.865589 127.095059,72.4941468 C126.23992,75.3290613 125.112561,78.1042036 123.858357,80.7896874 C120.798384,87.3504083 117.5175,93.8086624 114.496009,100.386461 C113.542528,102.462837 112.78573,104.752685 112.547717,107.008377 C112.161479,110.698605 114.266546,112.403539 117.479019,110.761224 C120.996492,108.960939 124.197563,106.469004 127.296017,103.981338 C128.022885,103.399269 127.973002,101.618909 127.967301,100.390731 C127.911717,85.5657783 139.75682,69.4414903 153.999163,65.1136916 C158.581283,63.721851 162.961021,63.3390237 166.106508,68.0724201 C167.169731,69.6734637 167.818212,68.2915852 168.356949,67.5316232 C170.581736,64.396424 173.774256,63.7275436 177.286027,64.0876005 C179.775908,64.3423443 180.642449,65.6189098 179.88565,68.1734638 C179.116025,70.7650197 178.111237,73.3110348 176.953948,75.7545831 C169.461504,91.564355 163.495483,107.923463 158.834975,124.776404 C155.965983,135.14832 154.362597,145.740824 153.017178,156.381716 C152.606711,159.630767 152.847575,162.861317 154.3797,165.8357 C155.702315,168.40164 156.861951,168.617413 159.313853,167.173461 C161.765754,165.729509 164.853967,162.677124 166.994427,160.116061 C171.556279,154.657802 175.229861,149.514787 179.308432,143.665872 C179.79772,142.964202 180.425813,142.218528 181.165509,141.884088 C181.774083,141.60942 182.233007,141.471375 183.400272,141.9709 C184.070131,142.728016 183.364642,143.438168 183.035413,143.984657 C177.809088,152.635985 172.299141,161.072418 164.349197,167.57479 C160.975673,170.3357 157.053435,171.579533 152.782014,171.081431 C146.469662,170.344239 142.374971,165.669192 141.183477,158.818148 C139.427591,148.719477 141.333126,138.993671 143.929899,129.343291 C145.472,123.610844 147.333353,117.963785 149.016552,112.268339 C149.184729,111.697656 149.126295,111.060085 149.171902,110.453823 C148.586132,110.576214 147.990385,110.665873 147.414591,110.823842 C144.572678,111.606575 141.777799,112.671091 138.886003,113.132191 C135.566638,113.661603 132.871524,112.261224 130.880475,109.449079 C129.278514,107.189117 129.138842,107.190541 126.909779,108.983709 C123.175671,111.985133 119.028246,113.855151 114.195285,114.193861 C109.71293,114.5098 106.407817,113.03684 104.526511,108.714734 C103.323615,105.953823 103.269457,106.13314 100.708315,107.966157 C97.7737622,110.066726 94.7294667,112.02925 91.6139097,113.850882 C90.3055468,114.615113 88.7292402,115.030673 87.2170691,115.323842 C80.2690634,116.672988 76.6261705,114.195284 75.1995133,107.264544 C75.1225508,106.885987 75.111149,106.493197 75.0370369,106.111793 C74.4298881,103.016442 74.4427152,103.034943 72.0155452,104.836651 C68.0690779,107.766916 64.2323535,110.870806 60.1177088,113.542058 C49.8118566,120.230863 38.5596504,123.626498 26.194338,121.920142 C11.9120886,119.949079 3.71700492,111.862742 1.36679744,97.6454744 C0.715466438,93.7033493 0.444672368,89.6986056 0,85.7209017 C0.0912148447,75.0116989 2.91887503,64.9301052 7.1689167,55.3067658 Z M137.39236,105.357524 C137.420865,109.915873 139.708362,111.462837 143.405413,109.789212 C144.698099,109.202875 145.868214,108.346138 147.166601,107.775455 C150.216597,106.433425 151.781502,104.115114 152.970145,100.994146 C156.051497,92.9163474 159.531913,84.9865563 162.945344,77.0368412 C164.404781,73.6369361 163.903099,70.7080937 161.210836,68.3456649 C159.873969,67.1715663 158.6839,67.0178661 157.070537,68.0752664 C154.841475,69.5354182 152.914561,71.6374106 151.271269,73.7564807 C144.67672,82.2640706 140.510767,91.9471824 137.962453,102.356101 C137.687383,103.483235 137.527757,104.635987 137.39236,105.357524 Z" id="Fill-2"></path>
            <path d="M122.02729,58.1339983 C121.629984,56.6744614 123.153937,54.3875259 124.347274,52.8844418 C126.687122,49.9358683 133.025572,49.0859936 136.382808,50.9402656 C138.390623,52.0500193 138.62333,53.0600357 137.293774,54.8876175 C134.712704,58.4318056 131.476079,60.2355066 127.202201,60.2467446 C125.488109,60.1989831 122.637439,60.368958 122.02729,58.1339983 Z" id="Fill-3"></path>
        </g>
    </g>
</svg>