<?xml version="1.0" encoding="UTF-8"?>
<svg width="188px" height="72px" viewBox="0 0 188 72" version="1.1" xmlns="http://www.w3.org/2000/svg" xmlns:xlink="http://www.w3.org/1999/xlink">
    <!-- Generator: Sketch 42 (36781) - http://www.bohemiancoding.com/sketch -->
    <title>Page 1</title>
    <desc>Created with Sketch.</desc>
    <defs></defs>
    <g id="Welcome" stroke="none" stroke-width="1" fill="none" fill-rule="evenodd">
        <g id="Timewinder" transform="translate(-626.000000, -6078.000000)" fill="#A4A4EC">
            <path d="M802.167422,6098.26828 L802.167422,6098.26828 C791.743359,6089.66076 778.495804,6085.48764 765.163472,6086.61234 C735.922278,6089.36538 714.742409,6115.26369 688.866552,6128.00268 C678.973275,6132.45602 668.103203,6134.11088 657.376886,6132.77791 C651.947379,6132.38029 640.918809,6131.41843 638.416001,6124.31807 C636.915791,6117.8539 638.961532,6111.06407 643.757044,6106.59558 C648.681566,6102.23312 654.800359,6099.57096 661.280381,6098.98021 C671.674956,6097.58665 682.242775,6098.99536 691.948064,6103.09274 C688.752285,6104.37648 685.582308,6106.16766 682.09902,6107.63318 C681.435536,6107.91341 681.553489,6109.09869 682.287007,6109.09869 C689.485803,6108.12168 696.81361,6108.65184 703.813361,6110.66645 C706.058147,6111.68511 708.291875,6109.00781 708.291875,6106.52363 C708.92587,6096.77626 706.489411,6087.07055 701.380588,6078.83035 C699.537579,6076.93692 696.39709,6078.51982 696.728832,6081.18198 C697.362827,6087.21823 698.483377,6093.17875 700.097853,6099.02187 C696.080092,6095.32589 691.443079,6092.39487 686.404291,6090.39919 C678.066514,6086.92286 669.024708,6085.60503 660.071367,6086.56689 C650.95584,6086.64263 642.245776,6090.44463 635.850532,6097.11329 C629.458974,6103.80088 625.916709,6112.82496 626.001487,6122.18986 C626.808726,6145.44116 652.828338,6147.1566 667.428662,6146.97862 C695.733606,6146.62644 716.987195,6123.65158 741.031101,6109.33348 C751.226631,6102.63074 763.206195,6099.33239 775.300025,6099.91178 C786.947847,6100.42679 797.504607,6107.09923 803.221624,6117.54338 C808.14246,6132.00918 789.240552,6134.5388 781.418818,6134.79252 C775.285281,6135.26587 769.137001,6134.09573 763.567425,6131.40328 L762.214656,6130.64969 C767.769487,6130.91477 773.313261,6130.1006 778.569525,6128.23747 C780.788509,6127.2188 780.353558,6123.85986 777.965018,6123.45845 C772.966775,6123.06083 767.972218,6122.50038 763.003464,6121.90584 C757.592387,6120.82659 752.078102,6120.29643 746.560131,6120.30779 C744.547564,6120.5918 743.250085,6122.64807 743.839848,6124.64374 C744.285856,6126.92343 744.993572,6129.12738 745.940879,6131.2253 C748.392082,6138.01513 752.52411,6144.02109 757.920443,6148.65241 L757.949931,6148.57667 C760.500657,6151.5948 765.26668,6146.84608 762.214656,6143.46063 C759.822429,6140.82498 757.433888,6138.23855 755.200161,6135.41356 C753.876879,6133.71326 752.767388,6131.83119 751.904859,6129.85067 C759.262154,6136.84878 768.506691,6141.37407 778.42577,6142.85473 C788.949356,6143.97564 804.861903,6143.46063 811.599946,6132.03947 C817.014709,6119.94046 813.011692,6105.57691 802.167422,6098.26828 Z" id="Page-1"></path>
        </g>
    </g>
</svg>