<?xml version="1.0" encoding="UTF-8"?>
<svg width="192px" height="65px" viewBox="0 0 192 65" version="1.1" xmlns="http://www.w3.org/2000/svg" xmlns:xlink="http://www.w3.org/1999/xlink">
    <!-- Generator: Sketch 46.2 (44496) - http://www.bohemiancoding.com/sketch -->
    <title>App Store</title>
    <desc>Created with Sketch.</desc>
    <defs></defs>
    <g id="Welcome" stroke="none" stroke-width="1" fill="none" fill-rule="evenodd">
        <g id="Desktop-HD-Copy-4" transform="translate(-744.000000, -6361.000000)">
            <g id="Group-4" transform="translate(504.000000, 6361.000000)">
                <g id="App-Store" transform="translate(240.000000, 0.000000)">
                    <rect id="background" fill="#000000" x="0" y="0" width="192" height="65" rx="7.80000055"></rect>
                    <g id="icon" transform="translate(17.029113, 11.440000)" fill="#FFFFFF">
                        <path d="M25.0077413,19.6941397 C24.9659081,15.0446414 28.8145632,12.7826453 28.9905512,12.6773355 C26.8108968,9.49928869 23.4325046,9.06506623 22.245307,9.03044384 C19.4078615,8.73182573 16.6555249,10.7283835 15.2101154,10.7283835 C13.7358555,10.7283835 11.5100403,9.05929583 9.11112219,9.10834421 C6.02411994,9.15595 3.13618605,10.9433308 1.55229424,13.7188924 C-1.71646609,19.3782104 0.72140018,27.6947968 3.85312069,32.26928 C5.41970221,34.5110797 7.25026569,37.0111047 9.64629875,36.9231061 C11.9904009,36.8278946 12.8660133,35.428573 15.6948036,35.428573 C18.4976286,35.428573 19.3198675,36.9231061 21.7635039,36.8654021 C24.2792664,36.8278946 25.8631583,34.6163894 27.3749238,32.3543934 C29.185292,29.7894514 29.9123243,27.2576891 29.9411748,27.1278552 C29.8834738,27.1091014 25.0567871,25.2669018 25.0077413,19.6941397" id="Fill-2"></path>
                        <path d="M20.512743,5.89878956 C21.7735093,4.32202825 22.6361389,2.17688272 22.3966799,0 C20.5718865,0.0807855748 18.2898129,1.26227461 16.9756731,2.80441352 C15.8129984,4.1633423 14.7743809,6.390716 15.0426904,8.48537055 C17.0925176,8.6382861 19.1971607,7.45102667 20.512743,5.89878956" id="Fill-3"></path>
                    </g>
                    <g transform="translate(59.666892, 28.340000)" fill="#FFFFFF">
                        <path d="M16.2067618,19.1981148 L12.9307889,19.1981148 L11.1362885,13.5589932 L4.89881292,13.5589932 L3.18942149,19.1981148 L0,19.1981148 L6.18121713,0 L9.99813674,0 L16.2067618,19.1981148 L16.2067618,19.1981148 Z M10.5953418,11.1931299 L8.97250188,6.18153907 C8.80084147,5.66797363 8.477716,4.46196041 8.00456799,2.5634994 L7.94686702,2.5634994 C7.75645379,3.38001074 7.45208114,4.58602397 7.03519159,6.18153907 L5.43975958,11.1931299 L10.5953418,11.1931299 L10.5953418,11.1931299 Z" id="Fill-4"></path>
                        <path d="M32.3274831,12.0370006 C32.3274831,14.3913231 31.6884448,16.2522765 30.4089256,17.6184183 C29.2635612,18.8345297 27.8397896,19.4418641 26.1419384,19.4418641 C24.3084899,19.4418641 22.9900225,18.7883665 22.1894215,17.4770435 L22.1894215,24.7405322 L19.1139594,24.7405322 L19.1139594,9.83559369 C19.1139594,8.35692915 19.0750113,6.84075702 19,5.28563471 L21.7047333,5.28563471 L21.8763937,7.48127122 L21.9340947,7.48127122 C22.9597295,5.82660954 24.5162134,5 26.6049887,5 C28.2379264,5 29.6011119,5.644842 30.6916604,6.9359686 C31.7807663,8.22998039 32.3274831,9.92936266 32.3274831,12.0370006 L32.3274831,12.0370006 Z M29.1943201,12.1495234 C29.1943201,10.8021354 28.8913899,9.69133373 28.2826446,8.81711841 C27.6176409,7.90683809 26.7247183,7.44953403 25.6053193,7.44953403 C24.8465515,7.44953403 24.1570248,7.70343156 23.5410669,8.2054562 C22.9236664,8.70892344 22.5197596,9.36819144 22.3307889,10.1861454 C22.2355823,10.5655491 22.187979,10.875708 22.187979,11.1209499 L22.187979,13.4319944 C22.187979,14.4360437 22.4966792,15.2857348 23.1140796,15.9810678 C23.7314801,16.6735156 24.5335237,17.021182 25.5202104,17.021182 C26.6785575,17.021182 27.5801352,16.5725336 28.2249437,15.6824497 C28.8711946,14.7894805 29.1943201,13.6123193 29.1943201,12.1495234 L29.1943201,12.1495234 Z" id="Fill-5"></path>
                        <path d="M48.3289256,12.0370006 C48.3289256,14.3913231 47.6898873,16.2522765 46.4103681,17.6184183 C45.2635612,18.8345297 43.8412322,19.4418641 42.1419384,19.4418641 C40.3099324,19.4418641 38.9914651,18.7883665 38.1894215,17.4770435 L38.1894215,24.7405322 L35.1139594,24.7405322 L35.1139594,9.83559369 C35.1139594,8.35692915 35.0750113,6.84075702 35,5.28563471 L37.7047333,5.28563471 L37.8763937,7.48127122 L37.9340947,7.48127122 C38.958287,5.82660954 40.5147708,5 42.6049887,5 C44.2364838,5 45.6011119,5.644842 46.6931029,6.9359686 C47.7807663,8.22998039 48.3289256,9.92936266 48.3289256,12.0370006 L48.3289256,12.0370006 Z M45.1943201,12.1495234 C45.1943201,10.8021354 44.8899474,9.69133373 44.2812021,8.81711841 C43.6176409,7.90683809 42.7261608,7.44953403 41.6067618,7.44953403 C40.847994,7.44953403 40.1584673,7.70343156 39.5396243,8.2054562 C38.9236664,8.70892344 38.5197596,9.36819144 38.3307889,10.1861454 C38.2370248,10.5655491 38.1865364,10.875708 38.1865364,11.1209499 L38.1865364,13.4319944 C38.1865364,14.4360437 38.4966792,15.2857348 39.1111946,15.9810678 C39.728595,16.672073 40.5306386,17.021182 41.5202104,17.021182 C42.68,17.021182 43.5815778,16.5725336 44.2249437,15.6824497 C44.8711946,14.7894805 45.1943201,13.6123193 45.1943201,12.1495234 L45.1943201,12.1495234 Z" id="Fill-6"></path>
                        <path d="M65.9065965,14.0985254 C65.9065965,15.7315481 65.3367994,17.0601823 64.2000902,18.0858705 C62.950864,19.2053278 61.206852,19.766499 58.9709391,19.766499 C56.9052442,19.766499 55.2492261,19.3683415 54,18.570584 L54.7111645,16.0070846 C56.0599249,16.8048421 57.5413974,17.2044422 59.1541397,17.2044422 C60.3139294,17.2044422 61.2155071,16.9418891 61.858873,16.4211107 C62.505124,15.897447 62.829692,15.2006715 62.829692,14.3293413 C62.829692,13.548895 62.5613824,12.8939548 62.0305334,12.3616355 C61.4982419,11.8322015 60.618302,11.3359473 59.3835011,10.882971 C56.0224192,9.62935199 54.3404358,7.79436536 54.3404358,5.38378152 C54.3404358,3.80846281 54.9347558,2.51877881 56.1190684,1.51040173 C57.3048234,0.503467243 58.8771751,0 60.8332382,0 C62.5801352,0 64.0356424,0.304388505 65.1911044,0.911722915 L64.4193539,3.41896093 C63.3316905,2.83038032 62.1041022,2.53609001 60.7308189,2.53609001 C59.6460406,2.53609001 58.7935086,2.80297092 58.1862059,3.33384756 C57.6741097,3.80846281 57.4130128,4.38694523 57.4130128,5.07362261 C57.4130128,5.83098738 57.7087303,6.45996078 58.2987228,6.95188723 C58.8093764,7.40774869 59.7412472,7.90256033 61.088565,8.43343696 C62.741698,9.09991796 63.954861,9.87603651 64.7338242,10.767563 C65.517115,11.6590896 65.9065965,12.7713338 65.9065965,14.0985254" id="Fill-7"></path>
                        <path d="M76.4286702,7.7603 L73.0387378,7.7603 L73.0387378,14.4813713 C73.0387378,16.1908518 73.6359429,17.0434281 74.8332382,17.0434281 C75.38284,17.0434281 75.8386777,16.9972649 76.1993088,16.9006107 L76.2844177,19.2361794 C75.6785575,19.4626675 74.8808415,19.5766329 73.8941548,19.5766329 C72.6781067,19.5766329 71.7303681,19.2044422 71.0437265,18.4643887 C70.3599699,17.7228925 70.0180917,16.4808143 70.0180917,14.7323836 L70.0180917,7.7545296 L68,7.7545296 L68,5.44637032 L70.0180917,5.44637032 L70.0180917,2.91172292 L73.0387378,2 L73.0387378,5.44637032 L76.4286702,5.44637032 L76.4286702,7.7603" id="Fill-8"></path>
                        <path d="M91.558287,12.0889342 C91.558287,14.2167685 90.9509842,15.9637566 89.7349361,17.3298983 C88.4640721,18.7349903 86.7734335,19.4375363 84.6659053,19.4375363 C82.6319459,19.4375363 81.014876,18.7638423 79.8089256,17.4164543 C78.6029752,16.0690663 78,14.3696841 78,12.3197501 C78,10.1746046 78.6246131,8.41751833 79.8651841,7.05137656 C81.1086401,5.68523479 82.7848535,5 84.8923817,5 C86.9248986,5 88.5549512,5.67657919 89.7911946,7.02252457 C90.9711796,8.33096236 91.558287,10.0173612 91.558287,12.0889342 L91.558287,12.0889342 Z M88.370308,12.1596216 C88.370308,10.8915766 88.0962284,9.8038565 87.5466266,8.89357618 C86.9018182,7.79431533 85.97716,7.2461275 84.7827498,7.2461275 C83.5522765,7.2461275 82.6045379,7.79431533 81.9626146,8.89357618 C81.4101277,9.8038565 81.1374906,10.9103304 81.1374906,12.2173255 C81.1374906,13.4868131 81.4101277,14.5774184 81.9626146,15.4833709 C82.6276183,16.5840744 83.5551615,17.1337048 84.7582269,17.1337048 C85.9324418,17.1337048 86.8542149,16.571091 87.5221037,15.4574041 C88.0861307,14.5254848 88.370308,13.4305518 88.370308,12.1596216 L88.370308,12.1596216 Z" id="Fill-9"></path>
                        <path d="M101.408805,7.99050887 C101.104433,7.93424748 100.778422,7.90683809 100.439429,7.90683809 C99.3575357,7.90683809 98.5208715,8.31220856 97.9323216,9.13160511 C97.4202254,9.85290488 97.1648986,10.7646278 97.1648986,11.8653313 L97.1648986,19.12882 L94.0894365,19.12882 L94.0894365,9.64517055 C94.0894365,8.05109805 94.0591435,6.5955151 94,5.28707731 L96.6787678,5.28707731 L96.7912847,7.93569008 L96.8763937,7.93569008 C97.2024042,7.02540977 97.7130579,6.2911266 98.4141247,5.74293877 C99.1007663,5.24668452 99.8393388,5 100.637055,5 C100.921232,5 101.178002,5.02163899 101.40592,5.05626138 L101.408805,7.99050887" id="Fill-10"></path>
                        <path d="M115.301848,11.5739261 C115.301848,12.1249992 115.265785,12.5895162 115.189331,12.9689199 L105.964388,12.9689199 C105.997566,14.3365043 106.446191,15.3838316 107.301608,16.1051313 C108.079128,16.7485307 109.086011,17.071673 110.319369,17.071673 C111.68544,17.071673 112.931781,16.8552831 114.052622,16.4167328 L114.534425,18.5517802 C113.224613,19.121607 111.676784,19.4072417 109.893824,19.4072417 C107.747348,19.4072417 106.062479,18.7753831 104.836334,17.5145511 C103.614515,16.2522765 103,14.5543368 103,12.4308303 C103,10.3448313 103.568355,8.60649887 104.710834,7.22016071 C105.905244,5.74005357 107.519429,5 109.550503,5 C111.545515,5 113.055838,5.74005357 114.08003,7.22016071 C114.893614,8.39299414 115.301848,9.84713449 115.301848,11.5739261 L115.301848,11.5739261 Z M112.369196,10.7761686 C112.390834,9.86300308 112.188881,9.07822893 111.771991,8.41174793 C111.239699,7.5548438 110.420346,7.12783434 109.322585,7.12783434 C108.315702,7.12783434 107.497791,7.5447456 106.874621,8.38145334 C106.362524,9.04649174 106.058152,9.84713449 105.964388,10.7732834 L112.369196,10.7761686 L112.369196,10.7761686 Z" id="Fill-11"></path>
                    </g>
                    <g id="Available-on-the" transform="translate(60.966825, 11.960000)" fill="#FFFFFF">
                        <path d="M7.96706236,9.43604365 L6.35576258,9.43604365 L5.47438017,6.66480992 L2.40901578,6.66480992 L1.56802404,9.43604365 L0,9.43604365 L3.03795642,0 L4.91323817,0 L7.96706236,9.43604365 L7.96706236,9.43604365 Z M5.20895567,5.50207468 L4.41123967,3.03811465 C4.32757325,2.78565973 4.17322314,2.19852171 3.93520661,1.26083201 L3.90635612,1.26083201 C3.80826446,1.66620248 3.66833959,2.2547831 3.45773103,3.03811465 L2.67444027,5.50207468 L5.20895567,5.50207468 L5.20895567,5.50207468 Z" id="Fill-12"></path>
                        <path d="M15.5389632,3 L12.9626146,9.80329947 L11.4926822,9.80329947 L9,3 L10.6242825,3 L11.7869572,6.59784328 C11.9831405,7.19940729 12.1504733,7.77356191 12.275973,8.31886454 L12.3178062,8.31886454 C12.4303231,7.82982329 12.5976559,7.25566867 12.8068219,6.59784328 L13.9550714,3 L15.5389632,3" id="Fill-13"></path>
                        <path d="M21.2280391,9.94323163 L21.1155222,9.15990008 L21.073689,9.15990008 C20.6120811,9.79031608 19.9398648,10.0975898 19.0858903,10.0975898 C17.8683997,10.0975898 17,9.24357085 17,8.09526161 C17,6.41607573 18.4555071,5.5476308 20.9755973,5.5476308 L20.9755973,5.42212464 C20.9755973,4.52627032 20.4995642,4.07762186 19.5619234,4.07762186 C18.889707,4.07762186 18.301157,4.24640601 17.7847333,4.58253171 L17.4774756,3.58858062 C18.1078588,3.19619354 18.8911495,3 19.8158077,3 C21.5929977,3 22.4902479,3.93768971 22.4902479,5.81451172 L22.4902479,8.32030714 C22.4902479,9.00698452 22.5190984,9.53930376 22.5883396,9.94467423 L21.2280391,9.94323163 L21.2280391,9.94323163 Z M21.0174305,6.55456529 C19.3368896,6.55456529 18.4973403,6.96137836 18.4973403,7.92647746 C18.4973403,8.64056424 18.9315402,8.98967333 19.5330729,8.98967333 C20.3033809,8.98967333 21.0174305,8.40253531 21.0174305,7.60477776 L21.0174305,6.55456529 L21.0174305,6.55456529 Z" id="Fill-14"></path>
                        <path d="M25.8958077,1.80613464 C25.3923666,1.80613464 25,1.41374756 25,0.89585432 C25,0.377961082 25.4053494,0 25.9246582,0 C26.4425244,0 26.862299,0.377961082 26.8478738,0.89585432 C26.8478738,1.44259955 26.4569497,1.80613464 25.8958077,1.80613464 L25.8958077,1.80613464 Z M25.1687754,2.92703449 L26.6805409,2.92703449 L26.6805409,9.73033396 L25.1687754,9.73033396 L25.1687754,2.92703449 Z" id="Fill-15"></path>
                        <polygon id="Fill-16" points="29 0 30.5117656 0 30.5117656 9.9250849 29 9.9250849"></polygon>
                        <path d="M37.2280391,9.94467423 L37.1140796,9.16134267 L37.073689,9.16134267 C36.6120811,9.79175868 35.9398648,10.0990324 35.0858903,10.0990324 C33.8683997,10.0990324 33,9.24501345 33,8.09670421 C33,6.41751833 34.4555071,5.5490734 36.9755973,5.5490734 L36.9755973,5.42356724 C36.9755973,4.52771292 36.4995642,4.07906446 35.5619234,4.07906446 C34.889707,4.07906446 34.301157,4.24784861 33.7847333,4.58397431 L33.4760331,3.58858062 C34.1064162,3.19619354 34.889707,3 35.8143651,3 C37.5915552,3 38.4902479,3.93768971 38.4902479,5.81451172 L38.4902479,8.32030714 C38.4902479,9.00698452 38.5190984,9.53930376 38.5854545,9.94467423 L37.2280391,9.94467423 L37.2280391,9.94467423 Z M37.0174305,6.55600789 C35.3368896,6.55600789 34.4973403,6.96282096 34.4973403,7.92792006 C34.4973403,8.64200684 34.9315402,8.99111593 35.5330729,8.99111593 C36.3033809,8.99111593 37.0174305,8.40397791 37.0174305,7.60622036 L37.0174305,6.55600789 L37.0174305,6.55600789 Z" id="Fill-17"></path>
                        <path d="M44.54284,10.0794431 C43.5777911,10.0794431 42.8651841,9.67262998 42.4021337,8.87487243 L42.3732832,8.87487243 L42.2867318,9.9250849 L41,9.9250849 C41.0403907,9.37978227 41.0548159,8.76234966 41.0548159,8.09154087 L41.0548159,0 L42.5694666,0 L42.5694666,4.11717911 L42.5968745,4.11717911 C43.0454996,3.36125695 43.7725319,2.98329587 44.7664313,2.98329587 C46.405139,2.98329587 47.5533884,4.38406003 47.5533884,6.42678099 C47.5533884,8.53874673 46.2781968,10.0794431 44.54284,10.0794431 L44.54284,10.0794431 Z M44.2355823,4.1705553 C43.36574,4.1705553 42.5694666,4.92647746 42.5694666,5.97668993 L42.5694666,7.16683456 C42.5694666,8.10452427 43.2849587,8.87487243 44.2081743,8.87487243 C45.340556,8.87487243 46.0156574,7.95160872 46.0156574,6.48159977 C46.0142149,5.1096876 45.313148,4.1705553 44.2355823,4.1705553 L44.2355823,4.1705553 Z" id="Fill-18"></path>
                        <polygon id="Fill-19" points="50 0 51.5103231 0 51.5103231 9.9250849 50 9.9250849"></polygon>
                        <path d="M59.996574,6.91954298 L55.4583922,6.91954298 C55.4886852,8.20778437 56.3397746,8.93485455 57.5990984,8.93485455 C58.2727573,8.93485455 58.8887153,8.82233178 59.4339895,8.61315485 L59.669121,9.66336732 C59.0257551,9.94323163 58.2698723,10.0831638 57.3884899,10.0831638 C55.2593238,10.0831638 54,8.73866101 54,6.65410466 C54,4.56810571 55.2896168,3 57.2197145,3 C58.9536289,3 60.0485049,4.2882414 60.0485049,6.23430819 C60.0528325,6.49974651 60.0398497,6.73777543 59.996574,6.91954298 L59.996574,6.91954298 Z M58.6117506,5.84192111 C58.6117506,4.79170864 58.0780165,4.05021247 57.1115252,4.05021247 C56.2431255,4.05021247 55.5593689,4.80613464 55.4583922,5.84192111 L58.6117506,5.84192111 L58.6117506,5.84192111 Z" id="Fill-20"></path>
                        <path d="M68.275973,10.0975898 C66.2881743,10.0975898 65,8.61315485 65,6.59784328 C65,4.49741833 66.3155823,3 68.3899324,3 C70.347438,3 71.6659053,4.41374756 71.6659053,6.48676311 C71.6659053,8.61315485 70.3070473,10.0975898 68.275973,10.0975898 L68.275973,10.0975898 Z M68.3336739,4.10503125 C67.2416829,4.10503125 66.5420586,5.12639174 66.5420586,6.55456529 C66.5420586,7.95532945 67.2561082,8.97668993 68.3192487,8.97668993 C69.3823892,8.97668993 70.0964388,7.88464207 70.0964388,6.5257133 C70.0964388,5.14081773 69.3968144,4.10503125 68.3336739,4.10503125 L68.3336739,4.10503125 Z" id="Fill-21"></path>
                        <path d="M79.9619534,9.94467423 L78.4530729,9.94467423 L78.4530729,6.03811465 C78.4530729,4.83498663 77.9900225,4.23198002 77.0797896,4.23198002 C76.183982,4.23198002 75.5665815,5.00232817 75.5665815,5.89818249 L75.5665815,9.94467423 L74.057701,9.94467423 L74.057701,5.08599895 C74.057701,4.48443494 74.0403907,3.83959294 74,3.13993216 L75.3300075,3.13993216 L75.4006912,4.19014463 L75.4439669,4.19014463 C75.8464313,3.46307446 76.6744403,3 77.5990984,3 C79.0243125,3 79.9619534,4.09204786 79.9619534,5.8693305 L79.9619534,9.94467423" id="Fill-22"></path>
                        <path d="M90.13716,3.82893772 L88.4739294,3.82893772 L88.4739294,7.13249068 C88.4739294,7.97352622 88.7667618,8.39332269 89.3538693,8.39332269 C89.6192938,8.39332269 89.8457701,8.3644707 90.0260856,8.32263531 L90.0679189,9.47094455 C89.7736439,9.58346732 89.3798347,9.6397287 88.893704,9.6397287 C87.7007363,9.6397287 86.9910143,8.98190331 86.9910143,7.25943944 L86.9910143,3.82893772 L86,3.82893772 L86,2.69505447 L86.9910143,2.69505447 L86.9910143,1.44864846 L88.4739294,1 L88.4739294,2.69361187 L90.13716,2.69361187 L90.13716,3.82893772" id="Fill-23"></path>
                        <path d="M97.90858,9.9250849 L96.3953719,9.9250849 L96.3953719,6.04737731 C96.3953719,4.82982329 95.9323216,4.21383328 95.0235312,4.21383328 C94.2402404,4.21383328 93.5132081,4.74615252 93.5132081,5.82377438 L93.5132081,9.9250849 L92,9.9250849 L92,0 L93.5132081,0 L93.5132081,4.08688452 L93.5420586,4.08688452 C94.0166491,3.34538835 94.7047333,2.98041067 95.5861157,2.98041067 C97.0271976,2.98041067 97.90858,4.09986792 97.90858,5.87859316 L97.90858,9.9250849" id="Fill-24"></path>
                        <path d="M105.996574,6.91954298 L101.459835,6.91954298 C101.488685,8.20778437 102.339775,8.93485455 103.600541,8.93485455 C104.275642,8.93485455 104.890158,8.82233178 105.432547,8.61315485 L105.669121,9.66336732 C105.027198,9.94323163 104.269872,10.0831638 103.387047,10.0831638 C101.259324,10.0831638 100,8.73866101 100,6.65410466 C100,4.56810571 101.288174,3 103.218272,3 C104.953629,3 106.047062,4.2882414 106.047062,6.23430819 C106.052832,6.49974651 106.038407,6.73777543 105.996574,6.91954298 L105.996574,6.91954298 Z M104.610308,5.84192111 C104.610308,4.79170864 104.079459,4.05021247 103.112968,4.05021247 C102.244568,4.05021247 101.559369,4.80613464 101.459835,5.84192111 L104.610308,5.84192111 L104.610308,5.84192111 Z" id="Fill-25"></path>
                    </g>
                </g>
            </g>
        </g>
    </g>
</svg>