<?xml version="1.0" encoding="UTF-8"?>
<svg width="768px" height="114px" viewBox="0 0 768 114" version="1.1" xmlns="http://www.w3.org/2000/svg" xmlns:xlink="http://www.w3.org/1999/xlink">
    <!-- Generator: Sketch 41.2 (35397) - http://www.bohemiancoding.com/sketch -->
    <title>Group 5</title>
    <desc>Created with Sketch.</desc>
    <defs></defs>
    <g id="Welcome" stroke="none" stroke-width="1" fill="none" fill-rule="evenodd" opacity="0.599999964">
        <g id="Tablet-Portrait" transform="translate(0.000000, -473.000000)" fill="#FFFFFF">
            <g id="Group">
                <g id="Group-5" transform="translate(-1.000000, 473.000000)">
                    <path d="M0.977685837,0.590679865 C0.977685837,0.590679865 208.549079,13.384681 288.66911,39.5186871 C503.941961,109.737606 769.096616,91.5971537 769.096616,91.5971537 L769.021227,113.196873 L1.0002706,113.196873 L0.977685837,0.590679865 Z" id="3"></path>
                    <path d="M1.03349599,84.0996123 C1.03349599,84.0996123 31.2760986,75.1975075 46.3445156,70.1482012 C442.703354,-62.6684842 769.045377,54.3789345 769.045377,54.3789345 L769.045377,112.712268 L1,112.712268 L1.03349599,84.0996123 Z" id="2" transform="translate(385.022689, 59.722801) scale(-1, 1) translate(-385.022689, -59.722801) "></path>
                    <path d="M0.958113134,81.4941268 C0.958113134,81.4941268 298.174339,98.7499774 489.150542,48.8677399 C585.109739,23.8035731 769.018047,0.459908422 769.018047,0.459908422 L769.227131,112.855269 L1.06344782,112.855269 L0.958113134,81.4941268 Z" id="1"></path>
                </g>
            </g>
        </g>
    </g>
</svg>