<?xml version="1.0" encoding="UTF-8"?>
<svg width="580px" height="665px" viewBox="0 0 580 665" version="1.1" xmlns="http://www.w3.org/2000/svg" xmlns:xlink="http://www.w3.org/1999/xlink">
    <!-- Generator: Sketch 41.2 (35397) - http://www.bohemiancoding.com/sketch -->
    <title>Group 3</title>
    <desc>Created with Sketch.</desc>
    <defs></defs>
    <g id="Page-1" stroke="none" stroke-width="1" fill="none" fill-rule="evenodd">
        <g id="Splash" transform="translate(-196.000000, -280.000000)">
            <g id="Group-3" transform="translate(196.000000, 265.000000)">
                <g id="Group-2">
                    <path d="M476.924885,208.622573 L476.924885,208.622573 C452.432393,188.398238 421.305795,178.593039 389.980001,181.235638 C321.274576,187.704222 271.510127,248.555181 210.711932,278.486841 C187.466582,288.950466 161.926143,292.838734 136.723472,289.706765 C123.966244,288.772513 98.0533949,286.512512 92.1727717,269.829438 C88.647862,254.641166 93.454557,238.687698 104.722143,228.188483 C116.292854,217.938402 130.669635,211.683361 145.895166,210.295329 C170.318373,207.020998 195.148633,210.33092 217.952287,219.958166 C210.44345,222.974466 202.995238,227.18305 194.810865,230.626436 C193.251937,231.284862 193.52908,234.069823 195.252561,234.069823 C212.166931,231.774232 229.384426,233.019902 245.831117,237.753446 C251.105491,240.146911 256.353882,233.85628 256.353882,228.019428 C257.843524,205.116903 252.118794,182.312252 240.115048,162.950988 C235.784692,158.502168 228.405765,162.221381 229.18523,168.476422 C230.674872,182.65926 233.307728,196.664145 237.10112,210.393203 C227.660944,201.709107 216.765769,194.822334 204.926576,190.133278 C185.336047,181.965244 164.091321,178.868865 143.054452,181.128866 C121.636513,181.306819 101.171251,190.240049 86.1449164,205.908793 C71.1272424,221.622025 62.8042986,242.825101 63.0034949,264.828964 C64.9001908,319.460473 126.036154,323.491103 160.341233,323.072914 C226.846837,322.245434 276.784501,268.263453 333.278322,234.621477 C357.233851,218.872654 385.381164,211.12281 413.796958,212.484149 C441.164807,213.694228 465.969085,229.371869 479.401849,253.91156 C490.963899,287.900544 446.55177,293.844167 428.17374,294.440309 C413.762316,295.552514 399.316249,292.803144 386.229913,286.476922 L383.051432,284.706291 C396.103125,285.329126 409.128835,283.416134 421.47901,279.038495 C426.692758,276.64503 425.670794,268.752823 420.058653,267.809673 C408.314728,266.875421 396.579464,265.55857 384.904824,264.161641 C372.1909,261.625814 359.234475,260.380144 346.26939,260.406837 C341.540641,261.07416 338.492071,265.905578 339.877785,270.594635 C340.925731,275.951014 342.588587,281.12944 344.81439,286.058733 C350.573764,302.012201 360.282421,316.123858 372.961703,327.005671 L373.030989,326.827718 C379.024201,333.919137 390.222501,322.761497 383.051432,314.807007 C377.43063,308.61425 371.818489,302.537162 366.570098,295.899522 C363.460902,291.904482 360.854028,287.482355 358.827422,282.828889 C376.114202,299.271728 397.835267,309.904407 421.141242,313.383385 C445.867574,316.017086 483.255866,314.807007 499.087646,287.971725 C511.810232,259.543766 502.404699,225.795018 476.924885,208.622573 Z" id="Page-1" fill="#A4A4EC"></path>
                    <text id="TIME" font-family="Arvo-Bold, Arvo" font-size="70" font-weight="bold" letter-spacing="49" fill="#FFFFFF">
                        <tspan x="105" y="67">TIME</tspan>
                    </text>
                    <text id="WINDER" font-family="Arvo-Bold, Arvo" font-size="70" font-weight="bold" letter-spacing="49" fill="#FFFFFF">
                        <tspan x="0" y="480">WINDER</tspan>
                    </text>
                </g>
                <text id="A-new-look-at-“Looki" font-family="WorkSans-Regular, Work Sans" font-size="40" font-weight="normal" fill="#FFFFFF">
                    <tspan x="1" y="671">A new look at “Looking back”</tspan>
                </text>
            </g>
        </g>
    </g>
</svg>