<?xml version="1.0" encoding="UTF-8"?>
<svg width="192px" height="65px" viewBox="0 0 192 65" version="1.1" xmlns="http://www.w3.org/2000/svg" xmlns:xlink="http://www.w3.org/1999/xlink">
    <!-- Generator: Sketch 46.2 (44496) - http://www.bohemiancoding.com/sketch -->
    <title>Play Store</title>
    <desc>Created with Sketch.</desc>
    <defs>
        <linearGradient x1="58.9170878%" y1="9.59026547%" x2="90.8103723%" y2="60.8514694%" id="linearGradient-1">
            <stop stop-color="#FF177B" offset="0%"></stop>
            <stop stop-color="#FFEC73" offset="100%"></stop>
        </linearGradient>
        <linearGradient x1="37.1029741%" y1="-44.0352456%" x2="0%" y2="101.060094%" id="linearGradient-2">
            <stop stop-color="#064AA2" offset="0%"></stop>
            <stop stop-color="#63FFD4" offset="100%"></stop>
        </linearGradient>
        <path d="M18.0690589,16.51 L0.649966148,0 C0.243579044,0.0944042909 0,0.398401898 0,0.91 L0,16.51 L0,32.5 C0,32.9340527 0.174967192,33.1923034 0.389979689,33.28 L18.0690589,16.51 Z" id="path-3"></path>
        <path d="M0.71636071,16.6760403 L10.7846064,11.1449156 C13.2639379,9.77101111 15.2315971,8.68063666 15.2315971,8.68063666 L22.553381,4.73677185 L17.6788729,-3.00204306e-13 L-6.66148247e-13,16.7720868 C0.197047367,16.8354632 0.544349182,16.8008215 0.81530011,16.6670859" id="path-5"></path>
        <linearGradient x1="78.6453125%" y1="50%" x2="2.49516972%" y2="100%" id="linearGradient-7">
            <stop stop-color="#FF4521" offset="0%"></stop>
            <stop stop-color="#8A33DB" offset="100%"></stop>
        </linearGradient>
        <linearGradient x1="0%" y1="-24.1863374%" x2="64.2244373%" y2="100%" id="linearGradient-8">
            <stop stop-color="#00A3B5" offset="0%"></stop>
            <stop stop-color="#D6FFA1" offset="100%"></stop>
        </linearGradient>
        <path d="M0.938029704,0.190157349 C0.602697455,0.0105523275 0.269519088,-0.0408262212 0,0.0317892444 L17.4335548,16.5658061 L22.2566525,12.0013257 L14.9865249,7.97399625 C14.9865249,7.97399625 8.13419398,4.17728969 3.99671631,1.88476318 L0.938029704,0.190157349 Z" id="path-9"></path>
    </defs>
    <g id="Welcome" stroke="none" stroke-width="1" fill="none" fill-rule="evenodd">
        <g id="Desktop-HD-Copy-4" transform="translate(-504.000000, -6361.000000)">
            <g id="Group-4" transform="translate(504.000000, 6361.000000)">
                <g id="Play-Store">
                    <rect id="background" fill="#000000" x="0" y="0" width="192" height="65" rx="7.80000055"></rect>
                    <g id="icon" transform="translate(7.799594, 23.270000)">
                        <path d="M15.5797695,7.97399625 C15.5797695,7.97399625 2.33275817,0.634155943 1.5547406,0.20293385 C0.775428493,-0.228288243 0,0.0332939279 0,0.934586951 L0,16.603618 L0,32.5912094 C0,33.2658842 0.554062429,33.5585455 1.231106,33.1843017 C1.90685504,32.8100579 15.5797695,25.2332397 15.5797695,25.2332397 L18.3659319,23.690325 C19.860587,22.8626184 22.849897,21.2072052 22.849897,21.2072052 C22.849897,21.2072052 29.0183724,17.7885075 29.8391098,17.3352711 C30.6585526,16.8807397 30.5795857,16.2578633 29.8883022,15.899159 C29.1957242,15.5417497 22.849897,12.0013257 22.849897,12.0013257 L15.5797695,7.97399625 Z" id="orange" fill="url(#linearGradient-1)"></path>
                        <g id="blue">
                            <mask id="mask-4" fill="white">
                                <use xlink:href="#path-3"></use>
                            </mask>
                            <use id="Clip-2" fill="url(#linearGradient-2)" xlink:href="#path-3"></use>
                            <path d="M22.8788084,11.9435066 L15.5991875,7.91350658 C15.5736934,7.97214854 2.33184841,0.618827265 1.55991875,0.243506578 C0.77512608,-0.245200958 0,0.0168616562 0,0.893506578 L0,16.6235066 C0,16.6176201 0,31.9573644 0,32.6135066 C0,33.3104897 0.553846348,33.6036885 1.16993907,33.2635066 C1.90611138,32.8538262 15.5736934,25.2630917 15.5991875,25.2035066 L22.8788084,21.1735066 C22.8409857,21.2296627 29.0070554,17.8046859 29.7684496,17.4035066 C30.6465959,16.8952508 30.5676599,16.2712304 29.8984428,15.9735066 C29.184338,15.5538016 22.8409857,12.0068749 22.8788084,11.9435066" id="Fill-1" mask="url(#mask-4)"></path>
                        </g>
                        <g id="red" transform="translate(0.387822, 16.575504)">
                            <mask id="mask-6" fill="white">
                                <use xlink:href="#path-5"></use>
                            </mask>
                            <g id="Clip-8"></g>
                            <path d="M15.5991875,-9.08649342 C15.5736934,-9.02785146 2.33184841,-16.3811727 1.55991875,-16.7564934 C0.77512608,-17.245201 0,-16.9831383 0,-16.1064934 L0,-0.376493422 C0,-0.382379868 0,14.9573644 0,15.6135066 C0,16.3104897 0.553846348,16.6036885 1.16993907,16.2635066 C1.90611138,15.8538262 15.5736934,8.26309172 15.5991875,8.20350658 L22.8788084,4.17350658 C22.8409857,4.22966268 29.0070554,0.804685935 29.7684496,0.403506578 C30.6465959,-0.104749177 30.5676599,-0.728769561 29.8984428,-1.02649342 C29.184338,-1.4461984 22.8409857,-4.99312507 22.8788084,-5.05649342 L15.5991875,-9.08649342 Z" id="Fill-7" fill="url(#linearGradient-7)" mask="url(#mask-6)"></path>
                        </g>
                        <g id="green" transform="translate(0.647269, 0.000000)">
                            <mask id="mask-10" fill="white">
                                <use xlink:href="#path-9"></use>
                            </mask>
                            <use id="Clip-5" fill="url(#linearGradient-8)" xlink:href="#path-9"></use>
                            <path d="M22.8788084,11.9435066 L15.5991875,7.91350658 C15.5736934,7.97214854 2.33184841,0.618827265 1.55991875,0.243506578 C0.77512608,-0.245200958 0,0.0168616562 0,0.893506578 L0,16.6235066 C0,16.6176201 0,31.9573644 0,32.6135066 C0,33.3104897 0.553846348,33.6036885 1.16993907,33.2635066 C1.90611138,32.8538262 15.5736934,25.2630917 15.5991875,25.2035066 L22.8788084,21.1735066 C22.8409857,21.2296627 29.0070554,17.8046859 29.7684496,17.4035066 C30.6465959,16.8952508 30.5676599,16.2712304 29.8984428,15.9735066 C29.184338,15.5538016 22.8409857,12.0068749 22.8788084,11.9435066" id="Fill-4" mask="url(#mask-10)"></path>
                        </g>
                    </g>
                    <g id="Google-play" transform="translate(45.107651, 26.130000)" fill="#FFFFFF">
                        <path d="M86.4293377,19.0730741 L84.9898321,20.4394479 C84.6571582,20.6233656 84.3262681,20.8368895 83.9962699,20.9885095 C82.9964645,21.4451636 81.9797133,21.56 81.0762318,21.56 C80.1147775,21.56 78.6074884,21.4971988 77.0698752,20.3784411 C74.9338057,18.8649331 74,16.2631709 74,13.996049 C74,9.30211104 77.7985469,7 80.8969625,7 C81.9797133,7 83.0918965,7.27273646 83.9962699,7.84781564 C85.4999915,8.84814838 85.8888542,10.1481324 86.1046909,10.8443281 L79.029351,13.719724 L76.7122285,13.9009502 C77.4623055,17.749764 80.0505617,19.9881767 82.9108434,19.9881767 C84.3396464,19.9881767 85.4001001,19.5189624 86.3731489,19.0353934 C86.3731489,19.0353934 86.5684721,18.9331173 86.4293377,19.0730741 L86.4293377,19.0730741 Z M82.1063123,11.3520797 C82.6741509,11.1407318 82.9695328,10.9582862 82.9695328,10.5337842 C82.9695328,9.31627605 81.6248839,7.91 80.0201225,7.91 C78.831541,7.91 76.5998646,8.85835572 76.5998646,12.1514081 C76.5998646,12.6653265 76.6598227,13.2126633 76.6898018,13.76 L82.1063123,11.3520797 L82.1063123,11.3520797 Z" id="Fill-1"></path>
                        <path d="M72.2031247,19.0584082 C72.2031247,20.2317152 72.4111431,20.4142893 73.3970076,20.5064713 C73.9108306,20.5673294 74.4228757,20.5941785 74.929587,20.6550365 L73.820156,21.32 L68.5334683,21.32 C69.2268627,20.4142893 69.3459843,20.3238972 69.3459843,19.7206868 L69.3459843,19.0467736 L69.3344277,1.09007472 L67,1.09007472 L69.247309,0 L73.5374644,0 C72.6076048,0.542352447 72.3293581,0.872596759 72.2102365,1.92955755 L72.2031247,19.0584082" id="Fill-2"></path>
                        <path d="M63.1702031,8.0917088 C63.8580235,8.66172396 65.2931274,9.87155207 65.2931274,12.1659302 C65.2931274,14.4021436 64.0426256,15.456269 62.7814736,16.4540192 C62.3945192,16.8468554 61.941889,17.2728008 61.941889,17.9314055 C61.941889,18.5998534 62.3945192,18.9622649 62.7202354,19.2325076 L63.8021103,20.0745551 C65.1174004,21.194004 66.3164266,22.2203893 66.3164266,24.3053741 C66.3164266,27.1456067 63.5899954,30.01 58.4379988,30.01 C54.0980741,30.01 52,27.92591 52,25.6914863 C52,24.6042518 52.5369437,23.0642265 54.308414,22.0092063 C56.1650853,20.8647017 58.6802891,20.7116835 60.0275295,20.6221992 C59.6068497,20.0745551 59.1267067,19.5009606 59.1267067,18.5649545 C59.1267067,18.0531041 59.2793585,17.7479626 59.4266851,17.3882356 C59.0991939,17.4195551 58.7690401,17.4517695 58.4690617,17.4517695 C55.2926628,17.4517695 53.4972297,15.0625379 53.4972297,12.7082053 C53.4972297,11.3194085 54.1255869,9.77848837 55.4160267,8.66172396 C57.1235962,7.24429221 59.1595446,7 60.7774756,7 L66.9492214,7 L65.0304244,8.0917088 L63.1702031,8.0917088 L63.1702031,8.0917088 Z M61.0631418,21.4627957 C60.8153113,21.43 60.6667919,21.43 60.3679637,21.43 C60.094187,21.43 58.4631579,21.4901254 57.1998485,21.9219351 C56.5315113,22.1706356 54.5998646,22.9058053 54.5998646,25.0894505 C54.5998646,27.2685407 56.6853988,28.84 59.9116692,28.84 C62.8104813,28.84 64.3493568,27.4252311 64.3493568,25.5203492 C64.3493568,23.9525338 63.3535612,23.1253541 61.0631418,21.4627957 L61.0631418,21.4627957 Z M61.9100617,15.6469869 C62.5993528,14.9520586 62.6594448,13.9921834 62.6594448,13.4471241 C62.6594448,11.2820524 61.3807215,7.91 58.9019247,7.91 C58.1286815,7.91 57.2909277,8.30162196 56.8154936,8.90734248 C56.3108972,9.53447286 56.1597833,10.3480474 56.1597833,11.1303993 C56.1597833,13.1464941 57.3245085,16.49 59.8863738,16.49 C60.6339895,16.49 61.4381624,16.1233562 61.9100617,15.6469869 L61.9100617,15.6469869 Z" id="Fill-3"></path>
                        <path d="M45.3234108,21.56 C40.5526098,21.56 38,17.7963315 38,14.388576 C38,10.4068544 41.2089952,7 45.7734528,7 C50.1858212,7 52.9492214,10.4996621 52.9492214,14.1741271 C52.9492214,17.7629928 50.21784,21.56 45.3234108,21.56 L45.3234108,21.56 Z M49.0544223,19.0985013 C49.78267,18.1226023 49.9593771,16.9045358 49.9593771,15.717192 C49.9593771,13.0316625 48.6956532,7.91 44.9607065,7.91 C43.9673981,7.91 42.96695,8.30307043 42.245842,8.94463366 C41.0695792,10.0117973 40.859851,11.3527548 40.859851,12.6684112 C40.859851,15.6810476 42.3306258,20.65 45.9807887,20.65 C47.1588364,20.65 48.3609806,20.0725931 49.0544223,19.0985013 L49.0544223,19.0985013 Z" id="Fill-4"></path>
                        <path d="M29.3229029,21.56 C24.5492244,21.56 22,17.7963315 22,14.388576 C22,10.4068544 25.211222,7 29.7758018,7 C34.1873392,7 36.9492214,10.4996621 36.9492214,14.1741271 C36.9492214,17.7629928 34.2202611,21.56 29.3229029,21.56 L29.3229029,21.56 Z M33.0557641,19.0985013 C33.7790117,18.1226023 33.9593771,16.9045358 33.9593771,15.717192 C33.9593771,13.0316625 32.6914616,7.91 28.958254,7.91 C27.9608867,7.91 26.9706625,8.30307043 26.2474149,8.94463366 C25.0687892,10.0117973 24.859851,11.3527548 24.859851,12.6684112 C24.859851,15.6810476 26.3375977,20.65 29.9833012,20.65 C31.1592482,20.65 32.3601963,20.0725931 33.0557641,19.0985013 L33.0557641,19.0985013 Z" id="Fill-5"></path>
                        <path d="M19.469734,20.5104532 L15.4287615,21.4418341 C13.791471,21.7016498 12.3212144,21.93 10.7643145,21.93 C2.9699897,21.93 0,16.1556179 0,11.6362626 C0,6.11720115 4.20800646,1 11.414586,1 C12.9393296,1 14.4060132,1.22565311 15.7422852,1.59245178 C17.8601335,2.19119668 18.8507256,2.92928912 19.469734,3.36171599 L17.1223256,5.60566084 L16.1326268,5.8286169 L16.8382784,4.69675529 C15.8825224,3.75728319 14.125539,2.02308062 10.7911114,2.02308062 C6.33300059,2.02308062 2.9699897,5.43394871 2.9699897,10.4136004 C2.9699897,15.7618487 6.8099854,20.7927443 12.9688061,20.7927443 C14.7784901,20.7927443 15.710129,20.4268446 16.5560178,20.0852184 L16.5560178,15.500235 L12.2890581,15.7312822 L14.5507164,14.5086199 L20.5389303,14.5086199 L19.8064817,15.2179438 C19.6090779,15.3869589 19.582281,15.4444959 19.5269007,15.6710481 C19.4974241,15.9299648 19.469734,16.7534638 19.469734,17.042947 L19.469734,20.5104532" id="Fill-6"></path>
                        <path d="M95.5212345,19.2121706 L95.5212345,26.89 L94,26.89 L94,7.35284964 L95.5212345,7.35284964 L95.5212345,9.57803557 C96.5122203,8.13983832 98.3230865,7 100.426258,7 C104.198599,7 106.739336,9.86835489 106.739336,14.4089491 C106.739336,18.9191714 104.198599,21.8473767 100.426258,21.8473767 C98.4407215,21.8473767 96.6619376,20.8209863 95.5212345,19.2121706 L95.5212345,19.2121706 Z M105.179418,14.526008 C105.179418,11.0677218 103.393093,8.43 100.225653,8.43 C98.2586382,8.43 96.3774957,9.98988476 95.5599188,11.3502704 L95.5599188,17.6701507 C96.3774957,19.0332444 98.2586382,20.65 100.225653,20.65 C103.393093,20.65 105.179418,17.9897104 105.179418,14.526008 L105.179418,14.526008 Z" id="Fill-7"></path>
                        <polygon id="Fill-8" points="109 2 110.559919 2 110.559919 21.63 109 21.63"></polygon>
                        <path d="M127.490148,25.2781425 C127.815449,25.4237815 128.370689,25.5131306 128.722728,25.5131306 C129.653179,25.5131306 130.301108,25.13161 130.883086,23.7842258 L131.992675,21.2636881 L126,7 L127.696915,7 L132.837567,19.3605525 L137.928311,7 L139.649289,7 L132.340257,24.2568824 C131.581815,26.0349292 130.388449,26.89 128.749465,26.89 C128.257502,26.89 127.608682,26.8024379 127.229015,26.6853906 L127.490148,25.2781425" id="Fill-9"></path>
                        <path d="M123.326337,21.5406316 C123.224158,21.04747 123.147076,20.6126973 123.090609,20.2497879 C123.044001,19.8877767 123.017112,19.5176809 123.017112,19.1412971 C122.492773,19.9129288 121.749736,20.5552067 120.800548,21.0609444 C119.850464,21.5702752 118.947884,21.82 117.710086,21.82 C116.21953,21.82 115.062399,21.4525991 114.236902,20.7070178 C113.414093,19.9623348 113,18.9535544 113,17.6770833 C113,16.4024088 113.599628,15.3675779 114.7953,14.5761838 C115.990972,13.7811965 117.536203,13.3859486 119.448919,13.3859486 L123.017112,13.3859486 L123.017112,11.6190108 C123.017112,10.6012474 122.671138,9.80087041 121.980086,9.22057462 C121.286346,8.63938053 120.312958,8.34563947 119.050959,8.34563947 C117.897414,8.34563947 116.961671,8.61422839 116.249108,9.13703358 C115.542819,9.67061826 115.186986,10.3317602 115.186986,11.1285441 L113.62114,11.1285441 L113.588873,11.0521894 C113.532406,9.97783368 114.022685,9.03552673 115.065088,8.22167535 C116.10301,7.40872227 117.462706,7 119.136108,7 C120.804133,7 122.153969,7.40243423 123.171276,8.20550612 C124.187687,9.00049339 124.697685,10.1494072 124.697685,11.6513493 L124.697685,18.6669996 C124.697685,19.1709407 124.721885,19.6578143 124.784626,20.1321118 C124.84916,20.6073076 124.952236,21.081605 125.08937,21.5406316 L123.326337,21.5406316 L123.326337,21.5406316 Z M117.894154,20.52 C119.192687,20.52 120.12584,20.2274549 121.07959,19.648685 C122.027071,19.0735268 122.67186,18.3232027 123.009479,17.414868 L123.009479,14.67 L119.427319,14.67 C118.058933,14.67 116.926075,14.975186 116.035013,15.5909755 C115.14216,16.2049591 114.689912,16.9480599 114.689912,17.8121516 C114.689912,18.6274857 114.976485,19.2793919 115.546048,19.7732875 C116.117403,20.2726007 116.898314,20.52 117.894154,20.52 L117.894154,20.52 Z" id="Fill-10"></path>
                    </g>
                    <g id="Get-it-on" transform="translate(44.587678, 10.400000)" fill="#FFFFFF">
                        <path d="M0,4.6014734 C0,1.8012648 2.23598393,0 5.01641248,0 C6.87988167,0 8.0986138,0.827315424 8.85797077,1.84042273 L7.49685921,2.57442564 C6.98106957,1.90707453 6.07754222,1.38802366 5.01641248,1.38802366 C3.12518378,1.38802366 1.72019428,2.72105959 1.72019428,4.6014734 C1.72019428,6.45439334 3.12518378,7.81492314 5.01641248,7.81492314 C5.99157728,7.81492314 6.85122669,7.401682 7.28105139,7.01510158 L7.28105139,5.64124143 L4.4146579,5.64124143 L4.4146579,4.26738127 L8.94393571,4.26738127 L8.94393571,7.58830703 C8.01264886,8.56225641 6.66496932,9.21544402 5.01641248,9.21544402 C2.23598393,9.21544402 0,7.38918479 0,4.6014734" id="Fill-1"></path>
                        <polyline id="Fill-2" points="11 8.94440154 11 0 17.6401947 0 17.6401947 1.38224806 12.7002166 1.38224806 12.7002166 3.68767028 17.5385266 3.68767028 17.5385266 5.06908062 12.7002166 5.06908062 12.7002166 7.56299121 17.6401947 7.56299121 17.6401947 8.94440154 11 8.94440154"></polyline>
                        <polyline id="Fill-3" points="22.8896095 8.94440154 22.8896095 1.38224806 20 1.38224806 20 0 27.4532798 0 27.4532798 1.38224806 24.5636703 1.38224806 24.5636703 8.94440154 22.8896095 8.94440154"></polyline>
                        <polygon id="Fill-4" points="33 0 34.6261701 0 34.6261701 8.94440154 33 8.94440154"></polygon>
                        <polyline id="Fill-5" points="38.8905033 8.94440154 38.8905033 1.38224806 36 1.38224806 36 0 43.4532798 0 43.4532798 1.38224806 40.5645641 1.38224806 40.5645641 8.94440154 38.8905033 8.94440154"></polyline>
                        <path d="M49,4.60813918 C49,1.94988616 51.0452003,0 53.9467206,0 C56.83193,0 58.892535,1.94988616 58.892535,4.60813918 C58.892535,7.26555785 56.83193,9.21544402 53.9467206,9.21544402 C51.0452003,9.21544402 49,7.26555785 49,4.60813918 L49,4.60813918 Z M57.1308506,4.53996139 C57.1308506,2.71597627 55.8777228,1.35521236 53.9467176,1.35521236 C52.0013086,1.35521236 50.7616843,2.71597627 50.7616843,4.53996139 C50.7616843,6.34990951 52.0013086,7.72471042 53.9467176,7.72471042 C55.8777228,7.72471042 57.1308506,6.34990951 57.1308506,4.53996139 L57.1308506,4.53996139 Z" id="Fill-6"></path>
                        <polyline id="Fill-7" points="67.6500814 8.94440154 62.6725719 2.54836279 62.6725719 8.94440154 61 8.94440154 61 0 62.7163518 0 67.5928995 6.19582222 67.5928995 0 69.2663648 0 69.2663648 8.94440154 67.6500814 8.94440154"></polyline>
                    </g>
                </g>
            </g>
        </g>
    </g>
</svg>